{
.appVersion = "1045";
customParameters = (
{
name = glyphOrder;
value = (
A,
Agrave,
Aacute,
Acircumflex,
Atilde,
Adieresis,
Aring,
Amacron,
Abreve,
Aogonek,
B,
C,
Ccedilla,
Cacute,
Cdotaccent,
Ccaron,
D,
Dcaron,
E,
Egrave,
Eacute,
Ecircumflex,
Edieresis,
Emacron,
Ebreve,
Edotaccent,
Eogonek,
Ecaron,
Etilde,
F,
G,
Gbreve,
Gdotaccent,
Gcommaaccent,
H,
I,
Igrave,
Iacute,
Icircumflex,
Idieresis,
Itilde,
Imacron,
Ibreve,
Iogonek,
Idotaccent,
J,
K,
Kcommaaccent,
L,
Lacute,
Lcommaaccent,
Lcaron,
M,
N,
Ntilde,
Nacute,
Ncommaaccent,
Ncaron,
O,
Ograve,
Oacute,
Ocircumflex,
Otilde,
Odieresis,
Omacron,
Obreve,
Ohungarumlaut,
P,
Q,
R,
Racute,
Rcommaaccent,
Rcaron,
S,
Sacute,
Scedilla,
Scaron,
Scommaaccent,
T,
Tcedilla,
Tcommaaccent,
Tcaron,
U,
Ugrave,
Uacute,
Ucircumflex,
Udieresis,
Utilde,
Umacron,
Ubreve,
Uring,
Uhungarumlaut,
Uogonek,
V,
W,
Wcircumflex,
Wgrave,
Wacute,
Wdieresis,
X,
Y,
Yacute,
Ycircumflex,
Ydieresis,
Ygrave,
Ytilde,
Z,
Zacute,
Zdotaccent,
Zcaron,
AE,
AEacute,
Eth,
Oslash,
Thorn,
Dcroat,
Ldot,
Lslash,
OE,
litre,
a,
agrave,
aacute,
acircumflex,
atilde,
adieresis,
aring,
amacron,
abreve,
aogonek,
b,
c,
ccedilla,
cacute,
cdotaccent,
ccaron,
d,
dcaron,
e,
egrave,
eacute,
ecircumflex,
edieresis,
emacron,
ebreve,
edotaccent,
eogonek,
ecaron,
etilde,
f,
g,
gbreve,
gdotaccent,
gcommaaccent,
h,
i,
igrave,
iacute,
icircumflex,
idieresis,
itilde,
imacron,
ibreve,
iogonek,
j,
k,
kcommaaccent,
l,
lacute,
lcommaaccent,
lcaron,
m,
n,
ntilde,
nacute,
ncommaaccent,
ncaron,
o,
ograve,
oacute,
ocircumflex,
otilde,
odieresis,
omacron,
obreve,
ohungarumlaut,
p,
q,
r,
racute,
rcommaaccent,
rcaron,
s,
sacute,
scedilla,
scaron,
scommaaccent,
t,
tcedilla,
tcaron,
tcommaaccent,
u,
ugrave,
uacute,
ucircumflex,
udieresis,
utilde,
umacron,
ubreve,
uring,
uhungarumlaut,
uogonek,
v,
w,
wcircumflex,
wgrave,
wacute,
wdieresis,
x,
y,
yacute,
ydieresis,
ycircumflex,
ygrave,
ytilde,
z,
zacute,
zdotaccent,
zcaron,
ordfeminine,
ordmasculine,
germandbls,
ae,
aeacute,
eth,
oslash,
thorn,
dcroat,

glyphs = (
{
glyphname = A;
lastChange = "2017-08-09 06:16:28 +0000";
layers = (
{
anchors = (
{
name = ogonek;
position = "{561, 0}";
},
{
name = top;
position = "{301, 683}";
}
);
layerId = "4C47FEBD-3B68-4176-B8ED-E26FA8D86AD9";
paths = (
{
closed = 1;
nodes = (
"291 683 LINE",
"30 0 LINE",
"53 0 LINE",
"308 668 LINE",
"295 668 LINE",
"548 0 LINE",
"571 0 LINE",
"311 683 LINE"
);
},
{
closed = 1;
nodes = (
"117 194 LINE",
"484 194 LINE",
"477 212 LINE",
"123 212 LINE"
);
}
);
width = 601;
},
{
anchors = (
{
name = ogonek;
position = "{763, 0}";
},
{
name = top;
position = "{387, 711}";
}
);
layerId = "1A40E216-9158-4F5D-A2E9-8F4663F027D5";
paths = (
{
closed = 1;
nodes = (
"259 708 LINE",
"0 0 LINE",
"233 0 LINE",
"426 593 LINE",
"347 593 LINE",
"539 0 LINE",
"773 0 LINE",
"515 708 LINE"
);
},
{
closed = 1;
nodes = (
"114 107 LINE",
"634 107 LINE",
"579 274 LINE",
"170 274 LINE"
);
}
);
width = 773;
},
{
anchors = (
{
name = ogonek;
position = "{500.784, 0}";
},
{
name = top;
position = "{361.216, 683}";
}
);
layerId = "F6847B4A-0A2E-406E-80B1-427EE12FE698";
paths = (
{
closed = 1;
nodes = (
"351.216 683 LINE",
"-30.216 0 LINE",
"-7.216 0 LINE",
"365.571 668 LINE",
"352.571 668 LINE",
"487.784 0 LINE",
"510.784 0 LINE",
"371.216 683 LINE"
);
},
{
closed = 1;
nodes = (
"90.992 194 LINE",
"457.992 194 LINE",
"454.166 212 LINE",
"100.166 212 LINE"
);
}
);
width = 601;
},
{
anchors = (
{
name = ogonek;
position = "{701, 0}";
},
{
name = top;
position = "{450, 711}";
}
);
layerId = "248E82CE-81F2-4042-A23E-56D22FBFDD32";
paths = (
{
closed = 1;
nodes = (
"321 708 LINE",
"-62 0 LINE",
"171 0 LINE",
"468 593 LINE",
"389 593 LINE",
"477 0 LINE",
"711 0 LINE",
"577 708 LINE"
);
},
{
closed = 1;
nodes = (
"70 107 LINE",
"590 107 LINE",
"565 274 LINE",
"156 274 LINE"
);
}
);
width = 773;
}
);
unicode = 0041;
userData = {
com.typesupply.AccentFactory.yCoordinates = {
bottom = {
name = origin;
type = glyphMetric;
};
top = {
name = capHeight;
type = fontInfo;
};
};
};
},
{
glyphname = Aogonek;
lastChange = "2017-08-09 06:16:28 +0000";
layers = (
{
layerId = "4C47FEBD-3B68-4176-B8ED-E26FA8D86AD9";
paths = (
{
closed = 1;
nodes = (
"117 194 LINE",
"484 194 LINE",
"477 212 LINE",
"123 212 LINE"
);
},
{
closed = 1;
nodes = (
"30 0 LINE",
"53 0 LINE",
"306 662 LINE",
"296 662 LINE",
"551 -6 LINE",
"557 0 LINE",
"466 0 OFFCURVE",
"428 -42 OFFCURVE",
"428 -95 CURVE",
"428 -148 OFFCURVE",
"466 -190 OFFCURVE",
"543 -190 CURVE",
"611 -190 LINE",
"611 -170 LINE",
"543 -170 LINE SMOOTH",
"484 -170 OFFCURVE",
"448 -142 OFFCURVE",
"448 -95 CURVE",
"448 -48 OFFCURVE",
"484 -20 OFFCURVE",
"543 -20 CURVE SMOOTH",
"571 -20 LINE",
"571 0 LINE",
"311 683 LINE",
"291 683 LINE"
);
}
);
width = 601;
},
{
layerId = "1A40E216-9158-4F5D-A2E9-8F4663F027D5";
paths = (
{
closed = 1;
nodes = (
"114 107 LINE",
"634 107 LINE",
"579 274 LINE",
"170 274 LINE"
);
},
{
closed = 1;
nodes = (
"0 0 LINE",
"233 0 LINE",
"426 593 LINE",
"347 593 LINE",
"549 -30 LINE",
"565 15 LINE",
"515 -13 OFFCURVE",
"494 -49 OFFCURVE",
"494 -97 CURVE",
"494 -192 OFFCURVE",
"577 -219 OFFCURVE",
"644 -219 CURVE",
"812 -219 LINE",
"812 -106 LINE",
"667 -106 LINE SMOOTH",
"651 -106 OFFCURVE",
"641 -100 OFFCURVE",
"641 -90 CURVE SMOOTH",
"641 -80 OFFCURVE",
"651 -75 OFFCURVE",
"667 -75 CURVE SMOOTH",
"767 -75 LINE",
"767 15 LINE",
"515 708 LINE",
"259 708 LINE"
);
}
);
width = 773;
},
{
layerId = "F6847B4A-0A2E-406E-80B1-427EE12FE698";
paths = (
{
closed = 1;
nodes = (
"102 194 LINE",
"469 194 LINE",
"465 212 LINE",
"111 212 LINE"
);
},
{
closed = 1;
nodes = (
"-19 0 LINE",
"4 0 LINE",
"373 662 LINE",
"363 662 LINE",
"500 -6 LINE",
"508 0 LINE",
"417 0 OFFCURVE",
"371 -42 OFFCURVE",
"362 -95 CURVE",
"352 -148 OFFCURVE",
"383 -190 OFFCURVE",
"460 -190 CURVE",
"528 -190 LINE",
"532 -170 LINE",
"464 -170 LINE SMOOTH",
"405 -170 OFFCURVE",
"373 -142 OFFCURVE",
"382 -95 CURVE",
"390 -48 OFFCURVE",
"431 -20 OFFCURVE",
"490 -20 CURVE SMOOTH",
"518 -20 LINE",
"522 0 LINE",
"382 683 LINE",
"362 683 LINE"
);
}
);
width = 601;
},
{
layerId = "248E82CE-81F2-4042-A23E-56D22FBFDD32";
paths = (
{
closed = 1;
nodes = (
"90 107 LINE",
"610 107 LINE",
"584 274 LINE",
"175 274 LINE"
);
},
{
closed = 1;
nodes = (
"-43 0 LINE",
"190 0 LINE",
"487 593 LINE",
"408 593 LINE",
"501 -30 LINE",
"525 15 LINE",
"470 -13 OFFCURVE",
"442 -49 OFFCURVE",
"434 -97 CURVE",
"417 -192 OFFCURVE",
"495 -219 OFFCURVE",
"562 -219 CURVE",
"730 -219 LINE",
"750 -106 LINE",
"605 -106 LINE SMOOTH",
"589 -106 OFFCURVE",
"580 -100 OFFCURVE",
"582 -90 CURVE SMOOTH",
"584 -80 OFFCURVE",
"595 -75 OFFCURVE",
"611 -75 CURVE SMOOTH",
"711 -75 LINE",
"727 15 LINE",
"597 708 LINE",
"341 708 LINE"
);
}
);
width = 773;
}
);
unicode = 0104;
userData = {
com.typesupply.AccentFactory.compileType = manual;
};
},
{
glyphname = B;
lastChange = "2017-08-09 06:16:28 +0000";
layers = (
{
layerId = "4C47FEBD-3B68-4176-B8ED-E26FA8D86AD9";
paths = (
{
closed = 1;
nodes = (
"474 532 CURVE",
"474 437 OFFCURVE",
"412 376 OFFCURVE",
"293 376 CURVE SMOOTH",
"105 376 LINE",
"105 684 LINE",
"287 684 LINE SMOOTH",
"419 684 OFFCURVE",
"474 620 OFFCURVE"
);
},
{
closed = 1;
nodes = (
"510 188 CURVE SMOOTH",
"510 293 OFFCURVE",
"426 369 OFFCURVE",
"320 369 CURVE",
"312 361 LINE",
"402 362 OFFCURVE",
"494 411 OFFCURVE",
"494 532 CURVE",
"494 628 OFFCURVE",
"434 704 OFFCURVE",
"287 704 CURVE SMOOTH",
"85 704 LINE",
"85 0 LINE",
"287 0 LINE SMOOTH",
"439 0 OFFCURVE",
"510 84 OFFCURVE"
);
},
{
closed = 1;
nodes = (
"490 188 CURVE SMOOTH",
"490 84 OFFCURVE",
"415 20 OFFCURVE",
"287 20 CURVE SMOOTH",
"105 20 LINE",
"105 356 LINE",
"285 356 LINE SMOOTH",
"413 356 OFFCURVE",
"490 290 OFFCURVE"
);
}
);
width = 560;
},
{
layerId = "1A40E216-9158-4F5D-A2E9-8F4663F027D5";
paths = (
{
closed = 1;
nodes = (
"417 481 CURVE SMOOTH",
"417 446.596 OFFCURVE",
"398 432 OFFCURVE",
"358 432 CURVE SMOOTH",
"272 432 LINE",
"272 532 LINE",
"358 532 LINE SMOOTH",
"398 532 OFFCURVE",
"417 515.641 OFFCURVE"
);
},
{
closed = 1;
nodes = (
"659 194 CURVE SMOOTH",
"659 285 OFFCURVE",
"595 364 OFFCURVE",
"481 369 CURVE",
"464 357 LINE",
"563 352 OFFCURVE",
"643 416 OFFCURVE",
"643 524 CURVE SMOOTH",
"643 647 OFFCURVE",
"552 708 OFFCURVE",
"411 708 CURVE SMOOTH",
"50 708 LINE",
"50 0 LINE",
"421 0 LINE SMOOTH",
"575 0 OFFCURVE",
"659 70 OFFCURVE"
);
},
{
closed = 1;
nodes = (
"432 227 CURVE SMOOTH",
"432 192.412 OFFCURVE",
"413 178 OFFCURVE",
"373 178 CURVE SMOOTH",
"272 178 LINE",
"272 278 LINE",
"373 278 LINE SMOOTH",
"413 278 OFFCURVE",
"432 261.347 OFFCURVE"
);
}
);
width = 684;
},
{
layerId = "F6847B4A-0A2E-406E-80B1-427EE12FE698";
paths = (
{
closed = 1;
nodes = (
"505.739 532 CURVE",
"488.988 437 OFFCURVE",
"416.232 376 OFFCURVE",
"297.232 376 CURVE SMOOTH",
"109.232 376 LINE",
"163.541 684 LINE",
"345.541 684 LINE SMOOTH",
"477.541 684 OFFCURVE",
"521.256 620 OFFCURVE"
);
},
{
closed = 1;
nodes = (
"481.082 188 CURVE SMOOTH",
"499.597 293 OFFCURVE",
"428.998 369 OFFCURVE",
"322.998 369 CURVE",
"313.587 361 LINE",
"403.763 362 OFFCURVE",
"504.403 411 OFFCURVE",
"525.739 532 CURVE",
"542.666 628 OFFCURVE",
"496.067 704 OFFCURVE",
"349.067 704 CURVE SMOOTH",
"147.067 704 LINE",
"22.933 0 LINE",
"224.933 0 LINE SMOOTH",
"376.933 0 OFFCURVE",
"462.744 84 OFFCURVE"
);
},
{
closed = 1;
nodes = (
"461.082 188 CURVE SMOOTH",
"442.744 84 OFFCURVE",
"356.459 20 OFFCURVE",
"228.459 20 CURVE SMOOTH",
"46.459 20 LINE",
"105.705 356 LINE",
"285.705 356 LINE SMOOTH",
"413.705 356 OFFCURVE",
"479.068 290 OFFCURVE"
);
}
);
width = 560;
},
{
layerId = "248E82CE-81F2-4042-A23E-56D22FBFDD32";
paths = (
{
closed = 1;
nodes = (
"439 481 CURVE SMOOTH",
"433 447 OFFCURVE",
"412 432 OFFCURVE",
"372 432 CURVE SMOOTH",
"286 432 LINE",
"303 532 LINE",
"389 532 LINE SMOOTH",
"429 532 OFFCURVE",
"446 516 OFFCURVE"
);
},
{
closed = 1;
nodes = (
"631 194 CURVE SMOOTH",
"647 285 OFFCURVE",
"597 364 OFFCURVE",
"484 369 CURVE",
"465 357 LINE",
"563 352 OFFCURVE",
"654 416 OFFCURVE",
"673 524 CURVE SMOOTH",
"695 647 OFFCURVE",
"614 708 OFFCURVE",
"473 708 CURVE SMOOTH",
"112 708 LINE",
"-12 0 LINE",
"359 0 LINE SMOOTH",
"513 0 OFFCURVE",
"609 70 OFFCURVE"
);
},
{
closed = 1;
nodes = (
"410 227 CURVE SMOOTH",
"404 192 OFFCURVE",
"382 178 OFFCURVE",
"342 178 CURVE SMOOTH",
"241 178 LINE",
"259 278 LINE",
"360 278 LINE SMOOTH",
"400 278 OFFCURVE",
"416 261 OFFCURVE"
);
}
);
width = 684;
}
);
unicode = 0042;
userData = {
com.typesupply.AccentFactory.yCoordinates = {
bottom = {
name = origin;
type = glyphMetric;
};
top = {
name = capHeight;
type = fontInfo;
};
};
};
},
{
glyphname = C;
lastChange = "2017-08-09 06:16:28 +0000";
layers = (
{
anchors = (
{
name = bottom;
position = "{411, 0}";
},
{
name = top;
position = "{411, 683}";
}
);
layerId = "4C47FEBD-3B68-4176-B8ED-E26FA8D86AD9";
paths = (
{
closed = 1;
nodes = (
"60 351 CURVE",
"60 141 OFFCURVE",
"197 -7 OFFCURVE",
"388 -7 CURVE",
"557 -7 OFFCURVE",
"661 78 OFFCURVE",
"709 207 CURVE",
"689 207 LINE",
"648 95 OFFCURVE",
"548 11 OFFCURVE",
"388 11 CURVE",
"218 11 OFFCURVE",
"81 140 OFFCURVE",
"81 351 CURVE",
"81 564 OFFCURVE",
"218 693 OFFCURVE",
"388 693 CURVE",
"548 693 OFFCURVE",
"648 609 OFFCURVE",
"689 496 CURVE",
"709 496 LINE",
"661 626 OFFCURVE",
"557 711 OFFCURVE",
"388 711 CURVE",
"197 711 OFFCURVE",
"60 563 OFFCURVE"
);
}
);
width = 769;
},
{
anchors = (
{
name = bottom;
position = "{377, 0}";
},
{
name = top;
position = "{377, 711}";
}
);
layerId = "1A40E216-9158-4F5D-A2E9-8F4663F027D5";
paths = (
{
closed = 1;
nodes = (
"30 355 CURVE",
"30 144 OFFCURVE",
"163 -5 OFFCURVE",
"380 -5 CURVE",
"567 -5 OFFCURVE",
"694 107 OFFCURVE",
"723 274 CURVE",
"489 274 LINE",
"468 227 OFFCURVE",
"426 200 OFFCURVE",
"376 200 CURVE",
"301 200 OFFCURVE",
"255 261 OFFCURVE",
"255 355 CURVE",
"255 449 OFFCURVE",
"301 510 OFFCURVE",
"376 510 CURVE",
"426 510 OFFCURVE",
"468 483 OFFCURVE",
"489 436 CURVE",
"723 436 LINE",
"694 603 OFFCURVE",
"567 715 OFFCURVE",
"380 715 CURVE",
"163 715 OFFCURVE",
"30 566 OFFCURVE"
);
}
);
width = 753;
},
{
anchors = (
{
name = bottom;
position = "{348.933, 0}";
},
{
name = top;
position = "{469.364, 683}";
}
);
layerId = "F6847B4A-0A2E-406E-80B1-427EE12FE698";
paths = (
{
closed = 1;
nodes = (
"59.824 351 CURVE",
"22.795 141 OFFCURVE",
"133.699 -7 OFFCURVE",
"324.699 -7 CURVE",
"493.699 -7 OFFCURVE",
"612.686 78 OFFCURVE",
"683.433 207 CURVE",
"663.433 207 LINE",
"602.684 95 OFFCURVE",
"487.872 11 OFFCURVE",
"327.872 11 CURVE",
"157.872 11 OFFCURVE",
"43.619 140 OFFCURVE",
"80.824 351 CURVE",
"118.381 564 OFFCURVE",
"278.128 693 OFFCURVE",
"448.128 693 CURVE",
"608.128 693 OFFCURVE",
"693.316 609 OFFCURVE",
"714.391 496 CURVE",
"734.391 496 LINE",
"709.314 626 OFFCURVE",
"620.301 711 OFFCURVE",
"451.301 711 CURVE",
"260.301 711 OFFCURVE",
"97.205 563 OFFCURVE"
);
}
);
width = 769;
},
{
anchors = (
{
name = bottom;
position = "{314, 0}";
},
{
name = top;
position = "{440, 711}";
}
);
layerId = "248E82CE-81F2-4042-A23E-56D22FBFDD32";
paths = (
{
closed = 1;
nodes = (
"30 355 CURVE",
"-7 144 OFFCURVE",
"100 -5 OFFCURVE",
"317 -5 CURVE",
"504 -5 OFFCURVE",
"650 107 OFFCURVE",
"709 274 CURVE",
"475 274 LINE",
"445 227 OFFCURVE",
"399 200 OFFCURVE",
"349 200 CURVE",
"274 200 OFFCURVE",
"238 261 OFFCURVE",
"255 355 CURVE",
"272 449 OFFCURVE",
"328 510 OFFCURVE",
"403 510 CURVE",
"453 510 OFFCURVE",
"491 483 OFFCURVE",
"503 436 CURVE",
"737 436 LINE",
"738 603 OFFCURVE",
"630 715 OFFCURVE",
"443 715 CURVE",
"226 715 OFFCURVE",
"67 566 OFFCURVE"
);
}
);
width = 753;
}
);
unicode = 0043;
userData = {
com.typesupply.AccentFactory.yCoordinates = {
bottom = {
name = origin;
type = glyphMetric;
};
top = {
name = capHeight;
type = fontInfo;
};
};
};
},
{
glyphname = D;
lastChange = "2017-08-09 06:16:28 +0000";
layers = (
{
anchors = (
{
name = top;
position = "{340, 683}";
}
);
layerId = "4C47FEBD-3B68-4176-B8ED-E26FA8D86AD9";
paths = (
{
closed = 1;
nodes = (
"270 704 CURVE",
"85 704 LINE",
"85 0 LINE",
"270 0 LINE",
"515 0 OFFCURVE",
"642 130 OFFCURVE",
"642 352 CURVE",
"642 574 OFFCURVE",
"515 704 OFFCURVE"
);
},
{
closed = 1;
nodes = (
"105 18 LINE",
"105 686 LINE",
"270 686 LINE",
"506 686 OFFCURVE",
"622 558 OFFCURVE",
"622 352 CURVE",
"622 146 OFFCURVE",
"506 18 OFFCURVE",
"270 18 CURVE"
);
}
);
width = 702;
},
{
anchors = (
{
name = top;
position = "{359, 711}";
}
);
layerId = "1A40E216-9158-4F5D-A2E9-8F4663F027D5";
paths = (
{
closed = 1;
nodes = (
"345 708 CURVE SMOOTH",
"50 708 LINE",
"50 0 LINE",
"345 0 LINE SMOOTH",
"571 0 OFFCURVE",
"713 154 OFFCURVE",
"713 356 CURVE SMOOTH",
"713 560 OFFCURVE",
"571 708 OFFCURVE"
);
},
{
closed = 1;
nodes = (
"272 198 LINE",
"272 514 LINE",
"325 514 LINE SMOOTH",
"423 514 OFFCURVE",
"488 459 OFFCURVE",
"488 356 CURVE SMOOTH",
"488 253 OFFCURVE",
"423 198 OFFCURVE",
"325 198 CURVE SMOOTH"
);
}
);
width = 743;
},
{
anchors = (
{
name = top;
position = "{398.364, 683}";
}
);
layerId = "F6847B4A-0A2E-406E-80B1-427EE12FE698";
paths = (
{
closed = 1;
nodes = (
"332.067 704 CURVE",
"147.067 704 LINE",
"22.933 0 LINE",
"207.933 0 LINE",
"452.933 0 OFFCURVE",
"602.855 130 OFFCURVE",
"642 352 CURVE",
"681.145 574 OFFCURVE",
"577.067 704 OFFCURVE"
);
},
{
closed = 1;
nodes = (
"46.107 18 LINE",
"163.893 686 LINE",
"328.893 686 LINE",
"564.893 686 OFFCURVE",
"658.323 558 OFFCURVE",
"622 352 CURVE",
"585.677 146 OFFCURVE",
"447.107 18 OFFCURVE",
"211.107 18 CURVE"
);
}
);
width = 702;
},
{
anchors = (
{
name = top;
position = "{422, 711}";
}
);
layerId = "248E82CE-81F2-4042-A23E-56D22FBFDD32";
paths = (
{
closed = 1;
nodes = (
"407 708 CURVE SMOOTH",
"112 708 LINE",
"-12 0 LINE",
"283 0 LINE SMOOTH",
"509 0 OFFCURVE",
"678 154 OFFCURVE",
"713 356 CURVE SMOOTH",
"749 560 OFFCURVE",
"633 708 OFFCURVE"
);
},
{
closed = 1;
nodes = (
"244 198 LINE",
"300 514 LINE",
"353 514 LINE SMOOTH",
"451 514 OFFCURVE",
"507 459 OFFCURVE",
"488 356 CURVE SMOOTH",
"470 253 OFFCURVE",
"395 198 OFFCURVE",
"297 198 CURVE SMOOTH"
);
}
);
width = 743;
}
);
unicode = 0044;
userData = {
com.typemytype.robofont.guides = (
{
angle = 0;
isGlobal = 0;
magnetic = 5;
x = 122;
y = 684;
}
);
com.typesupply.AccentFactory.yCoordinates = {
bottom = {
name = origin;
type = glyphMetric;
};
top = {
name = capHeight;
type = fontInfo;
};
};
};
},
{
glyphname = E;
lastChange = "2017-08-09 06:16:28 +0000";
layers = (
{
anchors = (
{
name = bottom;
position = "{233, 0}";
},
{
name = ogonek;
position = "{399, 0}";
},
{
name = top;
position = "{233, 683}";
}
);
layerId = "4C47FEBD-3B68-4176-B8ED-E26FA8D86AD9";
paths = (
{
closed = 1;
nodes = (
"429 704 LINE",
"85 704 LINE",
"85 0 LINE",
"429 0 LINE",
"429 18 LINE",
"105 18 LINE",
"105 343 LINE",
"399 343 LINE",
"399 361 LINE",
"105 361 LINE",
"105 686 LINE",
"429 686 LINE"
);
}
);
width = 479;
},
{
anchors = (
{
name = bottom;
position = "{282, 0}";
},
{
name = ogonek;
position = "{512, 0}";
},
{
name = top;
position = "{282, 711}";
}
);
layerId = "1A40E216-9158-4F5D-A2E9-8F4663F027D5";
paths = (
{
closed = 1;
nodes = (
"522 708 LINE",
"50 708 LINE",
"50 0 LINE",
"522 0 LINE",
"522 177 LINE",
"272 177 LINE",
"272 277 LINE",
"492 277 LINE",
"492 444 LINE",
"272 444 LINE",
"272 532 LINE",
"522 532 LINE"
);
}
);
width = 556;
},
{
anchors = (
{
name = bottom;
position = "{170.933, 0}";
},
{
name = ogonek;
position = "{336.933, 0}";
},
{
name = top;
position = "{291.364, 683}";
}
);
layerId = "F6847B4A-0A2E-406E-80B1-427EE12FE698";
paths = (
{
closed = 1;
nodes = (
"491.067 704 LINE",
"147.067 704 LINE",
"22.933 0 LINE",
"366.933 0 LINE",
"370.107 18 LINE",
"46.107 18 LINE",
"103.413 343 LINE",
"397.413 343 LINE",
"400.587 361 LINE",
"106.587 361 LINE",
"163.893 686 LINE",
"487.893 686 LINE"
);
}
);
width = 479;
},
{
anchors = (
{
name = bottom;
position = "{220, 0}";
},
{
name = ogonek;
position = "{450, 0}";
},
{
name = top;
position = "{345, 711}";
}
);
layerId = "248E82CE-81F2-4042-A23E-56D22FBFDD32";
paths = (
{
closed = 1;
nodes = (
"584 708 LINE",
"112 708 LINE",
"-12 0 LINE",
"460 0 LINE",
"491 177 LINE",
"241 177 LINE",
"258 277 LINE",
"478 277 LINE",
"508 444 LINE",
"288 444 LINE",
"303 532 LINE",
"553 532 LINE"
);
}
);
width = 556;
}
);
unicode = 0045;
userData = {
com.typesupply.AccentFactory.yCoordinates = {
bottom = {
name = origin;
type = glyphMetric;
};
top = {
name = capHeight;
type = fontInfo;
};
};
};
},
{
glyphname = F;
lastChange = "2017-08-09 06:16:28 +0000";
layers = (
{
layerId = "4C47FEBD-3B68-4176-B8ED-E26FA8D86AD9";
paths = (
{
closed = 1;
nodes = (
"85 0 LINE",
"105 0 LINE",
"105 343 LINE",
"399 343 LINE",
"399 361 LINE",
"105 361 LINE",
"105 686 LINE",
"429 686 LINE",
"429 704 LINE",
"85 704 LINE"
);
}
);
width = 469;
},
{
layerId = "1A40E216-9158-4F5D-A2E9-8F4663F027D5";
paths = (
{
closed = 1;
nodes = (
"50 0 LINE",
"272 0 LINE",
"272 267 LINE",
"472 267 LINE",
"472 434 LINE",
"272 434 LINE",
"272 532 LINE",
"550 532 LINE",
"550 708 LINE",
"50 708 LINE"
);
}
);
width = 575;
},
{
layerId = "F6847B4A-0A2E-406E-80B1-427EE12FE698";
paths = (
{
closed = 1;
nodes = (
"22.933 0 LINE",
"42.933 0 LINE",
"103.413 343 LINE",
"397.413 343 LINE",
"400.587 361 LINE",
"106.587 361 LINE",
"163.893 686 LINE",
"487.893 686 LINE",
"491.067 704 LINE",
"147.067 704 LINE"
);
}
);
width = 469;
},
{
layerId = "248E82CE-81F2-4042-A23E-56D22FBFDD32";
paths = (
{
closed = 1;
nodes = (
"-12 0 LINE",
"210 0 LINE",
"257 267 LINE",
"457 267 LINE",
"486 434 LINE",
"286 434 LINE",
"303 532 LINE",
"581 532 LINE",
"612 708 LINE",
"112 708 LINE"
);
}
);
width = 575;
}
);
unicode = 0046;
userData = {
com.typesupply.AccentFactory.yCoordinates = {
bottom = {
name = origin;
type = glyphMetric;
};
top = {
name = capHeight;
type = fontInfo;
};
};
};
},
{
glyphname = G;
lastChange = "2017-08-09 06:16:28 +0000";
layers = (
{
anchors = (
{
name = bottom;
position = "{411, 0}";
},
{
name = top;
position = "{411, 683}";
}
);
layerId = "4C47FEBD-3B68-4176-B8ED-E26FA8D86AD9";
paths = (
{
closed = 1;
nodes = (
"60 351 CURVE",
"60 140 OFFCURVE",
"200 -8 OFFCURVE",
"396 -8 CURVE",
"592 -8 OFFCURVE",
"732 140 OFFCURVE",
"732 351 CURVE",
"732 359 LINE",
"381 359 LINE",
"381 341 LINE",
"713 341 LINE",
"708 135 OFFCURVE",
"568 10 OFFCURVE",
"396 10 CURVE",
"221 10 OFFCURVE",
"81 139 OFFCURVE",
"81 351 CURVE",
"81 563 OFFCURVE",
"221 692 OFFCURVE",
"396 692 CURVE",
"542 692 OFFCURVE",
"648 608 OFFCURVE",
"689 495 CURVE",
"709 495 LINE",
"661 624 OFFCURVE",
"551 710 OFFCURVE",
"396 710 CURVE",
"200 710 OFFCURVE",
"60 562 OFFCURVE"
);
}
);
width = 792;
},
{
anchors = (
{
name = bottom;
position = "{377, 0}";
},
{
name = top;
position = "{377, 711}";
}
);
layerId = "1A40E216-9158-4F5D-A2E9-8F4663F027D5";
paths = (
{
closed = 1;
nodes = (
"30 355 CURVE",
"30 144 OFFCURVE",
"167 -5 OFFCURVE",
"390 -5 CURVE",
"573 -5 OFFCURVE",
"673 102 OFFCURVE",
"722 187 CURVE",
"722 409 LINE",
"361 409 LINE",
"361 252 LINE",
"538 252 LINE",
"505 208 OFFCURVE",
"464 190 OFFCURVE",
"414 190 CURVE",
"305 190 OFFCURVE",
"255 245 OFFCURVE",
"255 355 CURVE",
"255 449 OFFCURVE",
"303 510 OFFCURVE",
"389 510 CURVE",
"435 510 OFFCURVE",
"467 493 OFFCURVE",
"484 466 CURVE",
"718 466 LINE",
"697 617 OFFCURVE",
"576 715 OFFCURVE",
"388 715 CURVE",
"166 715 OFFCURVE",
"30 566 OFFCURVE"
);
}
);
width = 752;
},
{
anchors = (
{
name = bottom;
position = "{349.109, 0}";
},
{
name = top;
position = "{469.541, 683}";
}
);
layerId = "F6847B4A-0A2E-406E-80B1-427EE12FE698";
paths = (
{
closed = 1;
nodes = (
"60 351 CURVE",
"22.795 140 OFFCURVE",
"136.699 -8 OFFCURVE",
"332.699 -8 CURVE",
"528.699 -8 OFFCURVE",
"694.795 140 OFFCURVE",
"732 351 CURVE",
"733.411 359 LINE",
"382.411 359 LINE",
"379.237 341 LINE",
"711.237 341 LINE",
"669.913 135 OFFCURVE",
"507.872 10 OFFCURVE",
"335.872 10 CURVE",
"160.872 10 OFFCURVE",
"43.619 139 OFFCURVE",
"81 351 CURVE",
"118.381 563 OFFCURVE",
"281.128 692 OFFCURVE",
"456.128 692 CURVE",
"602.128 692 OFFCURVE",
"693.316 608 OFFCURVE",
"714.391 495 CURVE",
"734.391 495 LINE",
"709.137 624 OFFCURVE",
"614.301 710 OFFCURVE",
"459.301 710 CURVE",
"263.301 710 OFFCURVE",
"97.205 562 OFFCURVE"
);
}
);
width = 792;
},
{
anchors = (
{
name = bottom;
position = "{315, 0}";
},
{
name = top;
position = "{440, 711}";
}
);
layerId = "248E82CE-81F2-4042-A23E-56D22FBFDD32";
paths = (
{
closed = 1;
nodes = (
"30 365 CURVE",
"-8 148 OFFCURVE",
"104 -5 OFFCURVE",
"327 -5 CURVE",
"520 -5 OFFCURVE",
"628 82 OFFCURVE",
"693 187 CURVE",
"732 409 LINE",
"371 409 LINE",
"343 252 LINE",
"520 252 LINE",
"479 208 OFFCURVE",
"435 190 OFFCURVE",
"385 190 CURVE",
"276 190 OFFCURVE",
"236 245 OFFCURVE",
"255 355 CURVE",
"272 449 OFFCURVE",
"331 510 OFFCURVE",
"417 510 CURVE",
"463 510 OFFCURVE",
"492 493 OFFCURVE",
"504 466 CURVE",
"738 466 LINE",
"733 607 OFFCURVE",
"639 715 OFFCURVE",
"451 715 CURVE",
"229 715 OFFCURVE",
"66 570 OFFCURVE"
);
}
);
width = 752;
}
);
unicode = 0047;
userData = {
com.typemytype.robofont.layerData = {
b = {
anchors = (
{
name = top;
x = 411;
y = 683;
},
{
name = bottom;
x = 411;
y = 0;
}
);
components = (
);
contours = (
{
points = (
{
segmentType = curve;
smooth = 1;
x = 60;
y = 341;
},
{
smooth = 0;
x = 60;
y = 138;
},
{
smooth = 0;
x = 214;
y = -6;
},
{
segmentType = curve;
smooth = 1;
x = 407;
y = -6;
},
{
smooth = 0;
x = 590;
y = -6;
},
{
smooth = 0;
x = 747;
y = 110;
},
{
segmentType = curve;
smooth = 0;
x = 764;
y = 341;
},
{
segmentType = line;
smooth = 0;
x = 764;
y = 360;
},
{
segmentType = line;
smooth = 0;
x = 381;
y = 360;
},
{
segmentType = line;
smooth = 0;
x = 381;
y = 341;
},
{
segmentType = line;
smooth = 0;
x = 747;
y = 341;
},
{
smooth = 0;
x = 733;
y = 132;
},
{
smooth = 0;
x = 600;
y = 6;
},
{
segmentType = curve;
smooth = 1;
x = 407;
y = 6;
},
{
smooth = 0;
x = 226;
y = 6;
},
{
smooth = 0;
x = 80;
y = 137;
},
{
segmentType = curve;
smooth = 1;
x = 80;
y = 341;
},
{
smooth = 0;
x = 80;
y = 547;
},
{
smooth = 0;
x = 226;
y = 677;
},
{
segmentType = curve;
smooth = 1;
x = 407;
y = 677;
},
{
smooth = 0;
x = 528;
y = 677;
},
{
smooth = 0;
x = 633;
y = 618;
},
{
segmentType = curve;
smooth = 0;
x = 683;
y = 525;
},
{
segmentType = line;
smooth = 0;
x = 709;
y = 525;
},
{
smooth = 0;
x = 648;
y = 637;
},
{
smooth = 0;
x = 537;
y = 690;
},
{
segmentType = curve;
smooth = 1;
x = 407;
y = 690;
},
{
smooth = 0;
x = 214;
y = 690;
},
{
smooth = 0;
x = 60;
y = 546;
}
);
}
);
lib = {
};
name = G;
unicodes = (
);
width = 792;
};
};
com.typesupply.AccentFactory.yCoordinates = {
bottom = {
name = origin;
type = glyphMetric;
};
top = {
name = capHeight;
type = fontInfo;
};
};
};
},
{
color = 6;
glyphname = Gcommaaccent;
lastChange = "2017-08-09 06:16:17 +0000";
layers = (
{
components = (
{
name = G;
}
);
layerId = "4C47FEBD-3B68-4176-B8ED-E26FA8D86AD9";
paths = (
{
closed = 1;
nodes = (
"377 -59 LINE",
"377 -97 LINE",
"408 -97 LINE",
"408 -104 LINE SMOOTH",
"408 -137 OFFCURVE",
"397 -158 OFFCURVE",
"365 -158 CURVE",
"365 -176 LINE",
"401 -176 OFFCURVE",
"430 -161 OFFCURVE",
"430 -90 CURVE SMOOTH",
"430 -81 OFFCURVE",
"429 -68 OFFCURVE",
"428 -59 CURVE"
);
}
);
width = 792;
},
{
anchors = (
{
name = _bottom;
position = "{378, 0}";
}
);
components = (
{
name = G;
}
);
layerId = "1A40E216-9158-4F5D-A2E9-8F4663F027D5";
paths = (
{
closed = 1;
nodes = (
"298 -35 LINE",
"298 -182 LINE",
"370 -182 LINE",
"370 -193 LINE SMOOTH",
"370 -245 OFFCURVE",
"350 -268 OFFCURVE",
"315 -268 CURVE",
"315 -346 LINE",
"429 -346 OFFCURVE",
"480 -266 OFFCURVE",
"480 -170 CURVE SMOOTH",
"480 -128 OFFCURVE",
"472 -82 OFFCURVE",
"454 -35 CURVE"
);
}
);
width = 756;
},
{
components = (
{
name = G;
transform = "{1, 0, 0, 1, 3, 0}";
}
);
layerId = "F6847B4A-0A2E-406E-80B1-427EE12FE698";
paths = (
{
closed = 1;
nodes = (
"319.517 -59 LINE",
"312.817 -97 LINE",
"343.817 -97 LINE",
"342.583 -104 LINE SMOOTH",
"336.764 -137 OFFCURVE",
"322.061 -158 OFFCURVE",
"290.061 -158 CURVE",
"286.887 -176 LINE",
"322.887 -176 OFFCURVE",
"354.532 -161 OFFCURVE",
"367.051 -90 CURVE SMOOTH",
"368.638 -81 OFFCURVE",
"369.93 -68 OFFCURVE",
"370.517 -59 CURVE"
);
}
);
width = 792;
},
{
anchors = (
{
name = _bottom;
position = "{346, 0}";
}
);
components = (
{
name = G;
transform = "{1, 0, 0, 1, -2, 0}";
}
);
layerId = "248E82CE-81F2-4042-A23E-56D22FBFDD32";
paths = (
{
closed = 1;
nodes = (
"260 -35 LINE",
"234 -182 LINE",
"306 -182 LINE",
"304 -193 LINE SMOOTH",
"294 -245 OFFCURVE",
"270 -268 OFFCURVE",
"235 -268 CURVE",
"222 -346 LINE",
"336 -346 OFFCURVE",
"401 -266 OFFCURVE",
"418 -170 CURVE SMOOTH",
"425 -128 OFFCURVE",
"425 -82 OFFCURVE",
"416 -35 CURVE"
);
}
);
width = 757;
}
);
unicode = 0122;
userData = {
com.typesupply.AccentFactory.compileType = manual;
public.markColor = "0.5,0.09,0.79,1";
};
},
{
glyphname = H;
lastChange = "2017-08-09 06:16:28 +0000";
layers = (
{
layerId = "4C47FEBD-3B68-4176-B8ED-E26FA8D86AD9";
paths = (
{
closed = 1;
nodes = (
"85 0 LINE",
"105 0 LINE",
"105 704 LINE",
"85 704 LINE"
);
},
{
closed = 1;
nodes = (
"544 0 LINE",
"564 0 LINE",
"564 704 LINE",
"544 704 LINE"
);
},
{
closed = 1;
nodes = (
"95 353 LINE",
"556 353 LINE",
"556 371 LINE",
"95 371 LINE"
);
}
);
width = 649;
},
{
layerId = "1A40E216-9158-4F5D-A2E9-8F4663F027D5";
paths = (
{
closed = 1;
nodes = (
"50 0 LINE",
"272 0 LINE",
"272 708 LINE",
"50 708 LINE"
);
},
{
closed = 1;
nodes = (
"483 0 LINE",
"705 0 LINE",
"705 708 LINE",
"483 708 LINE"
);
},
{
closed = 1;
nodes = (
"252 276 LINE",
"505 276 LINE",
"505 453 LINE",
"252 453 LINE"
);
}
);
width = 755;
},
{
layerId = "F6847B4A-0A2E-406E-80B1-427EE12FE698";
paths = (
{
closed = 1;
nodes = (
"22.933 0 LINE",
"42.933 0 LINE",
"167.067 704 LINE",
"147.067 704 LINE"
);
},
{
closed = 1;
nodes = (
"481.933 0 LINE",
"501.933 0 LINE",
"626.067 704 LINE",
"606.067 704 LINE"
);
},
{
closed = 1;
nodes = (
"95.176 353 LINE",
"556.176 353 LINE",
"559.35 371 LINE",
"98.35 371 LINE"
);
}
);
width = 649;
},
{
layerId = "248E82CE-81F2-4042-A23E-56D22FBFDD32";
paths = (
{
closed = 1;
nodes = (
"-12 0 LINE",
"210 0 LINE",
"334 708 LINE",
"112 708 LINE"
);
},
{
closed = 1;
nodes = (
"421 0 LINE",
"643 0 LINE",
"767 708 LINE",
"545 708 LINE"
);
},
{
closed = 1;
nodes = (
"238 276 LINE",
"491 276 LINE",
"522 453 LINE",
"269 453 LINE"
);
}
);
width = 755;
}
);
unicode = 0048;
userData = {
com.typesupply.AccentFactory.yCoordinates = {
bottom = {
name = origin;
type = glyphMetric;
};
top = {
name = capHeight;
type = fontInfo;
};
};
};
},
{
glyphname = I;
lastChange = "2017-08-09 06:16:28 +0000";
layers = (
{
anchors = (
{
name = ogonek;
position = "{105, 2}";
},
{
name = top;
position = "{95, 683}";
}
);
layerId = "4C47FEBD-3B68-4176-B8ED-E26FA8D86AD9";
paths = (
{
closed = 1;
nodes = (
"85 0 LINE",
"105 0 LINE",
"105 704 LINE",
"85 704 LINE"
);
}
);
width = 190;
},
{
anchors = (
{
name = ogonek;
position = "{272, -1}";
},
{
name = top;
position = "{162, 711}";
}
);
layerId = "1A40E216-9158-4F5D-A2E9-8F4663F027D5";
paths = (
{
closed = 1;
nodes = (
"50 0 LINE",
"272 0 LINE",
"272 708 LINE",
"50 708 LINE"
);
}
);
width = 322;
},
{
anchors = (
{
name = ogonek;
position = "{43.286, 2}";
},
{
name = top;
position = "{153.364, 683}";
}
);
layerId = "F6847B4A-0A2E-406E-80B1-427EE12FE698";
paths = (
{
closed = 1;
nodes = (
"22.933 0 LINE",
"42.933 0 LINE",
"167.067 704 LINE",
"147.067 704 LINE"
);
}
);
width = 190;
},
{
anchors = (
{
name = ogonek;
position = "{209, -1}";
},
{
name = top;
position = "{225, 711}";
}
);
layerId = "248E82CE-81F2-4042-A23E-56D22FBFDD32";
paths = (
{
closed = 1;
nodes = (
"-12 0 LINE",
"210 0 LINE",
"334 708 LINE",
"112 708 LINE"
);
}
);
width = 322;
}
);
unicode = 0049;
userData = {
com.typemytype.robofont.guides = (
{
angle = 0;
isGlobal = 0;
magnetic = 5;
x = 83;
y = 684;
}
);
com.typesupply.AccentFactory.yCoordinates = {
bottom = {
name = origin;
type = glyphMetric;
};
top = {
name = capHeight;
type = fontInfo;
};
};
};
},
{
glyphname = J;
lastChange = "2017-08-09 06:16:28 +0000";
layers = (
{
layerId = "4C47FEBD-3B68-4176-B8ED-E26FA8D86AD9";
paths = (
{
closed = 1;
nodes = (
"326 143 LINE SMOOTH",
"326 85 OFFCURVE",
"298 11 OFFCURVE",
"193 11 CURVE SMOOTH",
"86 11 OFFCURVE",
"50 89 OFFCURVE",
"50 173 CURVE",
"30 173 LINE",
"30 63 OFFCURVE",
"88 -7 OFFCURVE",
"193 -7 CURVE SMOOTH",
"292 -7 OFFCURVE",
"346 60 OFFCURVE",
"346 143 CURVE SMOOTH",
"346 704 LINE",
"326 704 LINE"
);
}
);
width = 426;
},
{
layerId = "1A40E216-9158-4F5D-A2E9-8F4663F027D5";
paths = (
{
closed = 1;
nodes = (
"323 251 LINE SMOOTH",
"323 205 OFFCURVE",
"305 193 OFFCURVE",
"281 193 CURVE SMOOTH",
"252 193 OFFCURVE",
"229 209 OFFCURVE",
"229 271 CURVE",
"10 271 LINE",
"10 85 OFFCURVE",
"125 -7 OFFCURVE",
"291 -7 CURVE SMOOTH",
"447 -7 OFFCURVE",
"544 78 OFFCURVE",
"544 251 CURVE SMOOTH",
"544 708 LINE",
"323 708 LINE"
);
}
);
width = 590;
},
{
layerId = "F6847B4A-0A2E-406E-80B1-427EE12FE698";
paths = (
{
closed = 1;
nodes = (
"289.765 143 LINE SMOOTH",
"279.538 85 OFFCURVE",
"238.49 11 OFFCURVE",
"133.49 11 CURVE SMOOTH",
"26.49 11 OFFCURVE",
"4.243 89 OFFCURVE",
"19.055 173 CURVE",
"-0.945 173 LINE",
"-20.341 63 OFFCURVE",
"25.316 -7 OFFCURVE",
"130.316 -7 CURVE SMOOTH",
"229.316 -7 OFFCURVE",
"295.13 60 OFFCURVE",
"309.765 143 CURVE SMOOTH",
"408.684 704 LINE",
"388.684 704 LINE"
);
}
);
width = 426;
},
{
layerId = "248E82CE-81F2-4042-A23E-56D22FBFDD32";
paths = (
{
closed = 1;
nodes = (
"305 251 LINE SMOOTH",
"297 205 OFFCURVE",
"277 193 OFFCURVE",
"253 193 CURVE SMOOTH",
"224 193 OFFCURVE",
"204 209 OFFCURVE",
"215 271 CURVE",
"-4 271 LINE",
"-37 85 OFFCURVE",
"62 -7 OFFCURVE",
"228 -7 CURVE SMOOTH",
"384 -7 OFFCURVE",
"496 78 OFFCURVE",
"526 251 CURVE SMOOTH",
"607 708 LINE",
"386 708 LINE"
);
}
);
width = 590;
}
);
unicode = 004A;
userData = {
com.typesupply.AccentFactory.yCoordinates = {
bottom = {
name = origin;
type = glyphMetric;
};
top = {
name = capHeight;
type = fontInfo;
};
};
};
},
{
glyphname = K;
lastChange = "2017-08-09 06:16:28 +0000";
layers = (
{
anchors = (
{
name = bottom;
position = "{255, 0}";
},
{
name = top;
position = "{255, 683}";
}
);
layerId = "4C47FEBD-3B68-4176-B8ED-E26FA8D86AD9";
paths = (
{
closed = 1;
nodes = (
"85 0 LINE",
"105 0 LINE",
"105 704 LINE",
"85 704 LINE"
);
},
{
closed = 1;
nodes = (
"90 351 LINE",
"447 0 LINE",
"474 0 LINE",
"110 359 LINE",
"113 348 LINE",
"474 704 LINE",
"447 704 LINE"
);
}
);
width = 494;
},
{
anchors = (
{
name = bottom;
position = "{374, 0}";
},
{
name = top;
position = "{374, 711}";
}
);
layerId = "1A40E216-9158-4F5D-A2E9-8F4663F027D5";
paths = (
{
closed = 1;
nodes = (
"50 0 LINE",
"272 0 LINE",
"272 708 LINE",
"50 708 LINE"
);
},
{
closed = 1;
nodes = (
"237 359 LINE",
"478 0 LINE",
"745 0 LINE",
"475 375 LINE",
"456 329 LINE",
"745 708 LINE",
"480 708 LINE"
);
}
);
width = 755;
},
{
anchors = (
{
name = bottom;
position = "{192.933, 0}";
},
{
name = top;
position = "{313.364, 683}";
}
);
layerId = "F6847B4A-0A2E-406E-80B1-427EE12FE698";
paths = (
{
closed = 1;
nodes = (
"22.933 0 LINE",
"42.933 0 LINE",
"167.067 704 LINE",
"147.067 704 LINE"
);
},
{
closed = 1;
nodes = (
"89.824 351 LINE",
"384.933 0 LINE",
"411.933 0 LINE",
"111.234 359 LINE",
"112.295 348 LINE",
"536.067 704 LINE",
"509.067 704 LINE"
);
}
);
width = 494;
},
{
anchors = (
{
name = bottom;
position = "{312, 0}";
},
{
name = top;
position = "{437, 711}";
}
);
layerId = "248E82CE-81F2-4042-A23E-56D22FBFDD32";
paths = (
{
closed = 1;
nodes = (
"-12 0 LINE",
"210 0 LINE",
"334 708 LINE",
"112 708 LINE"
);
},
{
closed = 1;
nodes = (
"238 359 LINE",
"416 0 LINE",
"683 0 LINE",
"479 375 LINE",
"452 329 LINE",
"807 708 LINE",
"542 708 LINE"
);
}
);
width = 755;
}
);
unicode = 004B;
userData = {
com.typesupply.AccentFactory.yCoordinates = {
bottom = {
name = origin;
type = glyphMetric;
};
top = {
name = capHeight;
type = fontInfo;
};
};
};
},
{
color = 6;
glyphname = Kcommaaccent;
lastChange = "2017-08-09 06:16:17 +0000";
layers = (
{
components = (
{
name = K;
}
);
layerId = "4C47FEBD-3B68-4176-B8ED-E26FA8D86AD9";
paths = (
{
closed = 1;
nodes = (
"217 -59 LINE",
"217 -97 LINE",
"248 -97 LINE",
"248 -104 LINE SMOOTH",
"248 -137 OFFCURVE",
"237 -158 OFFCURVE",
"205 -158 CURVE",
"205 -176 LINE",
"241 -176 OFFCURVE",
"270 -161 OFFCURVE",
"270 -90 CURVE SMOOTH",
"270 -81 OFFCURVE",
"269 -68 OFFCURVE",
"268 -59 CURVE"
);
}
);
width = 494;
},
{
anchors = (
{
name = _bottom;
position = "{399, 0}";
}
);
components = (
{
name = K;
}
);
layerId = "1A40E216-9158-4F5D-A2E9-8F4663F027D5";
paths = (
{
closed = 1;
nodes = (
"319 -35 LINE",
"319 -182 LINE",
"391 -182 LINE",
"391 -193 LINE SMOOTH",
"391 -245 OFFCURVE",
"370 -268 OFFCURVE",
"336 -268 CURVE",
"336 -346 LINE",
"449 -346 OFFCURVE",
"500 -266 OFFCURVE",
"500 -170 CURVE SMOOTH",
"500 -128 OFFCURVE",
"493 -82 OFFCURVE",
"475 -35 CURVE"
);
}
);
width = 798;
},
{
components = (
{
name = K;
transform = "{1, 0, 0, 1, -7, 0}";
}
);
layerId = "F6847B4A-0A2E-406E-80B1-427EE12FE698";
paths = (
{
closed = 1;
nodes = (
"160.046 -59 LINE",
"153.346 -97 LINE",
"184.346 -97 LINE",
"183.112 -104 LINE SMOOTH",
"177.293 -137 OFFCURVE",
"162.59 -158 OFFCURVE",
"130.59 -158 CURVE",
"127.416 -176 LINE",
"163.416 -176 OFFCURVE",
"195.061 -161 OFFCURVE",
"207.58 -90 CURVE SMOOTH",
"209.167 -81 OFFCURVE",
"210.459 -68 OFFCURVE",
"211.046 -59 CURVE"
);
}
);
width = 494;
},
{
anchors = (
{
name = _bottom;
position = "{367, 0}";
}
);
components = (
{
name = K;
transform = "{1, 0, 0, 1, -2, 0}";
}
);
layerId = "248E82CE-81F2-4042-A23E-56D22FBFDD32";
paths = (
{
closed = 1;
nodes = (
"281 -35 LINE",
"255 -182 LINE",
"327 -182 LINE",
"325 -193 LINE SMOOTH",
"316 -245 OFFCURVE",
"291 -268 OFFCURVE",
"257 -268 CURVE",
"243 -346 LINE",
"356 -346 OFFCURVE",
"421 -266 OFFCURVE",
"438 -170 CURVE SMOOTH",
"446 -128 OFFCURVE",
"447 -82 OFFCURVE",
"437 -35 CURVE"
);
}
);
width = 748;
}
);
unicode = 0136;
userData = {
com.typesupply.AccentFactory.compileType = manual;
public.markColor = "0.5,0.09,0.79,1";
};
},
{
glyphname = L;
lastChange = "2017-08-09 06:16:28 +0000";
layers = (
{
anchors = (
{
name = bottom;
position = "{220, 0}";
},
{
name = commaaccent;
position = "{220, 10}";
},
{
name = top;
position = "{202, 683}";
},
{
name = topright;
position = "{375, 683}";
}
);
layerId = "4C47FEBD-3B68-4176-B8ED-E26FA8D86AD9";
paths = (
{
closed = 1;
nodes = (
"85 704 LINE",
"85 0 LINE",
"375 0 LINE",
"375 18 LINE",
"105 18 LINE",
"105 704 LINE"
);
}
);
width = 395;
},
{
anchors = (
{
name = bottom;
position = "{265, 0}";
},
{
name = commaaccent;
position = "{265, 10}";
},
{
name = top;
position = "{231, 711}";
},
{
name = topright;
position = "{466, 711}";
}
);
layerId = "1A40E216-9158-4F5D-A2E9-8F4663F027D5";
paths = (
{
closed = 1;
nodes = (
"50 708 LINE",
"50 0 LINE",
"486 0 LINE",
"486 168 LINE",
"272 168 LINE",
"272 708 LINE"
);
}
);
width = 506;
},
{
anchors = (
{
name = bottom;
position = "{157.933, 0}";
},
{
name = commaaccent;
position = "{159.696, 10}";
},
{
name = top;
position = "{260.364, 683}";
},
{
name = topright;
position = "{433.364, 683}";
}
);
layerId = "F6847B4A-0A2E-406E-80B1-427EE12FE698";
paths = (
{
closed = 1;
nodes = (
"147.067 704 LINE",
"22.933 0 LINE",
"312.933 0 LINE",
"316.107 18 LINE",
"46.107 18 LINE",
"167.067 704 LINE"
);
}
);
width = 395;
},
{
anchors = (
{
name = bottom;
position = "{203, 0}";
},
{
name = commaaccent;
position = "{204, 10}";
},
{
name = top;
position = "{294, 711}";
},
{
name = topright;
position = "{529, 711}";
}
);
layerId = "248E82CE-81F2-4042-A23E-56D22FBFDD32";
paths = (
{
closed = 1;
nodes = (
"112 708 LINE",
"-12 0 LINE",
"424 0 LINE",
"453 168 LINE",
"239 168 LINE",
"334 708 LINE"
);
}
);
width = 506;
}
);
unicode = 004C;
userData = {
com.typesupply.AccentFactory.yCoordinates = {
bottom = {
name = origin;
type = glyphMetric;
};
top = {
name = capHeight;
type = fontInfo;
};
};
};
},
{
color = 6;
glyphname = Lcommaaccent;
lastChange = "2017-08-09 06:16:17 +0000";
layers = (
{
components = (
{
name = L;
}
);
layerId = "4C47FEBD-3B68-4176-B8ED-E26FA8D86AD9";
paths = (
{
closed = 1;
nodes = (
"207 -59 LINE",
"207 -97 LINE",
"238 -97 LINE",
"238 -104 LINE SMOOTH",
"238 -137 OFFCURVE",
"227 -158 OFFCURVE",
"195 -158 CURVE",
"195 -176 LINE",
"231 -176 OFFCURVE",
"260 -161 OFFCURVE",
"260 -90 CURVE SMOOTH",
"260 -81 OFFCURVE",
"259 -68 OFFCURVE",
"258 -59 CURVE"
);
}
);
width = 395;
},
{
anchors = (
{
name = _commaaccent;
position = "{290, 10}";
}
);
components = (
{
name = L;
}
);
layerId = "1A40E216-9158-4F5D-A2E9-8F4663F027D5";
paths = (
{
closed = 1;
nodes = (
"210 -35 LINE",
"210 -182 LINE",
"282 -182 LINE",
"282 -193 LINE SMOOTH",
"282 -245 OFFCURVE",
"262 -268 OFFCURVE",
"227 -268 CURVE",
"227 -346 LINE",
"341 -346 OFFCURVE",
"392 -266 OFFCURVE",
"392 -170 CURVE SMOOTH",
"392 -128 OFFCURVE",
"384 -82 OFFCURVE",
"366 -35 CURVE"
);
}
);
width = 511;
},
{
components = (
{
name = L;
transform = "{1, 0, 0, 1, -7, 0}";
}
);
layerId = "F6847B4A-0A2E-406E-80B1-427EE12FE698";
paths = (
{
closed = 1;
nodes = (
"150.046 -59 LINE",
"143.346 -97 LINE",
"174.346 -97 LINE",
"173.112 -104 LINE SMOOTH",
"167.293 -137 OFFCURVE",
"152.59 -158 OFFCURVE",
"120.59 -158 CURVE",
"117.416 -176 LINE",
"153.416 -176 OFFCURVE",
"185.061 -161 OFFCURVE",
"197.58 -90 CURVE SMOOTH",
"199.167 -81 OFFCURVE",
"200.459 -68 OFFCURVE",
"201.046 -59 CURVE"
);
}
);
width = 395;
},
{
anchors = (
{
name = _commaaccent;
position = "{259, 10}";
}
);
components = (
{
name = L;
transform = "{1, 0, 0, 1, -2, 0}";
}
);
layerId = "248E82CE-81F2-4042-A23E-56D22FBFDD32";
paths = (
{
closed = 1;
nodes = (
"171 -35 LINE",
"146 -182 LINE",
"218 -182 LINE",
"216 -193 LINE SMOOTH",
"206 -245 OFFCURVE",
"182 -268 OFFCURVE",
"147 -268 CURVE",
"134 -346 LINE",
"248 -346 OFFCURVE",
"313 -266 OFFCURVE",
"330 -170 CURVE SMOOTH",
"337 -128 OFFCURVE",
"337 -82 OFFCURVE",
"327 -35 CURVE"
);
}
);
width = 511;
}
);
unicode = 013B;
userData = {
com.typesupply.AccentFactory.compileType = manual;
public.markColor = "0.5,0.09,0.79,1";
};
},
{
glyphname = Lcaron;
lastChange = "2017-08-09 06:16:28 +0000";
layers = (
{
components = (
{
name = L;
}
);
layerId = "4C47FEBD-3B68-4176-B8ED-E26FA8D86AD9";
paths = (
{
closed = 1;
nodes = (
"232 704 LINE",
"232 651 LINE",
"270 651 LINE",
"270 622 LINE SMOOTH",
"270 593 OFFCURVE",
"260 577 OFFCURVE",
"225 577 CURVE",
"225 557 LINE",
"265 557 OFFCURVE",
"292 572 OFFCURVE",
"292 635 CURVE SMOOTH",
"292 653 OFFCURVE",
"291 675 OFFCURVE",
"288 704 CURVE"
);
}
);
width = 395;
},
{
anchors = (
{
name = _bottom;
position = "{449, 743}";
}
);
components = (
{
name = L;
}
);
layerId = "1A40E216-9158-4F5D-A2E9-8F4663F027D5";
paths = (
{
closed = 1;
nodes = (
"369 708 LINE",
"369 562 LINE",
"441 562 LINE",
"441 550 LINE SMOOTH",
"441 499 OFFCURVE",
"420 476 OFFCURVE",
"386 476 CURVE",
"386 397 LINE",
"499 397 OFFCURVE",
"550 477 OFFCURVE",
"550 574 CURVE SMOOTH",
"550 616 OFFCURVE",
"543 662 OFFCURVE",
"525 708 CURVE"
);
}
);
width = 577;
},
{
components = (
{
name = L;
transform = "{1, 0, 0, 1, -2, 0}";
}
);
layerId = "F6847B4A-0A2E-406E-80B1-427EE12FE698";
paths = (
{
closed = 1;
nodes = (
"294.067 704 LINE",
"284.722 651 LINE",
"322.722 651 LINE",
"317.608 622 LINE SMOOTH",
"312.495 593 OFFCURVE",
"299.674 577 OFFCURVE",
"264.674 577 CURVE",
"261.147 557 LINE",
"301.147 557 OFFCURVE",
"330.792 572 OFFCURVE",
"341.901 635 CURVE SMOOTH",
"345.074 653 OFFCURVE",
"347.954 675 OFFCURVE",
"350.067 704 CURVE"
);
}
);
width = 395;
},
{
anchors = (
{
name = _bottom;
position = "{517, 743}";
}
);
components = (
{
name = L;
transform = "{1, 0, 0, 1, -3, 0}";
}
);
layerId = "248E82CE-81F2-4042-A23E-56D22FBFDD32";
paths = (
{
closed = 1;
nodes = (
"431 708 LINE",
"405 562 LINE",
"477 562 LINE",
"475 550 LINE SMOOTH",
"466 499 OFFCURVE",
"441 476 OFFCURVE",
"407 476 CURVE",
"393 397 LINE",
"506 397 OFFCURVE",
"571 477 OFFCURVE",
"588 574 CURVE SMOOTH",
"596 616 OFFCURVE",
"597 662 OFFCURVE",
"587 708 CURVE"
);
}
);
width = 577;
}
);
unicode = 013D;
userData = {
com.typesupply.AccentFactory.compileType = manual;
};
},
{
glyphname = M;
lastChange = "2017-08-09 06:16:28 +0000";
layers = (
{
layerId = "4C47FEBD-3B68-4176-B8ED-E26FA8D86AD9";
paths = (
{
closed = 1;
nodes = (
"85 0 LINE",
"105 0 LINE",
"105 639 LINE",
"100 644 LINE",
"389 0 LINE",
"409 0 LINE",
"696 644 LINE",
"692 639 LINE",
"692 0 LINE",
"712 0 LINE",
"712 684 LINE",
"692 684 LINE",
"394 15 LINE",
"405 15 LINE",
"105 684 LINE",
"85 684 LINE"
);
}
);
width = 797;
},
{
layerId = "1A40E216-9158-4F5D-A2E9-8F4663F027D5";
paths = (
{
closed = 1;
nodes = (
"50 0 LINE",
"272 0 LINE",
"272 579 LINE",
"207 564 LINE",
"381 0 LINE",
"571 0 LINE",
"745 564 LINE",
"680 579 LINE",
"680 0 LINE",
"901 0 LINE",
"901 708 LINE",
"630 708 LINE",
"427 139 LINE",
"524 159 LINE",
"322 708 LINE",
"50 708 LINE"
);
}
);
width = 951;
},
{
layerId = "F6847B4A-0A2E-406E-80B1-427EE12FE698";
paths = (
{
closed = 1;
nodes = (
"24.696 0 LINE",
"44.696 0 LINE",
"157.369 639 LINE",
"153.251 644 LINE",
"328.696 0 LINE",
"348.696 0 LINE",
"749.251 644 LINE",
"744.369 639 LINE",
"631.696 0 LINE",
"651.696 0 LINE",
"772.304 684 LINE",
"752.304 684 LINE",
"336.341 15 LINE",
"347.341 15 LINE",
"165.304 684 LINE",
"145.304 684 LINE"
);
}
);
width = 797;
},
{
layerId = "248E82CE-81F2-4042-A23E-56D22FBFDD32";
paths = (
{
closed = 1;
nodes = (
"-12 0 LINE",
"210 0 LINE",
"312 579 LINE",
"244 564 LINE",
"319 0 LINE",
"509 0 LINE",
"782 564 LINE",
"720 579 LINE",
"618 0 LINE",
"839 0 LINE",
"963 708 LINE",
"692 708 LINE",
"389 139 LINE",
"490 159 LINE",
"384 708 LINE",
"112 708 LINE"
);
}
);
width = 951;
}
);
unicode = 004D;
userData = {
com.typesupply.AccentFactory.yCoordinates = {
bottom = {
name = origin;
type = glyphMetric;
};
top = {
name = capHeight;
type = fontInfo;
};
};
};
},
{
glyphname = N;
lastChange = "2017-08-09 06:16:28 +0000";
layers = (
{
anchors = (
{
name = bottom;
position = "{324, 0}";
},
{
name = top;
position = "{324, 683}";
}
);
layerId = "4C47FEBD-3B68-4176-B8ED-E26FA8D86AD9";
paths = (
{
closed = 1;
nodes = (
"542 703 LINE",
"542 37 LINE",
"105 703 LINE",
"85 703 LINE",
"85 0 LINE",
"105 0 LINE",
"105 667 LINE",
"542 0 LINE",
"562 0 LINE",
"562 703 LINE"
);
}
);
width = 647;
},
{
anchors = (
{
name = bottom;
position = "{389, 0}";
},
{
name = top;
position = "{389, 711}";
}
);
layerId = "1A40E216-9158-4F5D-A2E9-8F4663F027D5";
paths = (
{
closed = 1;
nodes = (
"507 708 LINE",
"507 346 LINE",
"272 708 LINE",
"50 708 LINE",
"50 0 LINE",
"272 0 LINE",
"272 356 LINE",
"507 0 LINE",
"729 0 LINE",
"729 708 LINE"
);
}
);
width = 779;
},
{
anchors = (
{
name = bottom;
position = "{262.021, 0}";
},
{
name = top;
position = "{382.452, 683}";
}
);
layerId = "F6847B4A-0A2E-406E-80B1-427EE12FE698";
paths = (
{
closed = 1;
nodes = (
"603.979 703 LINE",
"486.545 37 LINE",
"166.979 703 LINE",
"146.979 703 LINE",
"23.021 0 LINE",
"43.021 0 LINE",
"160.631 667 LINE",
"480.021 0 LINE",
"500.021 0 LINE",
"623.979 703 LINE"
);
}
);
width = 647;
},
{
anchors = (
{
name = bottom;
position = "{327, 0}";
},
{
name = top;
position = "{452, 711}";
}
);
layerId = "248E82CE-81F2-4042-A23E-56D22FBFDD32";
paths = (
{
closed = 1;
nodes = (
"569 708 LINE",
"506 346 LINE",
"334 708 LINE",
"112 708 LINE",
"-12 0 LINE",
"210 0 LINE",
"272 356 LINE",
"445 0 LINE",
"667 0 LINE",
"791 708 LINE"
);
}
);
width = 779;
}
);
unicode = 004E;
userData = {
com.typesupply.AccentFactory.yCoordinates = {
bottom = {
name = origin;
type = glyphMetric;
};
top = {
name = capHeight;
type = fontInfo;
};
};
};
},
{
color = 6;
glyphname = Ncommaaccent;
lastChange = "2017-08-09 06:16:17 +0000";
layers = (
{
components = (
{
name = N;
}
);
layerId = "4C47FEBD-3B68-4176-B8ED-E26FA8D86AD9";
paths = (
{
closed = 1;
nodes = (
"297 -59 LINE",
"297 -97 LINE",
"328 -97 LINE",
"328 -104 LINE SMOOTH",
"328 -137 OFFCURVE",
"317 -158 OFFCURVE",
"285 -158 CURVE",
"285 -176 LINE",
"321 -176 OFFCURVE",
"350 -161 OFFCURVE",
"350 -90 CURVE SMOOTH",
"350 -81 OFFCURVE",
"349 -68 OFFCURVE",
"348 -59 CURVE"
);
}
);
width = 647;
},
{
anchors = (
{
name = _bottom;
position = "{414, 0}";
}
);
components = (
{
name = N;
}
);
layerId = "1A40E216-9158-4F5D-A2E9-8F4663F027D5";
paths = (
{
closed = 1;
nodes = (
"334 -35 LINE",
"334 -182 LINE",
"406 -182 LINE",
"406 -193 LINE SMOOTH",
"406 -245 OFFCURVE",
"386 -268 OFFCURVE",
"351 -268 CURVE",
"351 -346 LINE",
"465 -346 OFFCURVE",
"516 -266 OFFCURVE",
"516 -170 CURVE SMOOTH",
"516 -128 OFFCURVE",
"508 -82 OFFCURVE",
"490 -35 CURVE"
);
}
);
width = 829;
},
{
components = (
{
name = N;
transform = "{1, 0, 0, 1, -6, 0}";
}
);
layerId = "F6847B4A-0A2E-406E-80B1-427EE12FE698";
paths = (
{
closed = 1;
nodes = (
"240.135 -59 LINE",
"233.434 -97 LINE",
"264.434 -97 LINE",
"263.2 -104 LINE SMOOTH",
"257.381 -137 OFFCURVE",
"242.678 -158 OFFCURVE",
"210.678 -158 CURVE",
"207.504 -176 LINE",
"243.504 -176 OFFCURVE",
"275.149 -161 OFFCURVE",
"287.668 -90 CURVE SMOOTH",
"289.255 -81 OFFCURVE",
"290.548 -68 OFFCURVE",
"291.135 -59 CURVE"
);
}
);
width = 647;
},
{
anchors = (
{
name = _bottom;
position = "{374, 0}";
}
);
components = (
{
name = N;
}
);
layerId = "248E82CE-81F2-4042-A23E-56D22FBFDD32";
paths = (
{
closed = 1;
nodes = (
"288 -35 LINE",
"262 -182 LINE",
"334 -182 LINE",
"332 -193 LINE SMOOTH",
"323 -245 OFFCURVE",
"299 -268 OFFCURVE",
"264 -268 CURVE",
"250 -346 LINE",
"364 -346 OFFCURVE",
"429 -266 OFFCURVE",
"446 -170 CURVE SMOOTH",
"454 -128 OFFCURVE",
"454 -82 OFFCURVE",
"444 -35 CURVE"
);
}
);
width = 781;
}
);
unicode = 0145;
userData = {
com.typesupply.AccentFactory.compileType = manual;
public.markColor = "0.5,0.09,0.79,1";
};
},
{
glyphname = O;
lastChange = "2017-08-09 06:16:28 +0000";
layers = (
{
anchors = (
{
name = top;
position = "{407, 683}";
}
);
layerId = "4C47FEBD-3B68-4176-B8ED-E26FA8D86AD9";
paths = (
{
closed = 1;
nodes = (
"60 351 CURVE",
"60 140 OFFCURVE",
"200 -8 OFFCURVE",
"396 -8 CURVE",
"592 -8 OFFCURVE",
"732 140 OFFCURVE",
"732 351 CURVE",
"732 562 OFFCURVE",
"592 710 OFFCURVE",
"396 710 CURVE",
"200 710 OFFCURVE",
"60 562 OFFCURVE"
);
},
{
closed = 1;
nodes = (
"711 351 CURVE",
"711 139 OFFCURVE",
"571 10 OFFCURVE",
"396 10 CURVE",
"221 10 OFFCURVE",
"81 139 OFFCURVE",
"81 351 CURVE",
"81 563 OFFCURVE",
"221 692 OFFCURVE",
"396 692 CURVE",
"571 692 OFFCURVE",
"711 563 OFFCURVE"
);
}
);
width = 792;
},
{
anchors = (
{
name = top;
position = "{395, 711}";
}
);
layerId = "1A40E216-9158-4F5D-A2E9-8F4663F027D5";
paths = (
{
closed = 1;
nodes = (
"30 357 CURVE SMOOTH",
"30 144 OFFCURVE",
"194 -7 OFFCURVE",
"395 -7 CURVE SMOOTH",
"595 -7 OFFCURVE",
"758 144 OFFCURVE",
"758 357 CURVE SMOOTH",
"758 570 OFFCURVE",
"597 720 OFFCURVE",
"395 720 CURVE SMOOTH",
"194 720 OFFCURVE",
"30 570 OFFCURVE"
);
},
{
closed = 1;
nodes = (
"533 357 CURVE SMOOTH",
"533 263 OFFCURVE",
"484 200 OFFCURVE",
"395 200 CURVE SMOOTH",
"304 200 OFFCURVE",
"256 263 OFFCURVE",
"256 357 CURVE SMOOTH",
"256 453 OFFCURVE",
"304 515 OFFCURVE",
"395 515 CURVE SMOOTH",
"484 515 OFFCURVE",
"533 453 OFFCURVE"
);
}
);
width = 788;
},
{
anchors = (
{
name = top;
position = "{465.541, 683}";
}
);
layerId = "F6847B4A-0A2E-406E-80B1-427EE12FE698";
paths = (
{
closed = 1;
nodes = (
"60 351 CURVE",
"22.795 140 OFFCURVE",
"136.699 -8 OFFCURVE",
"332.699 -8 CURVE",
"528.699 -8 OFFCURVE",
"694.795 140 OFFCURVE",
"732 351 CURVE",
"769.205 562 OFFCURVE",
"655.301 710 OFFCURVE",
"459.301 710 CURVE",
"263.301 710 OFFCURVE",
"97.205 562 OFFCURVE"
);
},
{
closed = 1;
nodes = (
"711 351 CURVE",
"673.619 139 OFFCURVE",
"510.872 10 OFFCURVE",
"335.872 10 CURVE",
"160.872 10 OFFCURVE",
"43.619 139 OFFCURVE",
"81 351 CURVE",
"118.381 563 OFFCURVE",
"281.128 692 OFFCURVE",
"456.128 692 CURVE",
"631.128 692 OFFCURVE",
"748.381 563 OFFCURVE"
);
}
);
width = 792;
},
{
anchors = (
{
name = top;
position = "{450, 711}";
}
);
layerId = "248E82CE-81F2-4042-A23E-56D22FBFDD32";
paths = (
{
closed = 1;
nodes = (
"32 397 CURVE SMOOTH",
"-10 161 OFFCURVE",
"108 -7 OFFCURVE",
"353 -7 CURVE SMOOTH",
"562 -7 OFFCURVE",
"707 127 OFFCURVE",
"740 317 CURVE SMOOTH",
"782 553 OFFCURVE",
"657 720 OFFCURVE",
"421 720 CURVE SMOOTH",
"211 720 OFFCURVE",
"66 587 OFFCURVE"
);
},
{
closed = 1;
nodes = (
"525 347 CURVE SMOOTH",
"510 259 OFFCURVE",
"453 200 OFFCURVE",
"369 200 CURVE SMOOTH",
"270 200 OFFCURVE",
"231 267 OFFCURVE",
"248 367 CURVE SMOOTH",
"264 457 OFFCURVE",
"320 515 OFFCURVE",
"405 515 CURVE SMOOTH",
"502 515 OFFCURVE",
"543 449 OFFCURVE"
);
}
);
width = 772;
}
);
unicode = 004F;
userData = {
com.typemytype.robofont.layerData = {
b = {
anchors = (
{
name = top;
x = 407;
y = 683;
}
);
components = (
);
contours = (
{
points = (
{
segmentType = curve;
smooth = 1;
x = 60;
y = 341;
},
{
smooth = 0;
x = 60;
y = 138;
},
{
smooth = 0;
x = 214;
y = -7;
},
{
segmentType = curve;
smooth = 1;
x = 407;
y = -7;
},
{
smooth = 0;
x = 601;
y = -7;
},
{
smooth = 0;
x = 754;
y = 138;
},
{
segmentType = curve;
smooth = 1;
x = 754;
y = 341;
},
{
smooth = 0;
x = 754;
y = 546;
},
{
smooth = 0;
x = 601;
y = 690;
},
{
segmentType = curve;
smooth = 1;
x = 407;
y = 690;
},
{
smooth = 0;
x = 214;
y = 690;
},
{
smooth = 0;
x = 60;
y = 546;
}
);
},
{
points = (
{
segmentType = curve;
smooth = 1;
x = 733;
y = 341;
},
{
smooth = 0;
x = 733;
y = 137;
},
{
smooth = 0;
x = 588;
y = 4;
},
{
segmentType = curve;
smooth = 1;
x = 407;
y = 4;
},
{
smooth = 0;
x = 226;
y = 4;
},
{
smooth = 0;
x = 80;
y = 137;
},
{
segmentType = curve;
smooth = 1;
x = 80;
y = 341;
},
{
smooth = 0;
x = 80;
y = 547;
},
{
smooth = 0;
x = 226;
y = 677;
},
{
segmentType = curve;
smooth = 1;
x = 407;
y = 677;
},
{
smooth = 0;
x = 588;
y = 677;
},
{
smooth = 0;
x = 733;
y = 547;
}
);
}
);
lib = {
};
name = O;
unicodes = (
);
width = 792;
};
};
com.typesupply.AccentFactory.yCoordinates = {
bottom = {
name = origin;
type = glyphMetric;
};
top = {
name = capHeight;
type = fontInfo;
};
};
};
},
{
glyphname = P;
lastChange = "2017-08-09 06:16:28 +0000";
layers = (
{
layerId = "4C47FEBD-3B68-4176-B8ED-E26FA8D86AD9";
paths = (
{
closed = 1;
nodes = (
"105 338 LINE",
"105 684 LINE",
"263 684 LINE SMOOTH",
"414 684 OFFCURVE",
"468 619 OFFCURVE",
"468 510 CURVE SMOOTH",
"468 406 OFFCURVE",
"414 338 OFFCURVE",
"263 338 CURVE SMOOTH"
);
},
{
closed = 1;
nodes = (
"488 510 CURVE SMOOTH",
"488 627 OFFCURVE",
"423 704 OFFCURVE",
"263 704 CURVE SMOOTH",
"85 704 LINE",
"85 0 LINE",
"105 0 LINE",
"105 317 LINE",
"263 317 LINE SMOOTH",
"409 317 OFFCURVE",
"488 380 OFFCURVE"
);
}
);
width = 528;
},
{
layerId = "1A40E216-9158-4F5D-A2E9-8F4663F027D5";
paths = (
{
closed = 1;
nodes = (
"272 400 LINE",
"272 530 LINE",
"335 530 LINE SMOOTH",
"385 530 OFFCURVE",
"404 504 OFFCURVE",
"404 465 CURVE",
"404 426 OFFCURVE",
"385 400 OFFCURVE",
"335 400 CURVE"
);
},
{
closed = 1;
nodes = (
"629 465 CURVE",
"629 607.88 OFFCURVE",
"538 708 OFFCURVE",
"360 708 CURVE SMOOTH",
"50 708 LINE",
"50 0 LINE",
"272 0 LINE",
"272 225 LINE",
"360 225 LINE SMOOTH",
"538 225 OFFCURVE",
"629 334 OFFCURVE"
);
}
);
width = 649;
},
{
layerId = "F6847B4A-0A2E-406E-80B1-427EE12FE698";
paths = (
{
closed = 1;
nodes = (
"102.531 338 LINE",
"163.541 684 LINE",
"321.541 684 LINE SMOOTH",
"472.541 684 OFFCURVE",
"515.079 619 OFFCURVE",
"495.86 510 CURVE SMOOTH",
"477.522 406 OFFCURVE",
"411.531 338 OFFCURVE",
"260.531 338 CURVE SMOOTH"
);
},
{
closed = 1;
nodes = (
"515.86 510 CURVE SMOOTH",
"536.49 627 OFFCURVE",
"485.067 704 OFFCURVE",
"325.067 704 CURVE SMOOTH",
"147.067 704 LINE",
"22.933 0 LINE",
"42.933 0 LINE",
"98.829 317 LINE",
"256.829 317 LINE SMOOTH",
"402.829 317 OFFCURVE",
"492.937 380 OFFCURVE"
);
}
);
width = 528;
},
{
layerId = "248E82CE-81F2-4042-A23E-56D22FBFDD32";
paths = (
{
closed = 1;
nodes = (
"280 400 LINE",
"303 530 LINE",
"366 530 LINE SMOOTH",
"416 530 OFFCURVE",
"430 504 OFFCURVE",
"424 465 CURVE",
"417 426 OFFCURVE",
"393 400 OFFCURVE",
"343 400 CURVE"
);
},
{
closed = 1;
nodes = (
"649 465 CURVE",
"674 608 OFFCURVE",
"600 708 OFFCURVE",
"422 708 CURVE SMOOTH",
"112 708 LINE",
"-12 0 LINE",
"210 0 LINE",
"249 225 LINE",
"337 225 LINE SMOOTH",
"515 225 OFFCURVE",
"625 334 OFFCURVE"
);
}
);
width = 649;
}
);
unicode = 0050;
userData = {
com.typesupply.AccentFactory.yCoordinates = {
bottom = {
name = origin;
type = glyphMetric;
};
top = {
name = capHeight;
type = fontInfo;
};
};
};
},
{
glyphname = Q;
lastChange = "2017-08-09 06:16:28 +0000";
layers = (
{
components = (
{
name = O;
}
);
layerId = "4C47FEBD-3B68-4176-B8ED-E26FA8D86AD9";
paths = (
{
closed = 1;
nodes = (
"500 14 LINE",
"708 -149 LINE",
"743 -149 LINE",
"515 30 LINE"
);
}
);
width = 792;
},
{
components = (
{
name = O;
}
);
layerId = "1A40E216-9158-4F5D-A2E9-8F4663F027D5";
paths = (
{
closed = 1;
nodes = (
"387 98 LINE",
"516 -115 LINE",
"778 -115 LINE",
"598 127 LINE"
);
}
);
width = 788;
},
{
components = (
{
name = O;
transform = "{1, 0, 0, 1, 1, 0}";
}
);
layerId = "F6847B4A-0A2E-406E-80B1-427EE12FE698";
paths = (
{
closed = 1;
nodes = (
"453.009 14 LINE",
"632.268 -149 LINE",
"667.268 -149 LINE",
"470.83 30 LINE"
);
}
);
width = 792;
},
{
components = (
{
name = O;
}
);
layerId = "248E82CE-81F2-4042-A23E-56D22FBFDD32";
paths = (
{
closed = 1;
nodes = (
"314 98 LINE",
"405 -115 LINE",
"667 -115 LINE",
"530 127 LINE"
);
}
);
width = 772.03719;
}
);
unicode = 0051;
userData = {
com.typesupply.AccentFactory.yCoordinates = {
bottom = {
name = origin;
type = glyphMetric;
};
top = {
name = capHeight;
type = fontInfo;
};
};
};
},
{
glyphname = R;
lastChange = "2017-08-09 06:16:28 +0000";
layers = (
{
anchors = (
{
name = bottom;
position = "{296, 0}";
},
{
name = top;
position = "{296, 683}";
}
);
layerId = "4C47FEBD-3B68-4176-B8ED-E26FA8D86AD9";
paths = (
{
closed = 1;
nodes = (
"468 505 CURVE SMOOTH",
"468 401 OFFCURVE",
"414 328 OFFCURVE",
"263 328 CURVE SMOOTH",
"105 328 LINE",
"105 684 LINE",
"263 684 LINE SMOOTH",
"414 684 OFFCURVE",
"468 614 OFFCURVE"
);
},
{
closed = 1;
nodes = (
"85 704 LINE",
"85 0 LINE",
"105 0 LINE",
"105 307 LINE",
"263 307 LINE SMOOTH",
"409 307 OFFCURVE",
"488 375 OFFCURVE",
"488 505 CURVE SMOOTH",
"488 622 OFFCURVE",
"423 704 OFFCURVE",
"263 704 CURVE SMOOTH"
);
},
{
closed = 1;
nodes = (
"249 315 LINE",
"470 0 LINE",
"495 0 LINE",
"273 315 LINE"
);
}
);
width = 535;
},
{
anchors = (
{
name = bottom;
position = "{325, 0}";
},
{
name = top;
position = "{325, 711}";
}
);
layerId = "1A40E216-9158-4F5D-A2E9-8F4663F027D5";
paths = (
{
closed = 1;
nodes = (
"424 462 CURVE SMOOTH",
"424 420 OFFCURVE",
"402 402 OFFCURVE",
"360 402 CURVE SMOOTH",
"272 402 LINE",
"272 522 LINE",
"360 522 LINE SMOOTH",
"402 522 OFFCURVE",
"424 498 OFFCURVE"
);
},
{
closed = 1;
nodes = (
"50 708 LINE",
"50 0 LINE",
"272 0 LINE",
"272 254 LINE",
"380 254 LINE",
"558 254 OFFCURVE",
"649 352 OFFCURVE",
"649 476 CURVE",
"649 605.586 OFFCURVE",
"558 708 OFFCURVE",
"380 708 CURVE SMOOTH"
);
},
{
closed = 1;
nodes = (
"245 305 LINE",
"406 0 LINE",
"650 0 LINE",
"476 305 LINE"
);
}
);
width = 670;
},
{
anchors = (
{
name = bottom;
position = "{233.933, 0}";
},
{
name = top;
position = "{354.364, 683}";
}
);
layerId = "F6847B4A-0A2E-406E-80B1-427EE12FE698";
paths = (
{
closed = 1;
nodes = (
"494.978 505 CURVE SMOOTH",
"476.64 401 OFFCURVE",
"409.768 328 OFFCURVE",
"258.768 328 CURVE SMOOTH",
"100.768 328 LINE",
"163.541 684 LINE",
"321.541 684 LINE SMOOTH",
"472.541 684 OFFCURVE",
"514.198 614 OFFCURVE"
);
},
{
closed = 1;
nodes = (
"147.067 704 LINE",
"22.933 0 LINE",
"42.933 0 LINE",
"97.065 307 LINE",
"255.065 307 LINE SMOOTH",
"401.065 307 OFFCURVE",
"492.056 375 OFFCURVE",
"514.978 505 CURVE SMOOTH",
"535.608 622 OFFCURVE",
"485.067 704 OFFCURVE",
"325.067 704 CURVE SMOOTH"
);
},
{
closed = 1;
nodes = (
"242.476 315 LINE",
"407.933 0 LINE",
"432.933 0 LINE",
"266.476 315 LINE"
);
}
);
width = 535;
},
{
anchors = (
{
name = bottom;
position = "{263, 0}";
},
{
name = top;
position = "{388, 711}";
}
);
layerId = "248E82CE-81F2-4042-A23E-56D22FBFDD32";
paths = (
{
closed = 1;
nodes = (
"443 462 CURVE SMOOTH",
"436 420 OFFCURVE",
"410 402 OFFCURVE",
"368 402 CURVE SMOOTH",
"280 402 LINE",
"302 522 LINE",
"390 522 LINE SMOOTH",
"432 522 OFFCURVE",
"449 498 OFFCURVE"
);
},
{
closed = 1;
nodes = (
"112 708 LINE",
"-12 0 LINE",
"210 0 LINE",
"254 254 LINE",
"362 254 LINE",
"540 254 OFFCURVE",
"649 352 OFFCURVE",
"671 476 CURVE",
"693 606 OFFCURVE",
"620 708 OFFCURVE",
"442 708 CURVE SMOOTH"
);
},
{
closed = 1;
nodes = (
"236 305 LINE",
"344 0 LINE",
"588 0 LINE",
"467 305 LINE"
);
}
);
width = 670;
}
);
unicode = 0052;
userData = {
com.typesupply.AccentFactory.yCoordinates = {
bottom = {
name = origin;
type = glyphMetric;
};
top = {
name = capHeight;
type = fontInfo;
};
};
};
},
{
color = 6;
glyphname = Rcommaaccent;
lastChange = "2017-08-09 06:16:17 +0000";
layers = (
{
components = (
{
name = R;
}
);
layerId = "4C47FEBD-3B68-4176-B8ED-E26FA8D86AD9";
paths = (
{
closed = 1;
nodes = (
"237 -59 LINE",
"237 -97 LINE",
"268 -97 LINE",
"268 -104 LINE SMOOTH",
"268 -137 OFFCURVE",
"257 -158 OFFCURVE",
"225 -158 CURVE",
"225 -176 LINE",
"261 -176 OFFCURVE",
"290 -161 OFFCURVE",
"290 -90 CURVE SMOOTH",
"290 -81 OFFCURVE",
"289 -68 OFFCURVE",
"288 -59 CURVE"
);
}
);
width = 535;
},
{
anchors = (
{
name = _bottom;
position = "{350, 0}";
}
);
components = (
{
name = R;
}
);
layerId = "1A40E216-9158-4F5D-A2E9-8F4663F027D5";
paths = (
{
closed = 1;
nodes = (
"270 -35 LINE",
"270 -182 LINE",
"342 -182 LINE",
"342 -193 LINE SMOOTH",
"342 -245 OFFCURVE",
"322 -268 OFFCURVE",
"287 -268 CURVE",
"287 -346 LINE",
"401 -346 OFFCURVE",
"452 -266 OFFCURVE",
"452 -170 CURVE SMOOTH",
"452 -128 OFFCURVE",
"444 -82 OFFCURVE",
"426 -35 CURVE"
);
}
);
width = 701;
},
{
components = (
{
name = R;
transform = "{1, 0, 0, 1, -7, 0}";
}
);
layerId = "F6847B4A-0A2E-406E-80B1-427EE12FE698";
paths = (
{
closed = 1;
nodes = (
"180.046 -59 LINE",
"173.346 -97 LINE",
"204.346 -97 LINE",
"203.112 -104 LINE SMOOTH",
"197.293 -137 OFFCURVE",
"182.59 -158 OFFCURVE",
"150.59 -158 CURVE",
"147.416 -176 LINE",
"183.416 -176 OFFCURVE",
"215.061 -161 OFFCURVE",
"227.58 -90 CURVE SMOOTH",
"229.167 -81 OFFCURVE",
"230.459 -68 OFFCURVE",
"231.046 -59 CURVE"
);
}
);
width = 535;
},
{
anchors = (
{
name = _bottom;
position = "{318, 0}";
}
);
components = (
{
name = R;
transform = "{1, 0, 0, 1, -32, 0}";
}
);
layerId = "248E82CE-81F2-4042-A23E-56D22FBFDD32";
paths = (
{
closed = 1;
nodes = (
"232 -35 LINE",
"206 -182 LINE",
"278 -182 LINE",
"276 -193 LINE SMOOTH",
"267 -245 OFFCURVE",
"243 -268 OFFCURVE",
"208 -268 CURVE",
"194 -346 LINE",
"308 -346 OFFCURVE",
"373 -266 OFFCURVE",
"390 -170 CURVE SMOOTH",
"398 -128 OFFCURVE",
"398 -82 OFFCURVE",
"388 -35 CURVE"
);
}
);
width = 701;
}
);
unicode = 0156;
userData = {
com.typesupply.AccentFactory.compileType = manual;
public.markColor = "0.5,0.09,0.79,1";
};
},
{
glyphname = S;
lastChange = "2017-08-09 06:16:28 +0000";
layers = (
{
anchors = (
{
name = bottom;
position = "{267, 0}";
},
{
name = top;
position = "{267, 683}";
}
);
layerId = "4C47FEBD-3B68-4176-B8ED-E26FA8D86AD9";
paths = (
{
closed = 1;
nodes = (
"80 543 CURVE SMOOTH",
"80 640 OFFCURVE",
"149 693 OFFCURVE",
"250 693 CURVE",
"375 693 OFFCURVE",
"427 609 OFFCURVE",
"439 559 CURVE",
"459 559 LINE",
"444 627 OFFCURVE",
"382 711 OFFCURVE",
"250 711 CURVE",
"123 711 OFFCURVE",
"60 635 OFFCURVE",
"60 543 CURVE SMOOTH",
"60 282 OFFCURVE",
"456 421 OFFCURVE",
"456 169 CURVE SMOOTH",
"456 84 OFFCURVE",
"401 11 OFFCURVE",
"285 11 CURVE SMOOTH",
"147 11 OFFCURVE",
"91 111 OFFCURVE",
"83 169 CURVE",
"63 169 LINE",
"73 80 OFFCURVE",
"154 -7 OFFCURVE",
"285 -7 CURVE SMOOTH",
"425 -7 OFFCURVE",
"476 88 OFFCURVE",
"476 169 CURVE SMOOTH",
"476 441 OFFCURVE",
"80 300 OFFCURVE"
);
}
);
width = 536;
},
{
anchors = (
{
name = bottom;
position = "{313, 0}";
},
{
name = top;
position = "{313, 711}";
}
);
layerId = "1A40E216-9158-4F5D-A2E9-8F4663F027D5";
paths = (
{
closed = 1;
nodes = (
"268 513 CURVE SMOOTH",
"268 537 OFFCURVE",
"282 547 OFFCURVE",
"300 547 CURVE SMOOTH",
"321 547 OFFCURVE",
"342 536 OFFCURVE",
"346 491 CURVE",
"585 491 LINE",
"575 641 OFFCURVE",
"469 720 OFFCURVE",
"301 720 CURVE SMOOTH",
"150 720 OFFCURVE",
"30 646 OFFCURVE",
"30 504 CURVE",
"30 253 OFFCURVE",
"360 297 OFFCURVE",
"360 201 CURVE SMOOTH",
"360 177 OFFCURVE",
"344 166 OFFCURVE",
"322 166 CURVE SMOOTH",
"300 166 OFFCURVE",
"272 175 OFFCURVE",
"268 227 CURVE",
"32 227 LINE",
"42 68 OFFCURVE",
"169 -7 OFFCURVE",
"331 -7 CURVE SMOOTH",
"502 -7 OFFCURVE",
"597 89 OFFCURVE",
"597 209 CURVE SMOOTH",
"597 457 OFFCURVE",
"268 422 OFFCURVE"
);
}
);
width = 625;
},
{
anchors = (
{
name = bottom;
position = "{204.933, 0}";
},
{
name = top;
position = "{325.364, 683}";
}
);
layerId = "F6847B4A-0A2E-406E-80B1-427EE12FE698";
paths = (
{
closed = 1;
nodes = (
"114 563 CURVE SMOOTH",
"128.87 647.576 OFFCURVE",
"204 693 OFFCURVE",
"300 693 CURVE",
"433 693 OFFCURVE",
"472 609 OFFCURVE",
"475.5 559 CURVE",
"495.5 559 LINE",
"492 627 OFFCURVE",
"435 711 OFFCURVE",
"303 711 CURVE",
"182 711 OFFCURVE",
"108.061 644.553 OFFCURVE",
"94 563 CURVE SMOOTH",
"43.794 281.233 OFFCURVE",
"471.135 435.662 OFFCURVE",
"424 159 CURVE SMOOTH",
"410 79 OFFCURVE",
"345.171 11 OFFCURVE",
"235 11 CURVE SMOOTH",
"89.081 11 OFFCURVE",
"48.505 110.995 OFFCURVE",
"50.732 169 CURVE",
"30.732 169 LINE",
"27 86 OFFCURVE",
"94.151 -7 OFFCURVE",
"232 -7 CURVE SMOOTH",
"365.694 -7 OFFCURVE",
"431 82 OFFCURVE",
"444 159 CURVE SMOOTH",
"495.232 454.098 OFFCURVE",
"67.891 298.643 OFFCURVE"
);
}
);
width = 536;
},
{
anchors = (
{
name = bottom;
position = "{248, 0}";
},
{
name = top;
position = "{374, 711}";
}
);
layerId = "248E82CE-81F2-4042-A23E-56D22FBFDD32";
paths = (
{
closed = 1;
nodes = (
"294 513 CURVE SMOOTH",
"298 537 OFFCURVE",
"314 547 OFFCURVE",
"332 547 CURVE SMOOTH",
"353 547 OFFCURVE",
"372 536 OFFCURVE",
"368 491 CURVE",
"607 491 LINE",
"603 631 OFFCURVE",
"522 720 OFFCURVE",
"333 720 CURVE SMOOTH",
"197 720 OFFCURVE",
"75 660 OFFCURVE",
"54 544 CURVE",
"5 271 OFFCURVE",
"350 309 OFFCURVE",
"331 201 CURVE SMOOTH",
"327 177 OFFCURVE",
"309 166 OFFCURVE",
"287 166 CURVE SMOOTH",
"265 166 OFFCURVE",
"238 175 OFFCURVE",
"243 227 CURVE",
"7 227 LINE",
"9 78 OFFCURVE",
"111 -7 OFFCURVE",
"285 -7 CURVE SMOOTH",
"445 -7 OFFCURVE",
"551 75 OFFCURVE",
"569 179 CURVE SMOOTH",
"618 451 OFFCURVE",
"276 413 OFFCURVE"
);
}
);
width = 621;
}
);
unicode = 0053;
userData = {
com.typesupply.AccentFactory.yCoordinates = {
bottom = {
name = origin;
type = glyphMetric;
};
top = {
name = capHeight;
type = fontInfo;
};
};
};
},
{
color = 6;
glyphname = Scommaaccent;
lastChange = "2017-08-09 06:16:17 +0000";
layers = (
{
components = (
{
name = S;
}
);
layerId = "4C47FEBD-3B68-4176-B8ED-E26FA8D86AD9";
paths = (
{
closed = 1;
nodes = (
"267 -59 LINE",
"267 -97 LINE",
"298 -97 LINE",
"298 -104 LINE SMOOTH",
"298 -137 OFFCURVE",
"287 -158 OFFCURVE",
"255 -158 CURVE",
"255 -176 LINE",
"291 -176 OFFCURVE",
"320 -161 OFFCURVE",
"320 -90 CURVE SMOOTH",
"320 -81 OFFCURVE",
"319 -68 OFFCURVE",
"318 -59 CURVE"
);
}
);
width = 536;
},
{
anchors = (
{
name = _bottom;
position = "{343, 0}";
}
);
components = (
{
name = S;
}
);
layerId = "1A40E216-9158-4F5D-A2E9-8F4663F027D5";
paths = (
{
closed = 1;
nodes = (
"263 -35 LINE",
"263 -182 LINE",
"335 -182 LINE",
"335 -193 LINE SMOOTH",
"335 -245 OFFCURVE",
"315 -268 OFFCURVE",
"280 -268 CURVE",
"280 -346 LINE",
"394 -346 OFFCURVE",
"445 -266 OFFCURVE",
"445 -170 CURVE SMOOTH",
"445 -128 OFFCURVE",
"437 -82 OFFCURVE",
"419 -35 CURVE"
);
}
);
width = 685;
},
{
components = (
{
name = S;
transform = "{1, 0, 0, 1, -7, 0}";
}
);
layerId = "F6847B4A-0A2E-406E-80B1-427EE12FE698";
paths = (
{
closed = 1;
nodes = (
"209.429 -59 LINE",
"202.729 -97 LINE",
"233.729 -97 LINE",
"232.495 -104 LINE SMOOTH",
"226.676 -137 OFFCURVE",
"211.973 -158 OFFCURVE",
"179.973 -158 CURVE",
"176.799 -176 LINE",
"212.799 -176 OFFCURVE",
"244.444 -161 OFFCURVE",
"256.963 -90 CURVE SMOOTH",
"258.55 -81 OFFCURVE",
"259.842 -68 OFFCURVE",
"260.429 -59 CURVE"
);
}
);
width = 536;
},
{
anchors = (
{
name = _bottom;
position = "{308, 0}";
}
);
components = (
{
name = S;
transform = "{1, 0, 0, 1, 5, 0}";
}
);
layerId = "248E82CE-81F2-4042-A23E-56D22FBFDD32";
paths = (
{
closed = 1;
nodes = (
"222 -35 LINE",
"196 -182 LINE",
"268 -182 LINE",
"266 -193 LINE SMOOTH",
"257 -245 OFFCURVE",
"233 -268 OFFCURVE",
"198 -268 CURVE",
"184 -346 LINE",
"298 -346 OFFCURVE",
"363 -266 OFFCURVE",
"380 -170 CURVE SMOOTH",
"388 -128 OFFCURVE",
"388 -82 OFFCURVE",
"378 -35 CURVE"
);
}
);
width = 626;
}
);
unicode = 0218;
userData = {
com.typesupply.AccentFactory.compileType = manual;
public.markColor = "0.5,0.09,0.79,1";
};
},
{
glyphname = T;
lastChange = "2017-08-09 06:16:28 +0000";
layers = (
{
anchors = (
{
name = bottom;
position = "{236, 0}";
},
{
name = top;
position = "{236, 683}";
}
);
layerId = "4C47FEBD-3B68-4176-B8ED-E26FA8D86AD9";
paths = (
{
closed = 1;
nodes = (
"20 686 LINE",
"225 686 LINE",
"225 0 LINE",
"245 0 LINE",
"245 686 LINE",
"450 686 LINE",
"450 704 LINE",
"20 704 LINE"
);
}
);
width = 470;
},
{
anchors = (
{
name = bottom;
position = "{308, 0}";
},
{
name = top;
position = "{308, 711}";
}
);
layerId = "1A40E216-9158-4F5D-A2E9-8F4663F027D5";
paths = (
{
closed = 1;
nodes = (
"10 532 LINE",
"196 532 LINE",
"196 0 LINE",
"418 0 LINE",
"418 532 LINE",
"606 532 LINE",
"606 708 LINE",
"10 708 LINE"
);
}
);
width = 616;
},
{
anchors = (
{
name = bottom;
position = "{173.933, 0}";
},
{
name = top;
position = "{294.364, 683}";
}
);
layerId = "F6847B4A-0A2E-406E-80B1-427EE12FE698";
paths = (
{
closed = 1;
nodes = (
"78.893 686 LINE",
"283.893 686 LINE",
"162.933 0 LINE",
"182.933 0 LINE",
"303.893 686 LINE",
"508.893 686 LINE",
"512.067 704 LINE",
"82.067 704 LINE"
);
}
);
width = 470;
},
{
anchors = (
{
name = bottom;
position = "{246, 0}";
},
{
name = top;
position = "{371, 711}";
}
);
layerId = "248E82CE-81F2-4042-A23E-56D22FBFDD32";
paths = (
{
closed = 1;
nodes = (
"41 532 LINE",
"227 532 LINE",
"134 0 LINE",
"356 0 LINE",
"449 532 LINE",
"637 532 LINE",
"668 708 LINE",
"72 708 LINE"
);
}
);
width = 616;
}
);
unicode = 0054;
userData = {
com.typesupply.AccentFactory.yCoordinates = {
bottom = {
name = origin;
type = glyphMetric;
};
top = {
name = capHeight;
type = fontInfo;
};
};
};
},
{
color = 6;
glyphname = Tcedilla;
lastChange = "2017-08-09 06:16:17 +0000";
layers = (
{
layerId = "4C47FEBD-3B68-4176-B8ED-E26FA8D86AD9";
paths = (
{
closed = 1;
nodes = (
"20 686 LINE",
"225 686 LINE",
"225 -18 LINE",
"262 -18 LINE SMOOTH",
"329 -18 OFFCURVE",
"351 -46 OFFCURVE",
"351 -79 CURVE SMOOTH",
"351 -118 OFFCURVE",
"329 -145 OFFCURVE",
"262 -145 CURVE SMOOTH",
"202 -145 LINE",
"202 -165 LINE",
"265 -165 LINE SMOOTH",
"335 -165 OFFCURVE",
"371 -129 OFFCURVE",
"371 -79 CURVE SMOOTH",
"371 -28 OFFCURVE",
"333 5 OFFCURVE",
"235 -1 CURVE",
"245 -10 LINE",
"245 686 LINE",
"450 686 LINE",
"450 704 LINE",
"20 704 LINE"
);
}
);
width = 470;
},
{
layerId = "1A40E216-9158-4F5D-A2E9-8F4663F027D5";
paths = (
{
closed = 1;
nodes = (
"10 532 LINE",
"196 532 LINE",
"196 -75 LINE",
"301 -75 LINE SMOOTH",
"317 -75 OFFCURVE",
"322 -80 OFFCURVE",
"322 -90 CURVE SMOOTH",
"322 -100 OFFCURVE",
"317 -106 OFFCURVE",
"301 -106 CURVE SMOOTH",
"151 -106 LINE",
"151 -219 LINE",
"319 -219 LINE",
"386 -219 OFFCURVE",
"469 -192 OFFCURVE",
"469 -97 CURVE",
"469 -47 OFFCURVE",
"446 -16 OFFCURVE",
"393 18 CURVE",
"418 -28 LINE",
"418 532 LINE",
"606 532 LINE",
"606 708 LINE",
"10 708 LINE"
);
}
);
width = 616;
},
{
layerId = "F6847B4A-0A2E-406E-80B1-427EE12FE698";
paths = (
{
closed = 1;
nodes = (
"78 686 LINE",
"283 686 LINE",
"159 -18 LINE",
"196 -18 LINE SMOOTH",
"263 -18 OFFCURVE",
"280 -46 OFFCURVE",
"275 -79 CURVE SMOOTH",
"268 -118 OFFCURVE",
"241 -145 OFFCURVE",
"174 -145 CURVE SMOOTH",
"114 -145 LINE",
"110 -165 LINE",
"173 -165 LINE SMOOTH",
"243 -165 OFFCURVE",
"286 -129 OFFCURVE",
"295 -79 CURVE SMOOTH",
"304 -28 OFFCURVE",
"271 5 OFFCURVE",
"172 -1 CURVE",
"181 -10 LINE",
"303 686 LINE",
"508 686 LINE",
"512 704 LINE",
"82 704 LINE"
);
}
);
width = 470;
},
{
layerId = "248E82CE-81F2-4042-A23E-56D22FBFDD32";
paths = (
{
closed = 1;
nodes = (
"41 532 LINE",
"227 532 LINE",
"120 -75 LINE",
"225 -75 LINE SMOOTH",
"241 -75 OFFCURVE",
"245 -80 OFFCURVE",
"243 -90 CURVE SMOOTH",
"241 -100 OFFCURVE",
"235 -106 OFFCURVE",
"219 -106 CURVE SMOOTH",
"69 -106 LINE",
"49 -219 LINE",
"217 -219 LINE",
"284 -219 OFFCURVE",
"372 -192 OFFCURVE",
"389 -97 CURVE",
"398 -47 OFFCURVE",
"380 -16 OFFCURVE",
"333 18 CURVE",
"350 -28 LINE",
"449 532 LINE",
"637 532 LINE",
"668 708 LINE",
"72 708 LINE"
);
}
);
width = 616;
}
);
unicode = 0162;
userData = {
public.markColor = "0.5,0.09,0.79,1";
};
},
{
color = 6;
glyphname = Tcommaaccent;
lastChange = "2017-08-09 06:16:17 +0000";
layers = (
{
components = (
{
name = T;
}
);
layerId = "4C47FEBD-3B68-4176-B8ED-E26FA8D86AD9";
paths = (
{
closed = 1;
nodes = (
"207 -59 LINE",
"207 -97 LINE",
"238 -97 LINE",
"238 -104 LINE SMOOTH",
"238 -137 OFFCURVE",
"227 -158 OFFCURVE",
"195 -158 CURVE",
"195 -176 LINE",
"231 -176 OFFCURVE",
"260 -161 OFFCURVE",
"260 -90 CURVE SMOOTH",
"260 -81 OFFCURVE",
"259 -68 OFFCURVE",
"258 -59 CURVE"
);
}
);
width = 470;
},
{
anchors = (
{
name = _bottom;
position = "{324, 0}";
}
);
components = (
{
name = T;
}
);
layerId = "1A40E216-9158-4F5D-A2E9-8F4663F027D5";
paths = (
{
closed = 1;
nodes = (
"229 -35 LINE",
"229 -182 LINE",
"301 -182 LINE",
"301 -193 LINE SMOOTH",
"301 -245 OFFCURVE",
"280 -268 OFFCURVE",
"246 -268 CURVE",
"246 -346 LINE",
"359 -346 OFFCURVE",
"410 -266 OFFCURVE",
"410 -170 CURVE SMOOTH",
"410 -128 OFFCURVE",
"403 -82 OFFCURVE",
"385 -35 CURVE"
);
}
);
width = 616;
},
{
components = (
{
name = T;
transform = "{1, 0, 0, 1, -7, 0}";
}
);
layerId = "F6847B4A-0A2E-406E-80B1-427EE12FE698";
paths = (
{
closed = 1;
nodes = (
"130 -59 LINE",
"123 -97 LINE",
"154 -97 LINE",
"153 -104 LINE SMOOTH",
"147 -137 OFFCURVE",
"133 -158 OFFCURVE",
"101 -158 CURVE",
"97 -176 LINE",
"133 -176 OFFCURVE",
"165 -161 OFFCURVE",
"178 -90 CURVE SMOOTH",
"179 -81 OFFCURVE",
"180 -68 OFFCURVE",
"181 -59 CURVE"
);
}
);
width = 470;
},
{
anchors = (
{
name = _bottom;
position = "{292, 0}";
}
);
components = (
{
name = T;
transform = "{1, 0, 0, 1, -2, 0}";
}
);
layerId = "248E82CE-81F2-4042-A23E-56D22FBFDD32";
paths = (
{
closed = 1;
nodes = (
"161 -35 LINE",
"135 -182 LINE",
"207 -182 LINE",
"205 -193 LINE SMOOTH",
"196 -245 OFFCURVE",
"171 -268 OFFCURVE",
"137 -268 CURVE",
"123 -346 LINE",
"236 -346 OFFCURVE",
"301 -266 OFFCURVE",
"318 -170 CURVE SMOOTH",
"326 -128 OFFCURVE",
"327 -82 OFFCURVE",
"317 -35 CURVE"
);
}
);
width = 616;
}
);
unicode = 0162;
userData = {
com.typesupply.AccentFactory.compileType = manual;
public.markColor = "0.5,0.09,0.79,1";
};
},
{
glyphname = U;
lastChange = "2017-08-09 06:16:28 +0000";
layers = (
{
anchors = (
{
name = ogonek;
position = "{417, 0}";
},
{
name = top;
position = "{314, 683}";
}
);
layerId = "4C47FEBD-3B68-4176-B8ED-E26FA8D86AD9";
paths = (
{
closed = 1;
nodes = (
"80 267 LINE SMOOTH",
"80 73 OFFCURVE",
"179 -7 OFFCURVE",
"317 -7 CURVE SMOOTH",
"455 -7 OFFCURVE",
"549 73 OFFCURVE",
"549 267 CURVE SMOOTH",
"549 704 LINE",
"529 704 LINE",
"529 267 LINE SMOOTH",
"529 79 OFFCURVE",
"439 11 OFFCURVE",
"317 11 CURVE SMOOTH",
"193 11 OFFCURVE",
"100 79 OFFCURVE",
"100 267 CURVE SMOOTH",
"100 704 LINE",
"80 704 LINE"
);
}
);
width = 629;
},
{
anchors = (
{
name = ogonek;
position = "{541, 0}";
},
{
name = top;
position = "{360, 711}";
}
);
layerId = "1A40E216-9158-4F5D-A2E9-8F4663F027D5";
paths = (
{
closed = 1;
nodes = (
"46 309 LINE SMOOTH",
"46 100 OFFCURVE",
"176 -7 OFFCURVE",
"353 -7 CURVE SMOOTH",
"530 -7 OFFCURVE",
"673 100 OFFCURVE",
"673 309 CURVE SMOOTH",
"673 708 LINE",
"452 708 LINE",
"452 309 LINE SMOOTH",
"452 248 OFFCURVE",
"425 203 OFFCURVE",
"358 203 CURVE SMOOTH",
"291 203 OFFCURVE",
"267 248 OFFCURVE",
"267 309 CURVE SMOOTH",
"267 708 LINE",
"46 708 LINE"
);
}
);
width = 719;
},
{
anchors = (
{
name = ogonek;
position = "{355.55, 0}";
},
{
name = top;
position = "{372.981, 683}";
}
);
layerId = "F6847B4A-0A2E-406E-80B1-427EE12FE698";
paths = (
{
closed = 1;
nodes = (
"65.629 267 LINE SMOOTH",
"31.422 73 OFFCURVE",
"116.316 -7 OFFCURVE",
"254.316 -7 CURVE SMOOTH",
"392.316 -7 OFFCURVE",
"500.422 73 OFFCURVE",
"534.629 267 CURVE SMOOTH",
"611.684 704 LINE",
"591.684 704 LINE",
"514.629 267 LINE SMOOTH",
"481.48 79 OFFCURVE",
"379.49 11 OFFCURVE",
"257.49 11 CURVE SMOOTH",
"133.49 11 OFFCURVE",
"52.48 79 OFFCURVE",
"85.629 267 CURVE SMOOTH",
"162.684 704 LINE",
"142.684 704 LINE"
);
}
);
width = 629;
},
{
anchors = (
{
name = ogonek;
position = "{479, 0}";
},
{
name = top;
position = "{424, 711}";
}
);
layerId = "248E82CE-81F2-4042-A23E-56D22FBFDD32";
paths = (
{
closed = 1;
nodes = (
"39 309 LINE SMOOTH",
"2 100 OFFCURVE",
"113 -7 OFFCURVE",
"290 -7 CURVE SMOOTH",
"467 -7 OFFCURVE",
"629 100 OFFCURVE",
"666 309 CURVE SMOOTH",
"736 708 LINE",
"515 708 LINE",
"445 309 LINE SMOOTH",
"434 248 OFFCURVE",
"399 203 OFFCURVE",
"332 203 CURVE SMOOTH",
"265 203 OFFCURVE",
"249 248 OFFCURVE",
"260 309 CURVE SMOOTH",
"330 708 LINE",
"109 708 LINE"
);
}
);
width = 719;
}
);
unicode = 0055;
userData = {
com.typesupply.AccentFactory.yCoordinates = {
bottom = {
name = origin;
type = glyphMetric;
};
top = {
name = capHeight;
type = fontInfo;
};
};
};
},
{
glyphname = Uogonek;
lastChange = "2017-08-09 06:16:28 +0000";
layers = (
{
layerId = "4C47FEBD-3B68-4176-B8ED-E26FA8D86AD9";
paths = (
{
closed = 1;
nodes = (
"80 267 LINE SMOOTH",
"80 93 OFFCURVE",
"170 10 OFFCURVE",
"286 -5 CURVE",
"254 -14 OFFCURVE",
"233 -47.882 OFFCURVE",
"233 -82 CURVE",
"233 -135 OFFCURVE",
"271 -177 OFFCURVE",
"348 -177 CURVE",
"416 -177 LINE",
"416 -157 LINE",
"348 -157 LINE SMOOTH",
"289 -157 OFFCURVE",
"253 -129 OFFCURVE",
"253 -82 CURVE",
"253 -39 OFFCURVE",
"283 -11 OFFCURVE",
"333 -7 CURVE SMOOTH",
"462 2 OFFCURVE",
"549 80 OFFCURVE",
"549 267 CURVE SMOOTH",
"549 704 LINE",
"529 704 LINE",
"529 267 LINE SMOOTH",
"529 60 OFFCURVE",
"426 11 OFFCURVE",
"317 11 CURVE SMOOTH",
"193 11 OFFCURVE",
"100 79 OFFCURVE",
"100 267 CURVE SMOOTH",
"100 704 LINE",
"80 704 LINE"
);
}
);
width = 629;
},
{
layerId = "1A40E216-9158-4F5D-A2E9-8F4663F027D5";
paths = (
{
closed = 1;
nodes = (
"71 309 LINE SMOOTH",
"71 134 OFFCURVE",
"176 30 OFFCURVE",
"302 1 CURVE",
"302 -13 LINE",
"302 -103 OFFCURVE",
"376 -141 OFFCURVE",
"435 -141 CURVE SMOOTH",
"611 -141 LINE",
"611 -29 LINE",
"478 -29 LINE SMOOTH",
"458 -29 OFFCURVE",
"450 -23 OFFCURVE",
"450 -14 CURVE SMOOTH",
"450 -5 OFFCURVE",
"456 2 OFFCURVE",
"484 10 CURVE SMOOTH",
"589 40 OFFCURVE",
"698 140 OFFCURVE",
"698 309 CURVE SMOOTH",
"698 708 LINE",
"477 708 LINE",
"477 309 LINE SMOOTH",
"477 248 OFFCURVE",
"450 203 OFFCURVE",
"383 203 CURVE SMOOTH",
"316 203 OFFCURVE",
"292 248 OFFCURVE",
"292 309 CURVE SMOOTH",
"292 708 LINE",
"71 708 LINE"
);
}
);
width = 768;
},
{
layerId = "F6847B4A-0A2E-406E-80B1-427EE12FE698";
paths = (
{
closed = 1;
nodes = (
"71 267 LINE SMOOTH",
"40 93 OFFCURVE",
"115 10 OFFCURVE",
"229 -5 CURVE",
"195 -14 OFFCURVE",
"168 -48 OFFCURVE",
"162 -82 CURVE",
"153 -135 OFFCURVE",
"183 -177 OFFCURVE",
"260 -177 CURVE",
"328 -177 LINE",
"332 -157 LINE",
"264 -157 LINE SMOOTH",
"205 -157 OFFCURVE",
"174 -129 OFFCURVE",
"182 -82 CURVE",
"190 -39 OFFCURVE",
"225 -11 OFFCURVE",
"275 -7 CURVE SMOOTH",
"406 2 OFFCURVE",
"507 80 OFFCURVE",
"540 267 CURVE SMOOTH",
"617 704 LINE",
"597 704 LINE",
"520 267 LINE SMOOTH",
"483 60 OFFCURVE",
"371 11 OFFCURVE",
"262 11 CURVE SMOOTH",
"138 11 OFFCURVE",
"57 79 OFFCURVE",
"91 267 CURVE SMOOTH",
"168 704 LINE",
"148 704 LINE"
);
}
);
width = 629;
},
{
layerId = "248E82CE-81F2-4042-A23E-56D22FBFDD32";
paths = (
{
closed = 1;
nodes = (
"38 309 LINE SMOOTH",
"8 134 OFFCURVE",
"94 30 OFFCURVE",
"215 1 CURVE",
"213 -13 LINE",
"197 -103 OFFCURVE",
"264 -141 OFFCURVE",
"323 -141 CURVE SMOOTH",
"499 -141 LINE",
"519 -29 LINE",
"386 -29 LINE SMOOTH",
"366 -29 OFFCURVE",
"359 -23 OFFCURVE",
"361 -14 CURVE SMOOTH",
"362 -5 OFFCURVE",
"369 2 OFFCURVE",
"399 10 CURVE SMOOTH",
"509 40 OFFCURVE",
"636 140 OFFCURVE",
"665 309 CURVE SMOOTH",
"736 708 LINE",
"515 708 LINE",
"444 309 LINE SMOOTH",
"434 248 OFFCURVE",
"399 203 OFFCURVE",
"332 203 CURVE SMOOTH",
"265 203 OFFCURVE",
"249 248 OFFCURVE",
"259 309 CURVE SMOOTH",
"330 708 LINE",
"109 708 LINE"
);
}
);
width = 719;
}
);
unicode = 0172;
},
{
glyphname = V;
lastChange = "2017-08-09 06:16:28 +0000";
layers = (
{
layerId = "4C47FEBD-3B68-4176-B8ED-E26FA8D86AD9";
paths = (
{
closed = 1;
nodes = (
"299 0 LINE",
"319 0 LINE",
"589 704 LINE",
"565 704 LINE",
"308 35 LINE",
"54 704 LINE",
"30 704 LINE"
);
}
);
width = 619;
},
{
layerId = "1A40E216-9158-4F5D-A2E9-8F4663F027D5";
paths = (
{
closed = 1;
nodes = (
"238 0 LINE",
"525 0 LINE",
"763 708 LINE",
"527 708 LINE",
"382 221 LINE",
"236 708 LINE",
"0 708 LINE"
);
}
);
width = 763;
},
{
layerId = "F6847B4A-0A2E-406E-80B1-427EE12FE698";
paths = (
{
closed = 1;
nodes = (
"236.933 0 LINE",
"256.933 0 LINE",
"651.067 704 LINE",
"627.067 704 LINE",
"252.104 35 LINE",
"116.067 704 LINE",
"92.067 704 LINE"
);
}
);
width = 619;
},
{
layerId = "248E82CE-81F2-4042-A23E-56D22FBFDD32";
paths = (
{
closed = 1;
nodes = (
"176 0 LINE",
"463 0 LINE",
"825 708 LINE",
"589 708 LINE",
"359 221 LINE",
"298 708 LINE",
"62 708 LINE"
);
}
);
width = 763;
}
);
unicode = 0056;
userData = {
com.typesupply.AccentFactory.yCoordinates = {
bottom = {
name = origin;
type = glyphMetric;
};
top = {
name = capHeight;
type = fontInfo;
};
};
};
},
{
glyphname = W;
lastChange = "2017-08-09 06:16:28 +0000";
layers = (
{
layerId = "4C47FEBD-3B68-4176-B8ED-E26FA8D86AD9";
paths = (
{
closed = 1;
nodes = (
"224 0 LINE",
"244 0 LINE",
"461 697 LINE",
"443 697 LINE",
"660 0 LINE",
"680 0 LINE",
"869 704 LINE",
"845 704 LINE",
"662 15 LINE",
"678 15 LINE",
"464 704 LINE",
"440 704 LINE",
"226 15 LINE",
"242 15 LINE",
"59 704 LINE",
"35 704 LINE"
);
}
);
width = 904;
},
{
layerId = "1A40E216-9158-4F5D-A2E9-8F4663F027D5";
paths = (
{
closed = 1;
nodes = (
"192 0 LINE",
"468 0 LINE",
"560 451 LINE",
"540 451 LINE",
"632 0 LINE",
"908 0 LINE",
"1070 708 LINE",
"831 708 LINE",
"745 112 LINE",
"799 112 LINE",
"671 708 LINE",
"429 708 LINE",
"301 112 LINE",
"355 112 LINE",
"269 708 LINE",
"30 708 LINE"
);
}
);
width = 1100;
},
{
layerId = "F6847B4A-0A2E-406E-80B1-427EE12FE698";
paths = (
{
closed = 1;
nodes = (
"161.933 0 LINE",
"181.933 0 LINE",
"521.833 697 LINE",
"503.833 697 LINE",
"597.933 0 LINE",
"617.933 0 LINE",
"931.067 704 LINE",
"907.067 704 LINE",
"602.578 15 LINE",
"618.578 15 LINE",
"526.067 704 LINE",
"502.067 704 LINE",
"166.578 15 LINE",
"182.578 15 LINE",
"121.067 704 LINE",
"97.067 704 LINE"
);
}
);
width = 904;
},
{
layerId = "248E82CE-81F2-4042-A23E-56D22FBFDD32";
paths = (
{
closed = 1;
nodes = (
"130 0 LINE",
"406 0 LINE",
"577 451 LINE",
"557 451 LINE",
"570 0 LINE",
"846 0 LINE",
"1132 708 LINE",
"893 708 LINE",
"702 112 LINE",
"756 112 LINE",
"733 708 LINE",
"491 708 LINE",
"258 112 LINE",
"312 112 LINE",
"331 708 LINE",
"92 708 LINE"
);
}
);
width = 1100;
}
);
unicode = 0057;
userData = {
com.typemytype.robofont.layerData = {
b = {
anchors = (
);
components = (
);
contours = (
{
points = (
{
segmentType = line;
smooth = 0;
x = 229;
y = -2;
},
{
segmentType = line;
smooth = 0;
x = 245;
y = 0;
},
{
segmentType = line;
smooth = 0;
x = 473;
y = 727;
},
{
segmentType = line;
smooth = 0;
x = 435;
y = 727;
},
{
segmentType = line;
smooth = 0;
x = 638;
y = 0;
},
{
segmentType = line;
smooth = 0;
x = 654;
y = 0;
},
{
segmentType = line;
smooth = 0;
x = 877;
y = 684;
},
{
segmentType = line;
smooth = 0;
x = 860;
y = 684;
},
{
segmentType = line;
smooth = 0;
x = 636;
y = 7;
},
{
segmentType = line;
smooth = 0;
x = 650;
y = 5;
},
{
segmentType = line;
smooth = 0;
x = 459;
y = 684;
},
{
segmentType = line;
smooth = 0;
x = 442;
y = 684;
},
{
segmentType = line;
smooth = 0;
x = 230;
y = 10;
},
{
segmentType = line;
smooth = 0;
x = 239;
y = 10;
},
{
segmentType = line;
smooth = 0;
x = 54;
y = 684;
},
{
segmentType = line;
smooth = 0;
x = 36;
y = 684;
}
);
}
);
lib = {
};
name = W;
unicodes = (
);
width = 904;
};
};
com.typesupply.AccentFactory.yCoordinates = {
bottom = {
name = origin;
type = glyphMetric;
};
top = {
name = capHeight;
type = fontInfo;
};
};
};
},
{
glyphname = X;
lastChange = "2017-08-09 06:16:28 +0000";
layers = (
{
layerId = "4C47FEBD-3B68-4176-B8ED-E26FA8D86AD9";
paths = (
{
closed = 1;
nodes = (
"447 0 LINE",
"470 0 LINE",
"53 704 LINE",
"30 704 LINE"
);
},
{
closed = 1;
nodes = (
"244 371 LINE",
"30 0 LINE",
"53 0 LINE",
"260 361 LINE"
);
},
{
closed = 1;
nodes = (
"258 347 LINE",
"470 704 LINE",
"447 704 LINE",
"242 357 LINE"
);
}
);
width = 500;
},
{
layerId = "1A40E216-9158-4F5D-A2E9-8F4663F027D5";
paths = (
{
closed = 1;
nodes = (
"501 0 LINE",
"764 0 LINE",
"263 708 LINE",
"0 708 LINE"
);
},
{
closed = 1;
nodes = (
"275 416 LINE",
"10 0 LINE",
"263 0 LINE",
"406 243 LINE"
);
},
{
closed = 1;
nodes = (
"480 293 LINE",
"745 708 LINE",
"492 708 LINE",
"350 466 LINE"
);
}
);
width = 764;
},
{
layerId = "F6847B4A-0A2E-406E-80B1-427EE12FE698";
paths = (
{
closed = 1;
nodes = (
"384.933 0 LINE",
"407.933 0 LINE",
"115.067 704 LINE",
"92.067 704 LINE"
);
},
{
closed = 1;
nodes = (
"247.35 371 LINE",
"-32.067 0 LINE",
"-9.067 0 LINE",
"261.587 361 LINE"
);
},
{
closed = 1;
nodes = (
"257.118 347 LINE",
"532.067 704 LINE",
"509.067 704 LINE",
"242.882 357 LINE"
);
}
);
width = 500;
},
{
layerId = "248E82CE-81F2-4042-A23E-56D22FBFDD32";
paths = (
{
closed = 1;
nodes = (
"439 0 LINE",
"702 0 LINE",
"325 708 LINE",
"62 708 LINE"
);
},
{
closed = 1;
nodes = (
"286 416 LINE",
"-52 0 LINE",
"201 0 LINE",
"386 243 LINE"
);
},
{
closed = 1;
nodes = (
"469 293 LINE",
"807 708 LINE",
"554 708 LINE",
"370 466 LINE"
);
}
);
width = 764;
}
);
unicode = 0058;
userData = {
com.typemytype.robofont.guides = (
{
angle = 90;
isGlobal = 0;
magnetic = 5;
x = 50;
y = 16;
},
{
angle = 90;
isGlobal = 0;
magnetic = 5;
x = 490;
y = 36;
},
{
angle = 0;
isGlobal = 0;
magnetic = 5;
x = 511;
y = 352;
}
);
com.typesupply.AccentFactory.yCoordinates = {
bottom = {
name = origin;
type = glyphMetric;
};
top = {
name = capHeight;
type = fontInfo;
};
};
};
},
{
glyphname = Y;
lastChange = "2017-08-09 06:16:28 +0000";
layers = (
{
anchors = (
{
name = top;
position = "{260, 683}";
}
);
layerId = "4C47FEBD-3B68-4176-B8ED-E26FA8D86AD9";
paths = (
{
closed = 1;
nodes = (
"250 295 LINE",
"250 0 LINE",
"270 0 LINE",
"270 295 LINE",
"488 704 LINE",
"464 704 LINE",
"255 309 LINE",
"264 309 LINE",
"54 704 LINE",
"30 704 LINE"
);
}
);
width = 518;
},
{
anchors = (
{
name = top;
position = "{366, 711}";
}
);
layerId = "1A40E216-9158-4F5D-A2E9-8F4663F027D5";
paths = (
{
closed = 1;
nodes = (
"254 215 LINE",
"254 0 LINE",
"476 0 LINE",
"476 215 LINE",
"730 708 LINE",
"480 708 LINE",
"327 368 LINE",
"407 368 LINE",
"254 708 LINE",
"0 708 LINE"
);
}
);
width = 730;
},
{
anchors = (
{
name = top;
position = "{318.364, 683}";
}
);
layerId = "F6847B4A-0A2E-406E-80B1-427EE12FE698";
paths = (
{
closed = 1;
nodes = (
"239.949 295 LINE",
"187.933 0 LINE",
"207.933 0 LINE",
"259.949 295 LINE",
"550.067 704 LINE",
"526.067 704 LINE",
"247.418 309 LINE",
"256.418 309 LINE",
"116.067 704 LINE",
"92.067 704 LINE"
);
}
);
width = 518;
},
{
anchors = (
{
name = top;
position = "{429, 711}";
}
);
layerId = "248E82CE-81F2-4042-A23E-56D22FBFDD32";
paths = (
{
closed = 1;
nodes = (
"229 215 LINE",
"192 0 LINE",
"414 0 LINE",
"451 215 LINE",
"792 708 LINE",
"542 708 LINE",
"329 368 LINE",
"409 368 LINE",
"316 708 LINE",
"62 708 LINE"
);
}
);
width = 730;
}
);
unicode = 0059;
userData = {
com.typesupply.AccentFactory.yCoordinates = {
bottom = {
name = origin;
type = glyphMetric;
};
top = {
name = capHeight;
type = fontInfo;
};
};
};
},
{
glyphname = Z;
lastChange = "2017-08-09 06:16:28 +0000";
layers = (
{
anchors = (
{
name = top;
position = "{245, 683}";
}
);
layerId = "4C47FEBD-3B68-4176-B8ED-E26FA8D86AD9";
paths = (
{
closed = 1;
nodes = (
"442 704 LINE",
"48 704 LINE",
"48 684 LINE",
"421 684 LINE",
"35 19 LINE",
"35 0 LINE",
"452 0 LINE",
"452 19 LINE",
"57 19 LINE",
"442 684 LINE"
);
}
);
width = 487;
},
{
anchors = (
{
name = top;
position = "{315, 711}";
}
);
layerId = "1A40E216-9158-4F5D-A2E9-8F4663F027D5";
paths = (
{
closed = 1;
nodes = (
"580 708 LINE",
"50 708 LINE",
"50 532 LINE",
"330 532 LINE",
"50 167 LINE",
"50 0 LINE",
"580 0 LINE",
"580 177 LINE",
"296 177 LINE",
"580 541 LINE"
);
}
);
width = 630;
},
{
anchors = (
{
name = top;
position = "{303.364, 683}";
}
);
layerId = "F6847B4A-0A2E-406E-80B1-427EE12FE698";
paths = (
{
closed = 1;
nodes = (
"504.067 704 LINE",
"110.067 704 LINE",
"106.541 684 LINE",
"479.541 684 LINE",
"-23.717 19 LINE",
"-27.067 0 LINE",
"389.933 0 LINE",
"393.283 19 LINE",
"-1.717 19 LINE",
"500.541 684 LINE"
);
}
);
width = 487;
},
{
anchors = (
{
name = top;
position = "{378, 711}";
}
);
layerId = "248E82CE-81F2-4042-A23E-56D22FBFDD32";
paths = (
{
closed = 1;
nodes = (
"642 708 LINE",
"112 708 LINE",
"81 532 LINE",
"361 532 LINE",
"17 167 LINE",
"-12 0 LINE",
"518 0 LINE",
"549 177 LINE",
"265 177 LINE",
"613 541 LINE"
);
}
);
width = 630;
}
);
unicode = 005A;
userData = {
com.typesupply.AccentFactory.yCoordinates = {
bottom = {
name = origin;
type = glyphMetric;
};
top = {
name = capHeight;
type = fontInfo;
};
};
};
},
{
glyphname = AE;
lastChange = "2017-08-09 06:16:28 +0000";
layers = (
{
layerId = "4C47FEBD-3B68-4176-B8ED-E26FA8D86AD9";
paths = (
{
closed = 1;
nodes = (
"137 194 LINE",
"450 194 LINE",
"450 212 LINE",
"143 212 LINE"
);
},
{
closed = 1;
nodes = (
"787 686 LINE",
"787 704 LINE",
"443 704 LINE",
"10 0 LINE",
"33 0 LINE",
"443 667 LINE",
"443 0 LINE",
"787 0 LINE",
"787 18 LINE",
"463 18 LINE",
"463 343 LINE",
"757 343 LINE",
"757 361 LINE",
"463 361 LINE",
"463 686 LINE"
);
}
);
width = 837;
},
{
layerId = "1A40E216-9158-4F5D-A2E9-8F4663F027D5";
paths = (
{
closed = 1;
nodes = (
"155 97 LINE",
"598 97 LINE",
"598 264 LINE",
"248 264 LINE"
);
},
{
closed = 1;
nodes = (
"952 532 LINE",
"952 708 LINE",
"339 708 LINE",
"0 0 LINE",
"241 0 LINE",
"490 537 LINE",
"490 0 LINE",
"952 0 LINE",
"952 177 LINE",
"712 177 LINE",
"712 280 LINE",
"922 280 LINE",
"922 447 LINE",
"712 447 LINE",
"712 532 LINE"
);
}
);
width = 986;
},
{
layerId = "F6847B4A-0A2E-406E-80B1-427EE12FE698";
paths = (
{
closed = 1;
nodes = (
"109.14 194 LINE",
"422.14 194 LINE",
"425.314 212 LINE",
"118.314 212 LINE"
);
},
{
closed = 1;
nodes = (
"845.893 686 LINE",
"849.067 704 LINE",
"505.067 704 LINE",
"-52.067 0 LINE",
"-29.067 0 LINE",
"498.543 667 LINE",
"380.933 0 LINE",
"724.933 0 LINE",
"728.107 18 LINE",
"404.107 18 LINE",
"461.413 343 LINE",
"755.413 343 LINE",
"758.587 361 LINE",
"464.587 361 LINE",
"521.893 686 LINE"
);
}
);
width = 837;
},
{
layerId = "248E82CE-81F2-4042-A23E-56D22FBFDD32";
paths = (
{
closed = 1;
nodes = (
"110 97 LINE",
"553 97 LINE",
"582 264 LINE",
"232 264 LINE"
);
},
{
closed = 1;
nodes = (
"983 532 LINE",
"1014 708 LINE",
"401 708 LINE",
"-62 0 LINE",
"179 0 LINE",
"522 537 LINE",
"428 0 LINE",
"890 0 LINE",
"921 177 LINE",
"681 177 LINE",
"699 280 LINE",
"909 280 LINE",
"938 447 LINE",
"728 447 LINE",
"743 532 LINE"
);
}
);
width = 986;
}
);
unicode = 00C6;
userData = {
com.typemytype.robofont.layerData = {
b = {
anchors = (
);
components = (
);
contours = (
{
points = (
{
segmentType = line;
smooth = 0;
x = 138;
y = 183;
},
{
segmentType = line;
smooth = 0;
x = 449;
y = 183;
},
{
segmentType = line;
smooth = 0;
x = 449;
y = 202;
},
{
segmentType = line;
smooth = 0;
x = 149;
y = 202;
}
);
},
{
points = (
{
segmentType = line;
smooth = 0;
x = 757;
y = 663;
},
{
segmentType = line;
smooth = 0;
x = 757;
y = 683;
},
{
segmentType = line;
smooth = 0;
x = 442;
y = 683;
},
{
segmentType = line;
smooth = 0;
x = 11;
y = 0;
},
{
segmentType = line;
smooth = 0;
x = 32;
y = 0;
},
{
segmentType = line;
smooth = 0;
x = 443;
y = 658;
},
{
segmentType = line;
smooth = 0;
x = 443;
y = 0;
},
{
segmentType = line;
smooth = 0;
x = 757;
y = 0;
},
{
segmentType = line;
smooth = 0;
x = 757;
y = 19;
},
{
segmentType = line;
smooth = 0;
x = 463;
y = 19;
},
{
segmentType = line;
smooth = 0;
x = 463;
y = 332;
},
{
segmentType = line;
smooth = 0;
x = 727;
y = 332;
},
{
segmentType = line;
smooth = 0;
x = 727;
y = 351;
},
{
segmentType = line;
smooth = 0;
x = 463;
y = 351;
},
{
segmentType = line;
smooth = 0;
x = 463;
y = 663;
}
);
}
);
lib = {
};
name = AE;
unicodes = (
);
width = 837;
};
};
com.typesupply.AccentFactory.yCoordinates = {
bottom = {
name = origin;
type = glyphMetric;
};
top = {
name = capHeight;
type = fontInfo;
};
};
};
},
{
glyphname = Eth;
lastChange = "2017-08-09 06:16:28 +0000";
layers = (
{
layerId = "4C47FEBD-3B68-4176-B8ED-E26FA8D86AD9";
paths = (
{
closed = 1;
nodes = (
"10 343 LINE",
"378 343 LINE",
"378 361 LINE",
"10 361 LINE"
);
},
{
closed = 1;
nodes = (
"310 704 CURVE",
"125 704 LINE",
"125 0 LINE",
"310 0 LINE",
"555 0 OFFCURVE",
"682 130 OFFCURVE",
"682 352 CURVE",
"682 574 OFFCURVE",
"555 704 OFFCURVE"
);
},
{
closed = 1;
nodes = (
"145 18 LINE",
"145 686 LINE",
"310 686 LINE",
"546 686 OFFCURVE",
"662 558 OFFCURVE",
"662 352 CURVE",
"662 146 OFFCURVE",
"546 18 OFFCURVE",
"310 18 CURVE"
);
}
);
width = 742;
},
{
layerId = "1A40E216-9158-4F5D-A2E9-8F4663F027D5";
paths = (
{
closed = 1;
nodes = (
"0 268 LINE",
"402 268 LINE",
"402 444 LINE",
"0 444 LINE"
);
},
{
closed = 1;
nodes = (
"345 708 CURVE SMOOTH",
"50 708 LINE",
"50 0 LINE",
"345 0 LINE SMOOTH",
"571 0 OFFCURVE",
"713 154 OFFCURVE",
"713 356 CURVE SMOOTH",
"713 560 OFFCURVE",
"571 708 OFFCURVE"
);
},
{
closed = 1;
nodes = (
"272 198 LINE",
"272 514 LINE",
"325 514 LINE SMOOTH",
"423 514 OFFCURVE",
"488 459 OFFCURVE",
"488 356 CURVE SMOOTH",
"488 253 OFFCURVE",
"423 198 OFFCURVE",
"325 198 CURVE SMOOTH"
);
}
);
width = 743;
},
{
layerId = "F6847B4A-0A2E-406E-80B1-427EE12FE698";
paths = (
{
closed = 1;
nodes = (
"8.413 343 LINE",
"376.413 343 LINE",
"379.587 361 LINE",
"11.587 361 LINE"
);
},
{
closed = 1;
nodes = (
"372.067 704 CURVE",
"187.067 704 LINE",
"62.933 0 LINE",
"247.933 0 LINE",
"492.933 0 OFFCURVE",
"642.855 130 OFFCURVE",
"682 352 CURVE",
"721.145 574 OFFCURVE",
"617.067 704 OFFCURVE"
);
},
{
closed = 1;
nodes = (
"86.107 18 LINE",
"203.893 686 LINE",
"368.893 686 LINE",
"604.893 686 OFFCURVE",
"698.323 558 OFFCURVE",
"662 352 CURVE",
"625.677 146 OFFCURVE",
"487.107 18 OFFCURVE",
"251.107 18 CURVE"
);
}
);
width = 742;
},
{
layerId = "248E82CE-81F2-4042-A23E-56D22FBFDD32";
paths = (
{
closed = 1;
nodes = (
"-15 268 LINE",
"387 268 LINE",
"418 444 LINE",
"16 444 LINE"
);
},
{
closed = 1;
nodes = (
"407 708 CURVE SMOOTH",
"112 708 LINE",
"-12 0 LINE",
"283 0 LINE SMOOTH",
"509 0 OFFCURVE",
"678 154 OFFCURVE",
"713 356 CURVE SMOOTH",
"749 560 OFFCURVE",
"633 708 OFFCURVE"
);
},
{
closed = 1;
nodes = (
"244 198 LINE",
"300 514 LINE",
"353 514 LINE SMOOTH",
"451 514 OFFCURVE",
"507 459 OFFCURVE",
"488 356 CURVE SMOOTH",
"470 253 OFFCURVE",
"395 198 OFFCURVE",
"297 198 CURVE SMOOTH"
);
}
);
width = 743;
}
);
unicode = 00D0;
},
{
glyphname = Oslash;
lastChange = "2017-08-09 06:16:28 +0000";
layers = (
{
components = (
{
name = O;
}
);
layerId = "4C47FEBD-3B68-4176-B8ED-E26FA8D86AD9";
paths = (
{
closed = 1;
nodes = (
"61 0 LINE",
"86 0 LINE",
"731 704 LINE",
"707 704 LINE"
);
}
);
width = 792;
},
{
components = (
{
name = O;
transform = "{1, 0, 0, 1, -1, 0}";
}
);
layerId = "1A40E216-9158-4F5D-A2E9-8F4663F027D5";
paths = (
{
closed = 1;
nodes = (
"18 1 LINE",
"134 1 LINE",
"769 712 LINE",
"654 712 LINE"
);
}
);
width = 788;
},
{
components = (
{
name = O;
}
);
layerId = "F6847B4A-0A2E-406E-80B1-427EE12FE698";
paths = (
{
closed = 1;
nodes = (
"-1 0 LINE",
"24 0 LINE",
"793 704 LINE",
"769 704 LINE"
);
}
);
width = 792;
},
{
components = (
{
name = O;
transform = "{1, 0, 0, 1, -1, 0}";
}
);
layerId = "248E82CE-81F2-4042-A23E-56D22FBFDD32";
paths = (
{
closed = 1;
nodes = (
"-45 1 LINE",
"71 1 LINE",
"832 712 LINE",
"717 712 LINE"
);
}
);
width = 788;
}
);
unicode = 00D8;
},
{
glyphname = Thorn;
lastChange = "2017-08-09 06:16:28 +0000";
layers = (
{
layerId = "4C47FEBD-3B68-4176-B8ED-E26FA8D86AD9";
paths = (
{
closed = 1;
nodes = (
"105 180 LINE",
"105 526 LINE",
"263 526 LINE SMOOTH",
"414 526 OFFCURVE",
"468 461 OFFCURVE",
"468 352 CURVE SMOOTH",
"468 248 OFFCURVE",
"414 180 OFFCURVE",
"263 180 CURVE SMOOTH"
);
},
{
closed = 1;
nodes = (
"488 352 CURVE SMOOTH",
"488 469 OFFCURVE",
"423 546 OFFCURVE",
"263 546 CURVE SMOOTH",
"105 546 LINE",
"105 704 LINE",
"85 704 LINE",
"85 0 LINE",
"105 0 LINE",
"105 159 LINE",
"263 159 LINE SMOOTH",
"409 159 OFFCURVE",
"488 222 OFFCURVE"
);
}
);
width = 528;
},
{
layerId = "1A40E216-9158-4F5D-A2E9-8F4663F027D5";
paths = (
{
closed = 1;
nodes = (
"272 290 LINE",
"272 420 LINE",
"335 420 LINE SMOOTH",
"385 420 OFFCURVE",
"404 394 OFFCURVE",
"404 355 CURVE",
"404 316 OFFCURVE",
"385 290 OFFCURVE",
"335 290 CURVE"
);
},
{
closed = 1;
nodes = (
"629 355 CURVE",
"629 492 OFFCURVE",
"538 588 OFFCURVE",
"360 588 CURVE SMOOTH",
"270 588 LINE",
"270 708 LINE",
"50 708 LINE",
"50 0 LINE",
"272 0 LINE",
"272 125 LINE",
"360 125 LINE SMOOTH",
"538 125 OFFCURVE",
"629 229 OFFCURVE"
);
}
);
width = 649;
},
{
layerId = "F6847B4A-0A2E-406E-80B1-427EE12FE698";
paths = (
{
closed = 1;
nodes = (
"74.672 180 LINE",
"135.681 526 LINE",
"293.681 526 LINE SMOOTH",
"444.681 526 OFFCURVE",
"487.22 461 OFFCURVE",
"468 352 CURVE SMOOTH",
"449.662 248 OFFCURVE",
"383.672 180 OFFCURVE",
"232.672 180 CURVE SMOOTH"
);
},
{
closed = 1;
nodes = (
"488 352 CURVE SMOOTH",
"508.63 469 OFFCURVE",
"457.207 546 OFFCURVE",
"297.207 546 CURVE SMOOTH",
"139.207 546 LINE",
"167.067 704 LINE",
"147.067 704 LINE",
"22.933 0 LINE",
"42.933 0 LINE",
"70.969 159 LINE",
"228.969 159 LINE SMOOTH",
"374.969 159 OFFCURVE",
"465.077 222 OFFCURVE"
);
}
);
width = 528;
},
{
layerId = "248E82CE-81F2-4042-A23E-56D22FBFDD32";
paths = (
{
closed = 1;
nodes = (
"261 290 LINE",
"284 420 LINE",
"347 420 LINE SMOOTH",
"397 420 OFFCURVE",
"411 394 OFFCURVE",
"404 355 CURVE",
"397 316 OFFCURVE",
"374 290 OFFCURVE",
"324 290 CURVE"
);
},
{
closed = 1;
nodes = (
"629 355 CURVE",
"653 492 OFFCURVE",
"579 588 OFFCURVE",
"401 588 CURVE SMOOTH",
"311 588 LINE",
"332 708 LINE",
"112 708 LINE",
"-12 0 LINE",
"210 0 LINE",
"232 125 LINE",
"320 125 LINE SMOOTH",
"498 125 OFFCURVE",
"607 229 OFFCURVE"
);
}
);
width = 649;
}
);
unicode = 00DE;
},
{
glyphname = Lslash;
lastChange = "2017-08-09 06:16:28 +0000";
layers = (
{
layerId = "4C47FEBD-3B68-4176-B8ED-E26FA8D86AD9";
paths = (
{
closed = 1;
nodes = (
"10 312 LINE",
"286 442 LINE",
"286 464 LINE",
"10 334 LINE"
);
},
{
closed = 1;
nodes = (
"105 704 LINE",
"105 0 LINE",
"395 0 LINE",
"395 18 LINE",
"125 18 LINE",
"125 704 LINE"
);
}
);
width = 415;
},
{
layerId = "1A40E216-9158-4F5D-A2E9-8F4663F027D5";
paths = (
{
closed = 1;
nodes = (
"10 221 LINE",
"362 318 LINE",
"362 534 LINE",
"10 437 LINE"
);
},
{
closed = 1;
nodes = (
"65 708 LINE",
"65 0 LINE",
"501 0 LINE",
"501 168 LINE",
"287 168 LINE",
"287 708 LINE"
);
}
);
width = 521;
},
{
layerId = "F6847B4A-0A2E-406E-80B1-427EE12FE698";
paths = (
{
closed = 1;
nodes = (
"2.947 312 LINE",
"301.869 442 LINE",
"305.749 464 LINE",
"6.826 334 LINE"
);
},
{
closed = 1;
nodes = (
"167.067 704 LINE",
"42.933 0 LINE",
"332.933 0 LINE",
"336.107 18 LINE",
"66.107 18 LINE",
"187.067 704 LINE"
);
}
);
width = 415;
},
{
layerId = "248E82CE-81F2-4042-A23E-56D22FBFDD32";
paths = (
{
closed = 1;
nodes = (
"-13 221 LINE",
"356 318 LINE",
"394 534 LINE",
"25 437 LINE"
);
},
{
closed = 1;
nodes = (
"127 708 LINE",
"3 0 LINE",
"439 0 LINE",
"468 168 LINE",
"254 168 LINE",
"349 708 LINE"
);
}
);
width = 521;
}
);
unicode = 0141;
},
{
glyphname = OE;
lastChange = "2017-08-09 06:16:28 +0000";
layers = (
{
layerId = "4C47FEBD-3B68-4176-B8ED-E26FA8D86AD9";
paths = (
{
closed = 1;
nodes = (
"81 351 CURVE",
"81 563 OFFCURVE",
"221 692 OFFCURVE",
"396 692 CURVE",
"571 692 OFFCURVE",
"711 563 OFFCURVE",
"711 351 CURVE",
"711 139 OFFCURVE",
"571 10 OFFCURVE",
"396 10 CURVE",
"221 10 OFFCURVE",
"81 139 OFFCURVE"
);
},
{
closed = 1;
nodes = (
"1056 686 LINE",
"1056 704 LINE",
"712 704 LINE",
"712 462 LINE",
"680 612 OFFCURVE",
"551 710 OFFCURVE",
"396 710 CURVE",
"200 710 OFFCURVE",
"60 562 OFFCURVE",
"60 351 CURVE",
"60 140 OFFCURVE",
"200 -8 OFFCURVE",
"396 -8 CURVE",
"551 -8 OFFCURVE",
"680 90 OFFCURVE",
"712 240 CURVE",
"712 0 LINE",
"1056 0 LINE",
"1056 18 LINE",
"732 18 LINE",
"732 343 LINE",
"1026 343 LINE",
"1026 361 LINE",
"732 361 LINE",
"732 686 LINE"
);
}
);
width = 1106;
},
{
layerId = "1A40E216-9158-4F5D-A2E9-8F4663F027D5";
paths = (
{
closed = 1;
nodes = (
"256 354 CURVE",
"256 451.823 OFFCURVE",
"304 515 OFFCURVE",
"395 515 CURVE SMOOTH",
"484 515 OFFCURVE",
"533 451.823 OFFCURVE",
"533 354 CURVE",
"533 256.177 OFFCURVE",
"484 193 OFFCURVE",
"395 193 CURVE SMOOTH",
"304 193 OFFCURVE",
"256 256.177 OFFCURVE"
);
},
{
closed = 1;
nodes = (
"1015 532 LINE",
"1015 708 LINE",
"543 708 LINE",
"543 671 LINE",
"499 704 OFFCURVE",
"437 720 OFFCURVE",
"378 720 CURVE SMOOTH",
"176 720 OFFCURVE",
"30 568.76 OFFCURVE",
"30 354 CURVE",
"30 139.24 OFFCURVE",
"176 -12 OFFCURVE",
"378 -12 CURVE SMOOTH",
"437 -9 OFFCURVE",
"499 4 OFFCURVE",
"543 37 CURVE",
"543 0 LINE",
"1015 0 LINE",
"1015 177 LINE",
"765 177 LINE",
"765 277 LINE",
"985 277 LINE",
"985 444 LINE",
"765 444 LINE",
"765 532 LINE"
);
}
);
width = 1049;
},
{
layerId = "F6847B4A-0A2E-406E-80B1-427EE12FE698";
paths = (
{
closed = 1;
nodes = (
"81 351 CURVE",
"118.381 563 OFFCURVE",
"281.128 692 OFFCURVE",
"456.128 692 CURVE",
"631.128 692 OFFCURVE",
"748.381 563 OFFCURVE",
"711 351 CURVE",
"673.619 139 OFFCURVE",
"510.872 10 OFFCURVE",
"335.872 10 CURVE",
"160.872 10 OFFCURVE",
"43.619 139 OFFCURVE"
);
},
{
closed = 1;
nodes = (
"1115.07 686 LINE",
"1118.243 704 LINE",
"774.243 704 LINE",
"731.572 462 LINE",
"726.021 612 OFFCURVE",
"614.301 710 OFFCURVE",
"459.301 710 CURVE",
"263.301 710 OFFCURVE",
"97.205 562 OFFCURVE",
"60 351 CURVE",
"22.795 140 OFFCURVE",
"136.699 -8 OFFCURVE",
"332.699 -8 CURVE",
"487.699 -8 OFFCURVE",
"633.979 90 OFFCURVE",
"692.428 240 CURVE",
"650.109 0 LINE",
"994.109 0 LINE",
"997.283 18 LINE",
"673.283 18 LINE",
"730.589 343 LINE",
"1024.589 343 LINE",
"1027.763 361 LINE",
"733.763 361 LINE",
"791.07 686 LINE"
);
}
);
width = 1106;
},
{
layerId = "248E82CE-81F2-4042-A23E-56D22FBFDD32";
paths = (
{
closed = 1;
nodes = (
"262 364 CURVE",
"278 456 OFFCURVE",
"336 515 OFFCURVE",
"424 515 CURVE SMOOTH",
"513 515 OFFCURVE",
"551 452 OFFCURVE",
"534 354 CURVE",
"516 256 OFFCURVE",
"457 193 OFFCURVE",
"368 193 CURVE SMOOTH",
"281 193 OFFCURVE",
"244 260 OFFCURVE"
);
},
{
closed = 1;
nodes = (
"1047 532 LINE",
"1078 708 LINE",
"606 708 LINE",
"600 671 LINE",
"560 705 OFFCURVE",
"497 720 OFFCURVE",
"434 720 CURVE SMOOTH",
"217 720 OFFCURVE",
"67 577 OFFCURVE",
"31 374 CURVE",
"-9 148 OFFCURVE",
"112 -12 OFFCURVE",
"314 -12 CURVE SMOOTH",
"374 -9 OFFCURVE",
"438 4 OFFCURVE",
"488 37 CURVE",
"481 0 LINE",
"953 0 LINE",
"984 177 LINE",
"734 177 LINE",
"752 277 LINE",
"972 277 LINE",
"1001 444 LINE",
"781 444 LINE",
"797 532 LINE"
);
}
);
width = 1050;
}
);
unicode = 0152;
userData = {
com.typesupply.AccentFactory.yCoordinates = {
bottom = {
name = origin;
type = glyphMetric;
};
top = {
name = capHeight;
type = fontInfo;
};
};
};
},
{
glyphname = a;
lastChange = "2017-08-09 06:16:28 +0000";
layers = (
{
anchors = (
{
name = ogonek;
position = "{586, 0}";
},
{
name = top;
position = "{339, 540}";
}
);
layerId = "4C47FEBD-3B68-4176-B8ED-E26FA8D86AD9";
paths = (
{
closed = 1;
nodes = (
"60 270 CURVE",
"60 98 OFFCURVE",
"168 -7 OFFCURVE",
"323 -7 CURVE",
"451 -7 OFFCURVE",
"539 69 OFFCURVE",
"567 174 CURVE",
"567 0 LINE",
"586 0 LINE",
"586 540 LINE",
"567 540 LINE",
"567 366 LINE",
"539 471 OFFCURVE",
"451 547 OFFCURVE",
"323 547 CURVE",
"168 547 OFFCURVE",
"60 442 OFFCURVE"
);
},
{
closed = 1;
nodes = (
"567 270 CURVE",
"567 114 OFFCURVE",
"464 11 OFFCURVE",
"323 11 CURVE",
"175 11 OFFCURVE",
"80 109 OFFCURVE",
"80 270 CURVE",
"80 431 OFFCURVE",
"175 529 OFFCURVE",
"323 529 CURVE",
"464 529 OFFCURVE",
"567 426 OFFCURVE"
);
}
);
width = 671;
},
{
anchors = (
{
name = ogonek;
position = "{630, 0}";
},
{
name = top;
position = "{347, 564}";
}
);
layerId = "1A40E216-9158-4F5D-A2E9-8F4663F027D5";
paths = (
{
closed = 1;
nodes = (
"20 282 CURVE",
"20 100 OFFCURVE",
"123 -7 OFFCURVE",
"253 -7 CURVE",
"328 -7 OFFCURVE",
"382 26 OFFCURVE",
"409 77 CURVE",
"409 0 LINE",
"630 0 LINE",
"630 564 LINE",
"409 564 LINE",
"409 487 LINE",
"382 538 OFFCURVE",
"328 571 OFFCURVE",
"253 571 CURVE",
"123 571 OFFCURVE",
"20 464 OFFCURVE"
);
},
{
closed = 1;
nodes = (
"409 282 CURVE",
"409 220 OFFCURVE",
"373 187 OFFCURVE",
"327 187 CURVE",
"281 187 OFFCURVE",
"245 220 OFFCURVE",
"245 282 CURVE",
"245 344 OFFCURVE",
"281 377 OFFCURVE",
"327 377 CURVE",
"373 377 OFFCURVE",
"409 344 OFFCURVE"
);
}
);
width = 680;
},
{
anchors = (
{
name = ogonek;
position = "{538.392, 0}";
},
{
name = top;
position = "{386.608, 540}";
}
);
layerId = "F6847B4A-0A2E-406E-80B1-427EE12FE698";
paths = (
{
closed = 1;
nodes = (
"60 270 CURVE",
"29.672 98 OFFCURVE",
"119.157 -7 OFFCURVE",
"274.157 -7 CURVE",
"402.157 -7 OFFCURVE",
"503.558 69 OFFCURVE",
"550.073 174 CURVE",
"519.392 0 LINE",
"538.392 0 LINE",
"633.608 540 LINE",
"614.608 540 LINE",
"583.927 366 LINE",
"574.442 471 OFFCURVE",
"499.843 547 OFFCURVE",
"371.843 547 CURVE",
"216.843 547 OFFCURVE",
"90.328 442 OFFCURVE"
);
},
{
closed = 1;
nodes = (
"567 270 CURVE",
"539.493 114 OFFCURVE",
"418.331 11 OFFCURVE",
"277.331 11 CURVE",
"129.331 11 OFFCURVE",
"51.611 109 OFFCURVE",
"80 270 CURVE",
"108.389 431 OFFCURVE",
"220.669 529 OFFCURVE",
"368.669 529 CURVE",
"509.669 529 OFFCURVE",
"594.507 426 OFFCURVE"
);
}
);
width = 671;
},
{
anchors = (
{
name = ogonek;
position = "{583, 0}";
},
{
name = top;
position = "{400, 564}";
}
);
layerId = "248E82CE-81F2-4042-A23E-56D22FBFDD32";
paths = (
{
closed = 1;
nodes = (
"23 302 CURVE SMOOTH",
"-11 108 OFFCURVE",
"65 -7 OFFCURVE",
"205 -7 CURVE",
"280 -7 OFFCURVE",
"340 26 OFFCURVE",
"376 77 CURVE",
"362 0 LINE",
"583 0 LINE",
"683 564 LINE",
"462 564 LINE",
"448 487 LINE",
"430 538 OFFCURVE",
"377 571 OFFCURVE",
"297 571 CURVE",
"172 571 OFFCURVE",
"53 472 OFFCURVE"
);
},
{
closed = 1;
nodes = (
"412 282 CURVE",
"401 220 OFFCURVE",
"359 187 OFFCURVE",
"313 187 CURVE",
"267 187 OFFCURVE",
"237 220 OFFCURVE",
"248 282 CURVE",
"259 344 OFFCURVE",
"301 377 OFFCURVE",
"347 377 CURVE",
"393 377 OFFCURVE",
"423 344 OFFCURVE"
);
}
);
width = 683;
}
);
unicode = 0061;
userData = {
com.typemytype.robofont.guides = (
{
angle = 90;
isGlobal = 0;
magnetic = 5;
x = 306;
y = 501;
},
{
angle = 0;
isGlobal = 0;
magnetic = 5;
x = 88;
y = 270;
}
);
com.typesupply.AccentFactory.yCoordinates = {
bottom = {
name = origin;
type = glyphMetric;
};
top = {
name = xHeight;
type = fontInfo;
};
};
};
},
{
glyphname = b;
lastChange = "2017-08-09 06:16:28 +0000";
layers = (
{
layerId = "4C47FEBD-3B68-4176-B8ED-E26FA8D86AD9";
paths = (
{
closed = 1;
nodes = (
"104 366 CURVE",
"104 740 LINE",
"85 740 LINE",
"85 0 LINE",
"104 0 LINE",
"104 174 LINE",
"132 69 OFFCURVE",
"220 -7 OFFCURVE",
"348 -7 CURVE",
"503 -7 OFFCURVE",
"611 98 OFFCURVE",
"611 270 CURVE",
"611 442 OFFCURVE",
"503 547 OFFCURVE",
"348 547 CURVE",
"220 547 OFFCURVE",
"132 471 OFFCURVE"
);
},
{
closed = 1;
nodes = (
"591 270 CURVE",
"591 109 OFFCURVE",
"496 11 OFFCURVE",
"348 11 CURVE",
"207 11 OFFCURVE",
"104 114 OFFCURVE",
"104 270 CURVE",
"104 426 OFFCURVE",
"207 529 OFFCURVE",
"348 529 CURVE",
"496 529 OFFCURVE",
"591 431 OFFCURVE"
);
}
);
width = 671;
},
{
layerId = "1A40E216-9158-4F5D-A2E9-8F4663F027D5";
paths = (
{
closed = 1;
nodes = (
"272 487 CURVE",
"272 740 LINE",
"50 740 LINE",
"50 0 LINE",
"272 0 LINE",
"272 77 LINE",
"299 26 OFFCURVE",
"352 -7 OFFCURVE",
"427 -7 CURVE",
"557 -7 OFFCURVE",
"660 100 OFFCURVE",
"660 282 CURVE",
"660 464 OFFCURVE",
"557 571 OFFCURVE",
"427 571 CURVE",
"352 571 OFFCURVE",
"299 538 OFFCURVE"
);
},
{
closed = 1;
nodes = (
"435 282 CURVE",
"435 220 OFFCURVE",
"399 187 OFFCURVE",
"353 187 CURVE",
"307 187 OFFCURVE",
"271 220 OFFCURVE",
"271 282 CURVE",
"271 344 OFFCURVE",
"307 377 OFFCURVE",
"353 377 CURVE",
"399 377 OFFCURVE",
"435 344 OFFCURVE"
);
}
);
width = 680;
},
{
layerId = "F6847B4A-0A2E-406E-80B1-427EE12FE698";
paths = (
{
closed = 1;
nodes = (
"70.057 174 LINE",
"79.543 69 OFFCURVE",
"154.142 -7 OFFCURVE",
"282.142 -7 CURVE",
"437.142 -7 OFFCURVE",
"563.656 98 OFFCURVE",
"593.984 270 CURVE",
"624.313 442 OFFCURVE",
"534.827 547 OFFCURVE",
"379.827 547 CURVE",
"251.827 547 OFFCURVE",
"150.426 471 OFFCURVE",
"103.912 366 CURVE",
"169.858 740 LINE",
"150.858 740 LINE",
"20.376 0 LINE",
"39.376 0 LINE"
);
},
{
closed = 1;
nodes = (
"86.984 270 CURVE",
"114.491 426 OFFCURVE",
"235.653 529 OFFCURVE",
"376.653 529 CURVE",
"524.653 529 OFFCURVE",
"602.373 431 OFFCURVE",
"573.984 270 CURVE",
"545.596 109 OFFCURVE",
"433.316 11 OFFCURVE",
"285.316 11 CURVE",
"144.316 11 OFFCURVE",
"59.477 114 OFFCURVE"
);
}
);
width = 671;
},
{
layerId = "248E82CE-81F2-4042-A23E-56D22FBFDD32";
paths = (
{
closed = 1;
nodes = (
"236 77 LINE",
"254 26 OFFCURVE",
"301 -7 OFFCURVE",
"376 -7 CURVE",
"506 -7 OFFCURVE",
"628 100 OFFCURVE",
"660 282 CURVE",
"692 464 OFFCURVE",
"608 571 OFFCURVE",
"478 571 CURVE",
"403 571 OFFCURVE",
"344 538 OFFCURVE",
"308 487 CURVE",
"353 740 LINE",
"131 740 LINE",
"0 0 LINE",
"222 0 LINE"
);
},
{
closed = 1;
nodes = (
"271 282 CURVE",
"282 344 OFFCURVE",
"324 377 OFFCURVE",
"370 377 CURVE",
"416 377 OFFCURVE",
"446 344 OFFCURVE",
"435 282 CURVE",
"424 220 OFFCURVE",
"382 187 OFFCURVE",
"336 187 CURVE",
"290 187 OFFCURVE",
"260 220 OFFCURVE"
);
}
);
width = 682;
}
);
unicode = 0062;
userData = {
com.typemytype.robofont.layerData = {
b = {
anchors = (
);
components = (
);
contours = (
{
points = (
{
segmentType = curve;
smooth = 0;
x = 105;
y = 398;
},
{
segmentType = line;
smooth = 0;
x = 105;
y = 740;
},
{
segmentType = line;
smooth = 0;
x = 85;
y = 740;
},
{
segmentType = line;
smooth = 0;
x = 85;
y = 0;
},
{
segmentType = line;
smooth = 0;
x = 105;
y = 0;
},
{
segmentType = line;
smooth = 0;
x = 105;
y = 140;
},
{
smooth = 0;
x = 137;
y = 60;
},
{
smooth = 0;
x = 223;
y = -12;
},
{
segmentType = curve;
smooth = 1;
x = 342;
y = -12;
},
{
smooth = 0;
x = 498;
y = -12;
},
{
smooth = 0;
x = 611;
y = 108;
},
{
segmentType = curve;
smooth = 1;
x = 611;
y = 278;
},
{
smooth = 0;
x = 611;
y = 448;
},
{
smooth = 0;
x = 498;
y = 552;
},
{
segmentType = curve;
smooth = 1;
x = 342;
y = 552;
},
{
smooth = 0;
x = 223;
y = 552;
},
{
smooth = 0;
x = 138;
y = 480;
}
);
},
{
points = (
{
segmentType = curve;
smooth = 1;
x = 590;
y = 278;
},
{
smooth = 0;
x = 590;
y = 118;
},
{
smooth = 0;
x = 480;
y = 5;
},
{
segmentType = curve;
smooth = 1;
x = 347;
y = 5;
},
{
smooth = 0;
x = 215;
y = 5;
},
{
smooth = 0;
x = 105;
y = 110;
},
{
segmentType = curve;
smooth = 1;
x = 105;
y = 270;
},
{
smooth = 0;
x = 105;
y = 430;
},
{
smooth = 0;
x = 215;
y = 536;
},
{
segmentType = curve;
smooth = 1;
x = 347;
y = 536;
},
{
smooth = 0;
x = 480;
y = 536;
},
{
smooth = 0;
x = 590;
y = 438;
}
);
}
);
lib = {
};
name = b;
unicodes = (
);
width = 671;
};
};
com.typesupply.AccentFactory.yCoordinates = {
bottom = {
name = origin;
type = glyphMetric;
};
top = {
name = ascender;
type = fontInfo;
};
};
};
},
{
glyphname = c;
lastChange = "2017-08-09 06:16:28 +0000";
layers = (
{
anchors = (
{
name = bottom;
position = "{317, 0}";
},
{
name = top;
position = "{317, 540}";
}
);
layerId = "4C47FEBD-3B68-4176-B8ED-E26FA8D86AD9";
paths = (
{
closed = 1;
nodes = (
"60 270 CURVE",
"60 96 OFFCURVE",
"170 -7 OFFCURVE",
"320 -7 CURVE SMOOTH",
"460 -7 OFFCURVE",
"550 72 OFFCURVE",
"568 183 CURVE",
"548 183 LINE",
"531 76 OFFCURVE",
"440 11 OFFCURVE",
"320 11 CURVE SMOOTH",
"196 11 OFFCURVE",
"80 91 OFFCURVE",
"80 270 CURVE",
"80 449 OFFCURVE",
"196 529 OFFCURVE",
"320 529 CURVE SMOOTH",
"440 529 OFFCURVE",
"531 464 OFFCURVE",
"548 357 CURVE",
"568 357 LINE",
"550 468 OFFCURVE",
"460 547 OFFCURVE",
"320 547 CURVE SMOOTH",
"170 547 OFFCURVE",
"60 444 OFFCURVE"
);
}
);
width = 628;
},
{
anchors = (
{
name = bottom;
position = "{299, 0}";
},
{
name = top;
position = "{299, 564}";
}
);
layerId = "1A40E216-9158-4F5D-A2E9-8F4663F027D5";
paths = (
{
closed = 1;
nodes = (
"20 282 CURVE",
"20 102 OFFCURVE",
"139 -7 OFFCURVE",
"308 -7 CURVE SMOOTH",
"453 -7 OFFCURVE",
"562 79 OFFCURVE",
"589 227 CURVE",
"354 227 LINE",
"346 200 OFFCURVE",
"331 183 OFFCURVE",
"303 183 CURVE SMOOTH",
"269 183 OFFCURVE",
"245 214 OFFCURVE",
"245 282 CURVE",
"245 350 OFFCURVE",
"269 381 OFFCURVE",
"303 381 CURVE SMOOTH",
"331 381 OFFCURVE",
"346 364 OFFCURVE",
"354 337 CURVE",
"589 337 LINE",
"562 485 OFFCURVE",
"453 571 OFFCURVE",
"308 571 CURVE SMOOTH",
"139 571 OFFCURVE",
"20 462 OFFCURVE"
);
}
);
width = 609;
},
{
anchors = (
{
name = bottom;
position = "{269.392, 0}";
},
{
name = top;
position = "{364.608, 540}";
}
);
layerId = "F6847B4A-0A2E-406E-80B1-427EE12FE698";
paths = (
{
closed = 1;
nodes = (
"60 270 CURVE",
"29.319 96 OFFCURVE",
"121.157 -7 OFFCURVE",
"271.157 -7 CURVE SMOOTH",
"411.157 -7 OFFCURVE",
"515.087 72 OFFCURVE",
"552.66 183 CURVE",
"532.66 183 LINE",
"496.793 76 OFFCURVE",
"394.331 11 OFFCURVE",
"274.331 11 CURVE SMOOTH",
"150.331 11 OFFCURVE",
"48.437 91 OFFCURVE",
"80 270 CURVE",
"111.563 449 OFFCURVE",
"241.669 529 OFFCURVE",
"365.669 529 CURVE SMOOTH",
"485.669 529 OFFCURVE",
"565.207 464 OFFCURVE",
"563.34 357 CURVE",
"583.34 357 LINE",
"584.913 468 OFFCURVE",
"508.843 547 OFFCURVE",
"368.843 547 CURVE SMOOTH",
"218.843 547 OFFCURVE",
"90.681 444 OFFCURVE"
);
}
);
width = 628;
},
{
anchors = (
{
name = bottom;
position = "{240, 0}";
},
{
name = top;
position = "{339, 564}";
}
);
layerId = "248E82CE-81F2-4042-A23E-56D22FBFDD32";
paths = (
{
closed = 1;
nodes = (
"22 302 CURVE",
"-12 110 OFFCURVE",
"90 -7 OFFCURVE",
"259 -7 CURVE SMOOTH",
"404 -7 OFFCURVE",
"528 79 OFFCURVE",
"581 227 CURVE",
"346 227 LINE",
"334 200 OFFCURVE",
"316 183 OFFCURVE",
"288 183 CURVE SMOOTH",
"254 183 OFFCURVE",
"235 214 OFFCURVE",
"247 282 CURVE",
"259 350 OFFCURVE",
"288 381 OFFCURVE",
"322 381 CURVE SMOOTH",
"350 381 OFFCURVE",
"362 364 OFFCURVE",
"366 337 CURVE",
"601 337 LINE",
"600 485 OFFCURVE",
"502 571 OFFCURVE",
"351 571 CURVE SMOOTH",
"187 571 OFFCURVE",
"52 470 OFFCURVE"
);
}
);
width = 616;
}
);
unicode = 0063;
userData = {
com.typemytype.robofont.guides = (
{
angle = 90;
isGlobal = 0;
magnetic = 5;
x = 287;
y = 532;
}
);
com.typesupply.AccentFactory.yCoordinates = {
bottom = {
name = origin;
type = glyphMetric;
};
top = {
name = xHeight;
type = fontInfo;
};
};
};
},
{
glyphname = d;
lastChange = "2017-08-09 06:16:28 +0000";
layers = (
{
anchors = (
{
name = topright;
position = "{554, 740}";
}
);
layerId = "4C47FEBD-3B68-4176-B8ED-E26FA8D86AD9";
paths = (
{
closed = 1;
nodes = (
"60 270 CURVE",
"60 98 OFFCURVE",
"168 -7 OFFCURVE",
"323 -7 CURVE",
"451 -7 OFFCURVE",
"539 69 OFFCURVE",
"567 174 CURVE",
"567 0 LINE",
"586 0 LINE",
"586 740 LINE",
"567 740 LINE",
"567 366 LINE",
"539 471 OFFCURVE",
"451 547 OFFCURVE",
"323 547 CURVE",
"168 547 OFFCURVE",
"60 442 OFFCURVE"
);
},
{
closed = 1;
nodes = (
"567 270 CURVE",
"567 114 OFFCURVE",
"464 11 OFFCURVE",
"323 11 CURVE",
"175 11 OFFCURVE",
"80 109 OFFCURVE",
"80 270 CURVE",
"80 431 OFFCURVE",
"175 529 OFFCURVE",
"323 529 CURVE",
"464 529 OFFCURVE",
"567 426 OFFCURVE"
);
}
);
width = 671;
},
{
anchors = (
{
name = topright;
position = "{630, 740}";
}
);
layerId = "1A40E216-9158-4F5D-A2E9-8F4663F027D5";
paths = (
{
closed = 1;
nodes = (
"20 282 CURVE",
"20 100 OFFCURVE",
"123 -7 OFFCURVE",
"253 -7 CURVE",
"328 -7 OFFCURVE",
"381 26 OFFCURVE",
"408 77 CURVE",
"408 0 LINE",
"630 0 LINE",
"630 740 LINE",
"408 740 LINE",
"408 487 LINE",
"381 538 OFFCURVE",
"328 571 OFFCURVE",
"253 571 CURVE",
"123 571 OFFCURVE",
"20 464 OFFCURVE"
);
},
{
closed = 1;
nodes = (
"409 282 CURVE",
"409 220 OFFCURVE",
"373 187 OFFCURVE",
"327 187 CURVE",
"281 187 OFFCURVE",
"245 220 OFFCURVE",
"245 282 CURVE",
"245 344 OFFCURVE",
"281 377 OFFCURVE",
"327 377 CURVE",
"373 377 OFFCURVE",
"409 344 OFFCURVE"
);
}
);
width = 680;
},
{
anchors = (
{
name = topright;
position = "{619.858, 740}";
}
);
layerId = "F6847B4A-0A2E-406E-80B1-427EE12FE698";
paths = (
{
closed = 1;
nodes = (
"566.912 366 LINE",
"557.426 471 OFFCURVE",
"482.827 547 OFFCURVE",
"354.827 547 CURVE",
"199.827 547 OFFCURVE",
"73.313 442 OFFCURVE",
"42.984 270 CURVE",
"12.656 98 OFFCURVE",
"102.142 -7 OFFCURVE",
"257.142 -7 CURVE",
"385.142 -7 OFFCURVE",
"486.543 69 OFFCURVE",
"533.057 174 CURVE",
"502.376 0 LINE",
"521.376 0 LINE",
"651.858 740 LINE",
"632.858 740 LINE"
);
},
{
closed = 1;
nodes = (
"549.984 270 CURVE",
"522.477 114 OFFCURVE",
"401.316 11 OFFCURVE",
"260.316 11 CURVE",
"112.316 11 OFFCURVE",
"34.596 109 OFFCURVE",
"62.984 270 CURVE",
"91.373 431 OFFCURVE",
"203.653 529 OFFCURVE",
"351.653 529 CURVE",
"492.653 529 OFFCURVE",
"577.491 426 OFFCURVE"
);
}
);
width = 671;
},
{
anchors = (
{
name = topright;
position = "{693, 740}";
}
);
layerId = "248E82CE-81F2-4042-A23E-56D22FBFDD32";
paths = (
{
closed = 1;
nodes = (
"446 487 LINE",
"428 538 OFFCURVE",
"376 571 OFFCURVE",
"296 571 CURVE",
"171 571 OFFCURVE",
"52 472 OFFCURVE",
"22 302 CURVE",
"-12 108 OFFCURVE",
"74 -7 OFFCURVE",
"204 -7 CURVE",
"279 -7 OFFCURVE",
"338 26 OFFCURVE",
"374 77 CURVE",
"360 0 LINE",
"582 0 LINE",
"713 740 LINE",
"491 740 LINE"
);
},
{
closed = 1;
nodes = (
"411 282 CURVE",
"400 220 OFFCURVE",
"358 187 OFFCURVE",
"312 187 CURVE",
"266 187 OFFCURVE",
"236 220 OFFCURVE",
"247 282 CURVE",
"258 344 OFFCURVE",
"300 377 OFFCURVE",
"346 377 CURVE",
"392 377 OFFCURVE",
"422 344 OFFCURVE"
);
}
);
width = 676;
}
);
unicode = 0064;
userData = {
com.typesupply.AccentFactory.yCoordinates = {
bottom = {
name = origin;
type = glyphMetric;
};
top = {
name = ascender;
type = fontInfo;
};
};
};
},
{
glyphname = dcaron;
lastChange = "2017-08-09 06:16:28 +0000";
layers = (
{
components = (
{
name = d;
}
);
layerId = "4C47FEBD-3B68-4176-B8ED-E26FA8D86AD9";
paths = (
{
closed = 1;
nodes = (
"642 740 LINE",
"642 687 LINE",
"680 687 LINE",
"680 658 LINE SMOOTH",
"680 629 OFFCURVE",
"670 613 OFFCURVE",
"635 613 CURVE",
"635 593 LINE",
"675 593 OFFCURVE",
"702 608 OFFCURVE",
"702 671 CURVE SMOOTH",
"702 689 OFFCURVE",
"701 711 OFFCURVE",
"698 740 CURVE"
);
}
);
width = 671;
},
{
anchors = (
{
name = _bottom;
position = "{770, 775}";
}
);
components = (
{
name = d;
}
);
layerId = "1A40E216-9158-4F5D-A2E9-8F4663F027D5";
paths = (
{
closed = 1;
nodes = (
"690 740 LINE",
"690 594 LINE",
"762 594 LINE",
"762 582 LINE SMOOTH",
"762 531 OFFCURVE",
"742 508 OFFCURVE",
"707 508 CURVE",
"707 429 LINE",
"821 429 OFFCURVE",
"872 509 OFFCURVE",
"872 606 CURVE SMOOTH",
"872 648 OFFCURVE",
"864 694 OFFCURVE",
"846 740 CURVE"
);
}
);
width = 882;
},
{
components = (
{
name = d;
transform = "{1, 0, 0, 1, -0.624, 0}";
}
);
layerId = "F6847B4A-0A2E-406E-80B1-427EE12FE698";
paths = (
{
closed = 1;
nodes = (
"712 740 LINE",
"703 687 LINE",
"741 687 LINE",
"735 658 LINE SMOOTH",
"730 629 OFFCURVE",
"717 613 OFFCURVE",
"682 613 CURVE",
"679 593 LINE",
"719 593 OFFCURVE",
"749 608 OFFCURVE",
"760 671 CURVE SMOOTH",
"763 689 OFFCURVE",
"766 711 OFFCURVE",
"768 740 CURVE"
);
}
);
width = 671;
},
{
anchors = (
{
name = _bottom;
position = "{817, 775}";
}
);
components = (
{
name = d;
transform = "{1, 0, 0, 1, 10, 0}";
}
);
layerId = "248E82CE-81F2-4042-A23E-56D22FBFDD32";
paths = (
{
closed = 1;
nodes = (
"741 740 LINE",
"715 594 LINE",
"787 594 LINE",
"785 582 LINE SMOOTH",
"776 531 OFFCURVE",
"752 508 OFFCURVE",
"717 508 CURVE",
"703 429 LINE",
"817 429 OFFCURVE",
"882 509 OFFCURVE",
"899 606 CURVE SMOOTH",
"906 648 OFFCURVE",
"906 694 OFFCURVE",
"897 740 CURVE"
);
}
);
width = 856;
}
);
unicode = 010F;
userData = {
com.typesupply.AccentFactory.compileType = manual;
};
},
{
glyphname = e;
lastChange = "2017-08-09 06:16:28 +0000";
layers = (
{
anchors = (
{
name = bottom;
position = "{314, 0}";
},
{
name = ogonek;
position = "{442, 45}";
},
{
name = top;
position = "{314, 540}";
}
);
layerId = "4C47FEBD-3B68-4176-B8ED-E26FA8D86AD9";
paths = (
{
closed = 1;
nodes = (
"70 261 LINE",
"564 261 LINE",
"567 279 OFFCURVE",
"568 289 OFFCURVE",
"568 315 CURVE SMOOTH",
"568 428 OFFCURVE",
"485 547 OFFCURVE",
"320 547 CURVE SMOOTH",
"170 547 OFFCURVE",
"60 444 OFFCURVE",
"60 270 CURVE",
"60 96 OFFCURVE",
"170 -7 OFFCURVE",
"320 -7 CURVE SMOOTH",
"460 -7 OFFCURVE",
"550 72 OFFCURVE",
"568 183 CURVE",
"548 183 LINE",
"531 76 OFFCURVE",
"440 11 OFFCURVE",
"320 11 CURVE SMOOTH",
"197 11 OFFCURVE",
"80 90 OFFCURVE",
"80 267 CURVE SMOOTH",
"80 275 LINE SMOOTH",
"80 451 OFFCURVE",
"197 529 OFFCURVE",
"320 529 CURVE SMOOTH",
"440 529 OFFCURVE",
"560 453 OFFCURVE",
"550 279 CURVE",
"70 279 LINE"
);
}
);
width = 628;
},
{
anchors = (
{
name = bottom;
position = "{322, 0}";
},
{
name = ogonek;
position = "{536, 89}";
},
{
name = top;
position = "{322, 564}";
}
);
layerId = "1A40E216-9158-4F5D-A2E9-8F4663F027D5";
paths = (
{
closed = 1;
nodes = (
"216 243 LINE",
"591 243 LINE",
"594 257 OFFCURVE",
"596 273 OFFCURVE",
"596 287 CURVE",
"596 464 OFFCURVE",
"477 571 OFFCURVE",
"308 571 CURVE",
"139 571 OFFCURVE",
"20 462 OFFCURVE",
"20 282 CURVE",
"20 102 OFFCURVE",
"139 -7 OFFCURVE",
"308 -7 CURVE SMOOTH",
"450 -7 OFFCURVE",
"560 83 OFFCURVE",
"584 203 CURVE",
"349 203 LINE",
"341 186 OFFCURVE",
"326 170 OFFCURVE",
"297 170 CURVE SMOOTH",
"264 170 OFFCURVE",
"236 185 OFFCURVE",
"236 258 CURVE SMOOTH",
"236 311 LINE SMOOTH",
"236 370 OFFCURVE",
"263 397 OFFCURVE",
"308 397 CURVE",
"341 397 OFFCURVE",
"371 379 OFFCURVE",
"371 334 CURVE",
"216 334 LINE"
);
}
);
width = 616;
},
{
anchors = (
{
name = bottom;
position = "{266.392, 0}";
},
{
name = ogonek;
position = "{402.326, 45}";
},
{
name = top;
position = "{361.608, 540}";
}
);
layerId = "F6847B4A-0A2E-406E-80B1-427EE12FE698";
paths = (
{
closed = 1;
nodes = (
"68.413 261 LINE",
"562.413 261 LINE",
"568.587 279 OFFCURVE",
"571.35 289 OFFCURVE",
"575.935 315 CURVE SMOOTH",
"595.86 428 OFFCURVE",
"533.843 547 OFFCURVE",
"368.843 547 CURVE SMOOTH",
"218.843 547 OFFCURVE",
"90.681 444 OFFCURVE",
"60 270 CURVE",
"29.319 96 OFFCURVE",
"121.157 -7 OFFCURVE",
"271.157 -7 CURVE SMOOTH",
"411.157 -7 OFFCURVE",
"515.087 72 OFFCURVE",
"552.66 183 CURVE",
"532.66 183 LINE",
"496.793 76 OFFCURVE",
"394.331 11 OFFCURVE",
"274.331 11 CURVE SMOOTH",
"151.331 11 OFFCURVE",
"48.261 90 OFFCURVE",
"79.471 267 CURVE SMOOTH",
"80.882 275 LINE SMOOTH",
"111.915 451 OFFCURVE",
"242.669 529 OFFCURVE",
"365.669 529 CURVE SMOOTH",
"485.669 529 OFFCURVE",
"592.268 453 OFFCURVE",
"551.587 279 CURVE",
"71.587 279 LINE"
);
}
);
width = 628;
},
{
anchors = (
{
name = bottom;
position = "{271, 0}";
},
{
name = ogonek;
position = "{501, 89}";
},
{
name = top;
position = "{371, 564}";
}
);
layerId = "248E82CE-81F2-4042-A23E-56D22FBFDD32";
paths = (
{
closed = 1;
nodes = (
"208 243 LINE",
"583 243 LINE",
"589 257 OFFCURVE",
"593 273 OFFCURVE",
"596 287 CURVE",
"627 464 OFFCURVE",
"527 571 OFFCURVE",
"358 571 CURVE",
"190 571 OFFCURVE",
"52 466 OFFCURVE",
"21 293 CURVE",
"-12 106 OFFCURVE",
"88 -7 OFFCURVE",
"256 -7 CURVE SMOOTH",
"408 -7 OFFCURVE",
"524 83 OFFCURVE",
"569 203 CURVE",
"334 203 LINE",
"323 186 OFFCURVE",
"305 170 OFFCURVE",
"276 170 CURVE SMOOTH",
"243 170 OFFCURVE",
"218 185 OFFCURVE",
"231 258 CURVE SMOOTH",
"240 311 LINE SMOOTH",
"251 370 OFFCURVE",
"282 397 OFFCURVE",
"327 397 CURVE",
"360 397 OFFCURVE",
"387 379 OFFCURVE",
"379 334 CURVE",
"224 334 LINE"
);
}
);
width = 617;
}
);
unicode = 0065;
userData = {
com.typemytype.robofont.layerData = {
b = {
anchors = (
{
name = top;
x = 314;
y = 540;
},
{
name = ogonek;
x = 442;
y = 45;
},
{
name = bottom;
x = 314;
y = 0;
}
);
components = (
);
contours = (
{
points = (
{
segmentType = line;
smooth = 0;
x = 54;
y = 261;
},
{
segmentType = line;
smooth = 0;
x = 564;
y = 261;
},
{
smooth = 0;
x = 567;
y = 280;
},
{
smooth = 0;
x = 568;
y = 298;
},
{
segmentType = curve;
smooth = 1;
x = 568;
y = 315;
},
{
smooth = 0;
x = 568;
y = 434;
},
{
smooth = 0;
x = 482;
y = 552;
},
{
segmentType = curve;
smooth = 1;
x = 330;
y = 552;
},
{
smooth = 0;
x = 164;
y = 552;
},
{
smooth = 0;
x = 60;
y = 438;
},
{
segmentType = curve;
smooth = 1;
x = 60;
y = 270;
},
{
smooth = 0;
x = 60;
y = 103;
},
{
smooth = 0;
x = 164;
y = -12;
},
{
segmentType = curve;
smooth = 1;
x = 316;
y = -12;
},
{
smooth = 0;
x = 451;
y = -12;
},
{
smooth = 0;
x = 516;
y = 66;
},
{
segmentType = curve;
smooth = 0;
x = 548;
y = 137;
},
{
segmentType = line;
smooth = 0;
x = 528;
y = 137;
},
{
smooth = 0;
x = 505;
y = 60;
},
{
smooth = 0;
x = 424;
y = -1;
},
{
segmentType = curve;
smooth = 1;
x = 316;
y = -1;
},
{
smooth = 0;
x = 186;
y = -1;
},
{
smooth = 0;
x = 81;
y = 93;
},
{
segmentType = curve;
smooth = 1;
x = 81;
y = 269;
},
{
segmentType = line;
smooth = 1;
x = 81;
y = 274;
},
{
smooth = 0;
x = 81;
y = 447;
},
{
smooth = 0;
x = 183;
y = 541;
},
{
segmentType = curve;
smooth = 1;
x = 316;
y = 541;
},
{
smooth = 0;
x = 448;
y = 541;
},
{
smooth = 0;
x = 551;
y = 448;
},
{
segmentType = curve;
smooth = 0;
x = 549;
y = 290;
},
{
segmentType = line;
smooth = 0;
x = 53;
y = 290;
}
);
}
);
lib = {
};
name = e;
unicodes = (
);
width = 628;
};
};
com.typesupply.AccentFactory.yCoordinates = {
bottom = {
name = origin;
type = glyphMetric;
};
top = {
name = xHeight;
type = fontInfo;
};
};
};
},
{
glyphname = eogonek;
lastChange = "2017-08-09 06:16:28 +0000";
layers = (
{
layerId = "4C47FEBD-3B68-4176-B8ED-E26FA8D86AD9";
paths = (
{
closed = 1;
nodes = (
"60 270 CURVE",
"60 99 OFFCURVE",
"166 -3 OFFCURVE",
"312 -7 CURVE",
"312 -22 LINE",
"312 -75 OFFCURVE",
"350 -117 OFFCURVE",
"427 -117 CURVE",
"495 -117 LINE",
"495 -97 LINE",
"427 -97 LINE SMOOTH",
"368 -97 OFFCURVE",
"332 -69 OFFCURVE",
"332 -32 CURVE",
"332 -16 OFFCURVE",
"337 -7 OFFCURVE",
"356 -5 CURVE SMOOTH",
"474 7 OFFCURVE",
"552 82 OFFCURVE",
"568 183 CURVE",
"548 183 LINE",
"531 76 OFFCURVE",
"440 11 OFFCURVE",
"320 11 CURVE SMOOTH",
"197 11 OFFCURVE",
"80 90 OFFCURVE",
"80 267 CURVE SMOOTH",
"80 275 LINE SMOOTH",
"80 451 OFFCURVE",
"197 529 OFFCURVE",
"320 529 CURVE SMOOTH",
"440 529 OFFCURVE",
"560 453 OFFCURVE",
"550 279 CURVE",
"70 279 LINE",
"70 261 LINE",
"564 261 LINE",
"567 279 OFFCURVE",
"568 289 OFFCURVE",
"568 315 CURVE SMOOTH",
"568 428 OFFCURVE",
"485 547 OFFCURVE",
"320 547 CURVE SMOOTH",
"170 547 OFFCURVE",
"60 444 OFFCURVE"
);
}
);
width = 628;
},
{
layerId = "1A40E216-9158-4F5D-A2E9-8F4663F027D5";
paths = (
{
closed = 1;
nodes = (
"20 282 CURVE",
"20 135 OFFCURVE",
"99 36 OFFCURVE",
"220 4 CURVE",
"220 -27 LINE",
"220 -122 OFFCURVE",
"303 -149 OFFCURVE",
"370 -149 CURVE",
"528 -149 LINE",
"528 -36 LINE",
"403 -36 LINE",
"377 -36 OFFCURVE",
"367 -29 OFFCURVE",
"367 -17 CURVE",
"367 -5 OFFCURVE",
"376 0 OFFCURVE",
"388 3 CURVE SMOOTH",
"491 29 OFFCURVE",
"564 107 OFFCURVE",
"584 203 CURVE",
"349 203 LINE",
"341 186 OFFCURVE",
"327 170 OFFCURVE",
"298 170 CURVE SMOOTH",
"268 170 OFFCURVE",
"236 188 OFFCURVE",
"236 258 CURVE SMOOTH",
"236 311 LINE SMOOTH",
"236 370 OFFCURVE",
"263 397 OFFCURVE",
"308 397 CURVE",
"341 397 OFFCURVE",
"371 379 OFFCURVE",
"371 334 CURVE",
"216 334 LINE",
"216 243 LINE",
"591 243 LINE",
"594 257 OFFCURVE",
"596 273 OFFCURVE",
"596 287 CURVE",
"596 464 OFFCURVE",
"477 571 OFFCURVE",
"308 571 CURVE",
"139 571 OFFCURVE",
"20 462 OFFCURVE"
);
}
);
width = 616;
},
{
layerId = "F6847B4A-0A2E-406E-80B1-427EE12FE698";
paths = (
{
closed = 1;
nodes = (
"69.698 270 CURVE",
"39.546 99 OFFCURVE",
"127.561 -3 OFFCURVE",
"272.855 -7 CURVE",
"270.211 -22 LINE",
"260.865 -75 OFFCURVE",
"291.459 -117 OFFCURVE",
"368.459 -117 CURVE",
"436.459 -117 LINE",
"439.986 -97 LINE",
"371.986 -97 LINE SMOOTH",
"312.986 -97 OFFCURVE",
"281.923 -69 OFFCURVE",
"288.447 -32 CURVE",
"291.268 -16 OFFCURVE",
"297.855 -7 OFFCURVE",
"317.208 -5 CURVE SMOOTH",
"437.324 7 OFFCURVE",
"528.549 82 OFFCURVE",
"562.358 183 CURVE",
"542.358 183 LINE",
"506.491 76 OFFCURVE",
"404.029 11 OFFCURVE",
"284.029 11 CURVE SMOOTH",
"161.029 11 OFFCURVE",
"57.959 90 OFFCURVE",
"89.169 267 CURVE SMOOTH",
"90.58 275 LINE SMOOTH",
"121.613 451 OFFCURVE",
"252.367 529 OFFCURVE",
"375.367 529 CURVE SMOOTH",
"495.367 529 OFFCURVE",
"601.966 453 OFFCURVE",
"561.285 279 CURVE",
"81.285 279 LINE",
"78.111 261 LINE",
"572.111 261 LINE",
"578.285 279 OFFCURVE",
"581.048 289 OFFCURVE",
"585.633 315 CURVE SMOOTH",
"605.558 428 OFFCURVE",
"543.541 547 OFFCURVE",
"378.541 547 CURVE SMOOTH",
"228.541 547 OFFCURVE",
"100.379 444 OFFCURVE"
);
}
);
width = 628;
},
{
layerId = "248E82CE-81F2-4042-A23E-56D22FBFDD32";
paths = (
{
closed = 1;
nodes = (
"33 282 CURVE",
"7 135 OFFCURVE",
"68 36 OFFCURVE",
"184 4 CURVE",
"178 -27 LINE",
"161 -122 OFFCURVE",
"240 -149 OFFCURVE",
"307 -149 CURVE",
"465 -149 LINE",
"484 -36 LINE",
"359 -36 LINE",
"333 -36 OFFCURVE",
"325 -29 OFFCURVE",
"327 -17 CURVE",
"329 -5 OFFCURVE",
"339 0 OFFCURVE",
"351 3 CURVE SMOOTH",
"459 29 OFFCURVE",
"546 107 OFFCURVE",
"583 203 CURVE",
"348 203 LINE",
"337 186 OFFCURVE",
"320 170 OFFCURVE",
"291 170 CURVE SMOOTH",
"261 170 OFFCURVE",
"232 188 OFFCURVE",
"244 258 CURVE SMOOTH",
"254 311 LINE SMOOTH",
"264 370 OFFCURVE",
"296 397 OFFCURVE",
"341 397 CURVE",
"374 397 OFFCURVE",
"401 379 OFFCURVE",
"393 334 CURVE",
"238 334 LINE",
"222 243 LINE",
"597 243 LINE",
"602 257 OFFCURVE",
"607 273 OFFCURVE",
"609 287 CURVE",
"641 464 OFFCURVE",
"540 571 OFFCURVE",
"371 571 CURVE",
"202 571 OFFCURVE",
"64 462 OFFCURVE"
);
}
);
width = 616;
}
);
unicode = 0119;
},
{
glyphname = f;
lastChange = "2017-08-09 06:16:28 +0000";
layers = (
{
layerId = "4C47FEBD-3B68-4176-B8ED-E26FA8D86AD9";
paths = (
{
closed = 1;
nodes = (
"108 0 LINE",
"128 0 LINE",
"128 578 LINE SMOOTH",
"128 675 OFFCURVE",
"164 720 OFFCURVE",
"283 720 CURVE",
"283 740 LINE",
"152 740 OFFCURVE",
"108 683 OFFCURVE",
"108 578 CURVE SMOOTH"
);
},
{
closed = 1;
nodes = (
"20 519 LINE",
"283 519 LINE",
"283 540 LINE",
"20 540 LINE"
);
}
);
width = 318;
},
{
layerId = "1A40E216-9158-4F5D-A2E9-8F4663F027D5";
paths = (
{
closed = 1;
nodes = (
"70 0 LINE",
"292 0 LINE",
"292 539 LINE SMOOTH",
"292 595 OFFCURVE",
"314 611 OFFCURVE",
"375 604 CURVE",
"375 793 LINE",
"182 810 OFFCURVE",
"70 722 OFFCURVE",
"70 559 CURVE SMOOTH"
);
},
{
closed = 1;
nodes = (
"10 379 LINE",
"375 379 LINE",
"375 564 LINE",
"10 564 LINE"
);
}
);
width = 385;
},
{
layerId = "F6847B4A-0A2E-406E-80B1-427EE12FE698";
paths = (
{
closed = 1;
nodes = (
"42.759 0 LINE",
"62.759 0 LINE",
"164.676 578 LINE SMOOTH",
"181.78 675 OFFCURVE",
"225.714 720 OFFCURVE",
"344.714 720 CURVE",
"348.241 740 LINE",
"217.241 740 OFFCURVE",
"163.19 683 OFFCURVE",
"144.676 578 CURVE SMOOTH"
);
},
{
closed = 1;
nodes = (
"46.273 519 LINE",
"309.273 519 LINE",
"312.976 540 LINE",
"49.976 540 LINE"
);
}
);
width = 318;
},
{
layerId = "248E82CE-81F2-4042-A23E-56D22FBFDD32";
paths = (
{
closed = 1;
nodes = (
"0 0 LINE",
"222 0 LINE",
"317 539 LINE SMOOTH",
"327 595 OFFCURVE",
"352 611 OFFCURVE",
"411 604 CURVE",
"445 793 LINE",
"255 810 OFFCURVE",
"127 722 OFFCURVE",
"98 559 CURVE SMOOTH"
);
},
{
closed = 1;
nodes = (
"7 379 LINE",
"372 379 LINE",
"404 564 LINE",
"39 564 LINE"
);
}
);
width = 385;
}
);
unicode = 0066;
userData = {
com.typemytype.robofont.layerData = {
b = {
anchors = (
);
components = (
);
contours = (
{
points = (
{
segmentType = line;
smooth = 0;
x = 108;
y = 0;
},
{
segmentType = line;
smooth = 0;
x = 128;
y = 0;
},
{
segmentType = line;
smooth = 1;
x = 128;
y = 609;
},
{
smooth = 0;
x = 128;
y = 701;
},
{
smooth = 0;
x = 162;
y = 742;
},
{
segmentType = curve;
smooth = 0;
x = 275;
y = 742;
},
{
segmentType = line;
smooth = 0;
x = 275;
y = 753;
},
{
smooth = 0;
x = 158;
y = 753;
},
{
smooth = 0;
x = 108;
y = 711;
},
{
segmentType = curve;
smooth = 1;
x = 108;
y = 609;
}
);
}
);
lib = {
};
name = f;
unicodes = (
);
width = 318;
};
};
com.typesupply.AccentFactory.yCoordinates = {
bottom = {
name = origin;
type = glyphMetric;
};
top = {
name = ascender;
type = fontInfo;
};
};
};
},
{
glyphname = g;
lastChange = "2017-08-09 06:16:28 +0000";
layers = (
{
anchors = (
{
name = top;
position = "{339, 540}";
}
);
layerId = "4C47FEBD-3B68-4176-B8ED-E26FA8D86AD9";
paths = (
{
closed = 1;
nodes = (
"567 270 CURVE",
"567 114 OFFCURVE",
"464 11 OFFCURVE",
"323 11 CURVE",
"175 11 OFFCURVE",
"80 109 OFFCURVE",
"80 270 CURVE",
"80 431 OFFCURVE",
"175 529 OFFCURVE",
"323 529 CURVE",
"464 529 OFFCURVE",
"567 426 OFFCURVE"
);
},
{
closed = 1;
nodes = (
"60 270 CURVE",
"60 98 OFFCURVE",
"168 -7 OFFCURVE",
"323 -7 CURVE",
"451 -7 OFFCURVE",
"539 69 OFFCURVE",
"567 174 CURVE",
"567 -20 LINE",
"567 -159 OFFCURVE",
"470 -246 OFFCURVE",
"347 -246 CURVE SMOOTH",
"222 -246 OFFCURVE",
"145 -181 OFFCURVE",
"116 -88 CURVE",
"96 -88 LINE",
"127 -192 OFFCURVE",
"213 -264 OFFCURVE",
"347 -264 CURVE SMOOTH",
"472 -264 OFFCURVE",
"586 -176 OFFCURVE",
"586 -20 CURVE",
"586 540 LINE",
"567 540 LINE",
"567 366 LINE",
"539 471 OFFCURVE",
"451 547 OFFCURVE",
"323 547 CURVE",
"168 547 OFFCURVE",
"60 442 OFFCURVE"
);
}
);
width = 671;
},
{
anchors = (
{
name = top;
position = "{347, 564}";
}
);
layerId = "1A40E216-9158-4F5D-A2E9-8F4663F027D5";
paths = (
{
closed = 1;
nodes = (
"409 282 CURVE",
"409 220 OFFCURVE",
"373 187 OFFCURVE",
"327 187 CURVE",
"281 187 OFFCURVE",
"245 220 OFFCURVE",
"245 282 CURVE",
"245 344 OFFCURVE",
"281 377 OFFCURVE",
"327 377 CURVE",
"373 377 OFFCURVE",
"409 344 OFFCURVE"
);
},
{
closed = 1;
nodes = (
"20 282 CURVE",
"20 100 OFFCURVE",
"123 -7 OFFCURVE",
"253 -7 CURVE",
"328 -7 OFFCURVE",
"382 26 OFFCURVE",
"409 77 CURVE",
"409 10 LINE",
"409 -69 OFFCURVE",
"371 -85 OFFCURVE",
"326 -85 CURVE SMOOTH",
"285 -85 OFFCURVE",
"260 -70 OFFCURVE",
"254 -41 CURVE",
"36 -41 LINE",
"51 -184 OFFCURVE",
"158 -277 OFFCURVE",
"342 -277 CURVE SMOOTH",
"553 -277 OFFCURVE",
"630 -139 OFFCURVE",
"630 10 CURVE",
"630 564 LINE",
"409 564 LINE",
"409 487 LINE",
"382 538 OFFCURVE",
"328 571 OFFCURVE",
"253 571 CURVE",
"123 571 OFFCURVE",
"20 464 OFFCURVE"
);
}
);
width = 680;
},
{
anchors = (
{
name = top;
position = "{409.178, 540}";
}
);
layerId = "F6847B4A-0A2E-406E-80B1-427EE12FE698";
paths = (
{
closed = 1;
nodes = (
"554 174 CURVE",
"519 -20 LINE",
"495 -160 OFFCURVE",
"382 -246 OFFCURVE",
"260 -246 CURVE SMOOTH",
"134 -246 OFFCURVE",
"69 -182 OFFCURVE",
"55 -88 CURVE",
"35 -88 LINE",
"49 -192 OFFCURVE",
"122 -264 OFFCURVE",
"256 -264 CURVE SMOOTH",
"380 -264 OFFCURVE",
"510 -176 OFFCURVE",
"537 -20 CURVE",
"636 540 LINE",
"618 540 LINE",
"587 366 LINE",
"578 472 OFFCURVE",
"504 548 OFFCURVE",
"376 548 CURVE",
"220 548 OFFCURVE",
"93 442 OFFCURVE",
"63 270 CURVE",
"32 98 OFFCURVE",
"122 -8 OFFCURVE",
"278 -8 CURVE",
"406 -8 OFFCURVE",
"507 70 OFFCURVE"
);
},
{
closed = 1;
nodes = (
"571 270 CURVE",
"543 114 OFFCURVE",
"421 12 OFFCURVE",
"281 12 CURVE",
"133 12 OFFCURVE",
"54 110 OFFCURVE",
"83 270 CURVE",
"111 432 OFFCURVE",
"224 530 OFFCURVE",
"372 530 CURVE",
"512 530 OFFCURVE",
"598 426 OFFCURVE"
);
}
);
width = 671;
},
{
anchors = (
{
name = top;
position = "{420, 564}";
}
);
layerId = "248E82CE-81F2-4042-A23E-56D22FBFDD32";
paths = (
{
closed = 1;
nodes = (
"376 77 CURVE",
"364 10 LINE",
"350 -69 OFFCURVE",
"309 -85 OFFCURVE",
"264 -85 CURVE SMOOTH",
"223 -85 OFFCURVE",
"201 -70 OFFCURVE",
"200 -41 CURVE",
"-18 -41 LINE",
"-18 -184 OFFCURVE",
"75 -277 OFFCURVE",
"256 -277 CURVE SMOOTH",
"461 -277 OFFCURVE",
"559 -139 OFFCURVE",
"585 10 CURVE",
"683 564 LINE",
"462 564 LINE",
"448 487 LINE",
"430 538 OFFCURVE",
"377 571 OFFCURVE",
"297 571 CURVE",
"172 571 OFFCURVE",
"53 472 OFFCURVE",
"23 302 CURVE",
"-11 108 OFFCURVE",
"75 -7 OFFCURVE",
"205 -7 CURVE",
"280 -7 OFFCURVE",
"340 26 OFFCURVE"
);
},
{
closed = 1;
nodes = (
"412 282 CURVE",
"401 220 OFFCURVE",
"359 187 OFFCURVE",
"313 187 CURVE",
"267 187 OFFCURVE",
"237 220 OFFCURVE",
"248 282 CURVE",
"259 344 OFFCURVE",
"301 377 OFFCURVE",
"347 377 CURVE",
"393 377 OFFCURVE",
"423 344 OFFCURVE"
);
}
);
width = 679;
}
);
unicode = 0067;
userData = {
com.typesupply.AccentFactory.yCoordinates = {
top = {
name = xHeight;
type = fontInfo;
};
};
};
},
{
color = 6;
glyphname = gcommaaccent;
lastChange = "2017-08-09 06:16:17 +0000";
layers = (
{
components = (
{
name = g;
}
);
layerId = "4C47FEBD-3B68-4176-B8ED-E26FA8D86AD9";
paths = (
{
closed = 1;
nodes = (
"350 593 LINE",
"350 646 LINE",
"312 646 LINE",
"312 675 LINE SMOOTH",
"312 704 OFFCURVE",
"322 720 OFFCURVE",
"357 720 CURVE",
"357 740 LINE",
"317 740 OFFCURVE",
"290 725 OFFCURVE",
"290 662 CURVE SMOOTH",
"290 644 OFFCURVE",
"291 622 OFFCURVE",
"294 593 CURVE"
);
}
);
width = 671;
},
{
anchors = (
{
name = _top;
position = "{358, 564}";
}
);
components = (
{
name = g;
}
);
layerId = "1A40E216-9158-4F5D-A2E9-8F4663F027D5";
paths = (
{
closed = 1;
nodes = (
"438 599 LINE",
"438 746 LINE",
"366 746 LINE",
"366 757 LINE SMOOTH",
"366 809 OFFCURVE",
"387 832 OFFCURVE",
"421 832 CURVE",
"421 910 LINE",
"308 910 OFFCURVE",
"257 830 OFFCURVE",
"257 734 CURVE SMOOTH",
"257 692 OFFCURVE",
"264 646 OFFCURVE",
"282 599 CURVE"
);
}
);
width = 680;
},
{
components = (
{
name = g;
transform = "{1, 0, 0, 1, -12, 0}";
}
);
layerId = "F6847B4A-0A2E-406E-80B1-427EE12FE698";
paths = (
{
closed = 1;
nodes = (
"412.596 593 LINE",
"421.941 646 LINE",
"383.941 646 LINE",
"389.055 675 LINE SMOOTH",
"394.168 704 OFFCURVE",
"406.99 720 OFFCURVE",
"441.99 720 CURVE",
"445.516 740 LINE",
"405.516 740 OFFCURVE",
"375.871 725 OFFCURVE",
"364.763 662 CURVE SMOOTH",
"361.589 644 OFFCURVE",
"358.71 622 OFFCURVE",
"356.596 593 CURVE"
);
}
);
width = 671;
},
{
anchors = (
{
name = _top;
position = "{491, 564}";
}
);
components = (
{
name = g;
transform = "{1, 0, 0, 1, -17, 0}";
}
);
layerId = "248E82CE-81F2-4042-A23E-56D22FBFDD32";
paths = (
{
closed = 1;
nodes = (
"497 599 LINE",
"523 746 LINE",
"451 746 LINE",
"453 757 LINE SMOOTH",
"462 809 OFFCURVE",
"487 832 OFFCURVE",
"521 832 CURVE",
"535 910 LINE",
"422 910 OFFCURVE",
"357 830 OFFCURVE",
"340 734 CURVE SMOOTH",
"332 692 OFFCURVE",
"331 646 OFFCURVE",
"341 599 CURVE"
);
}
);
width = 679;
}
);
unicode = 0123;
userData = {
com.typesupply.AccentFactory.compileType = manual;
public.markColor = "0.5,0.09,0.79,1";
};
},
{
glyphname = h;
lastChange = "2017-08-09 06:16:28 +0000";
layers = (
{
layerId = "4C47FEBD-3B68-4176-B8ED-E26FA8D86AD9";
paths = (
{
closed = 1;
nodes = (
"85 0 LINE",
"105 0 LINE",
"105 740 LINE",
"85 740 LINE"
);
},
{
closed = 1;
nodes = (
"515 0 LINE",
"534 0 LINE",
"534 315 LINE SMOOTH",
"534 482 OFFCURVE",
"435 552 OFFCURVE",
"317 552 CURVE",
"207 552 OFFCURVE",
"102 485 OFFCURVE",
"97 325 CURVE",
"105 287 LINE",
"105 456 OFFCURVE",
"194 534 OFFCURVE",
"317 534 CURVE",
"436 534 OFFCURVE",
"515 461 OFFCURVE",
"515 317 CURVE SMOOTH"
);
}
);
width = 614;
},
{
layerId = "1A40E216-9158-4F5D-A2E9-8F4663F027D5";
paths = (
{
closed = 1;
nodes = (
"50 0 LINE",
"272 0 LINE",
"272 740 LINE",
"50 740 LINE"
);
},
{
closed = 1;
nodes = (
"430 0 LINE",
"651 0 LINE",
"651 327 LINE SMOOTH",
"651 473 OFFCURVE",
"575 568 OFFCURVE",
"445 568 CURVE SMOOTH",
"345 568 OFFCURVE",
"284 511 OFFCURVE",
"257 451 CURVE",
"272 299 LINE",
"272 353 OFFCURVE",
"302 386 OFFCURVE",
"351 386 CURVE SMOOTH",
"399 386 OFFCURVE",
"430 353 OFFCURVE",
"430 299 CURVE SMOOTH"
);
}
);
width = 697;
},
{
layerId = "F6847B4A-0A2E-406E-80B1-427EE12FE698";
paths = (
{
closed = 1;
nodes = (
"40 0 LINE",
"60 0 LINE",
"190 740 LINE",
"170 740 LINE"
);
},
{
closed = 1;
nodes = (
"470 0 LINE",
"489 0 LINE",
"544 315 LINE SMOOTH",
"574 482 OFFCURVE",
"487 552 OFFCURVE",
"369 552 CURVE",
"259 552 OFFCURVE",
"142 485 OFFCURVE",
"109 325 CURVE",
"110 287 LINE",
"140 456 OFFCURVE",
"243 534 OFFCURVE",
"366 534 CURVE",
"485 534 OFFCURVE",
"551 461 OFFCURVE",
"526 317 CURVE SMOOTH"
);
}
);
width = 614;
},
{
layerId = "248E82CE-81F2-4042-A23E-56D22FBFDD32";
paths = (
{
closed = 1;
nodes = (
"0 0 LINE",
"222 0 LINE",
"352 740 LINE",
"130 740 LINE"
);
},
{
closed = 1;
nodes = (
"380 0 LINE",
"601 0 LINE",
"658 327 LINE SMOOTH",
"684 473 OFFCURVE",
"625 568 OFFCURVE",
"495 568 CURVE SMOOTH",
"395 568 OFFCURVE",
"324 511 OFFCURVE",
"286 451 CURVE",
"274 299 LINE",
"284 353 OFFCURVE",
"320 386 OFFCURVE",
"369 386 CURVE SMOOTH",
"417 386 OFFCURVE",
"442 353 OFFCURVE",
"432 299 CURVE SMOOTH"
);
}
);
width = 696;
}
);
unicode = 0068;
userData = {
com.typesupply.AccentFactory.yCoordinates = {
bottom = {
name = origin;
type = glyphMetric;
};
top = {
name = ascender;
type = fontInfo;
};
};
};
},
{
glyphname = i;
lastChange = "2017-08-09 06:16:28 +0000";
layers = (
{
anchors = (
{
name = ogonek;
position = "{105, 2}";
}
);
layerId = "4C47FEBD-3B68-4176-B8ED-E26FA8D86AD9";
paths = (
{
closed = 1;
nodes = (
"85 0 LINE",
"105 0 LINE",
"105 540 LINE",
"85 540 LINE"
);
},
{
closed = 1;
nodes = (
"95 678 CURVE",
"109 678 OFFCURVE",
"121 688 OFFCURVE",
"121 705 CURVE SMOOTH",
"121 722 OFFCURVE",
"109 732 OFFCURVE",
"95 732 CURVE",
"81 732 OFFCURVE",
"69 722 OFFCURVE",
"69 705 CURVE SMOOTH",
"69 688 OFFCURVE",
"81 678 OFFCURVE"
);
}
);
width = 190;
},
{
anchors = (
{
name = ogonek;
position = "{272, -1}";
}
);
layerId = "1A40E216-9158-4F5D-A2E9-8F4663F027D5";
paths = (
{
closed = 1;
nodes = (
"50 0 LINE",
"272 0 LINE",
"272 564 LINE",
"50 564 LINE"
);
},
{
closed = 1;
nodes = (
"162 609 CURVE SMOOTH",
"240 609 OFFCURVE",
"289 657 OFFCURVE",
"289 718 CURVE SMOOTH",
"289 780 OFFCURVE",
"240 829 OFFCURVE",
"162 829 CURVE SMOOTH",
"83 829 OFFCURVE",
"34 780 OFFCURVE",
"34 718 CURVE SMOOTH",
"34 657 OFFCURVE",
"83 609 OFFCURVE"
);
}
);
width = 322;
},
{
anchors = (
{
name = ogonek;
position = "{40.817, 2}";
}
);
layerId = "F6847B4A-0A2E-406E-80B1-427EE12FE698";
paths = (
{
closed = 1;
nodes = (
"35 0 LINE",
"55 0 LINE",
"151 540 LINE",
"131 540 LINE"
);
},
{
closed = 1;
nodes = (
"165 678 CURVE",
"179 678 OFFCURVE",
"193 688 OFFCURVE",
"196 705 CURVE SMOOTH",
"199 722 OFFCURVE",
"189 732 OFFCURVE",
"175 732 CURVE",
"161 732 OFFCURVE",
"147 722 OFFCURVE",
"144 705 CURVE SMOOTH",
"141 688 OFFCURVE",
"151 678 OFFCURVE"
);
}
);
width = 190;
},
{
anchors = (
{
name = ogonek;
position = "{176, -1}";
}
);
layerId = "248E82CE-81F2-4042-A23E-56D22FBFDD32";
paths = (
{
closed = 1;
nodes = (
"0 0 LINE",
"222 0 LINE",
"321 564 LINE",
"99 564 LINE"
);
},
{
closed = 1;
nodes = (
"219 609 CURVE SMOOTH",
"297 609 OFFCURVE",
"355 657 OFFCURVE",
"365 718 CURVE SMOOTH",
"376 780 OFFCURVE",
"336 829 OFFCURVE",
"258 829 CURVE SMOOTH",
"179 829 OFFCURVE",
"121 780 OFFCURVE",
"110 718 CURVE SMOOTH",
"100 657 OFFCURVE",
"140 609 OFFCURVE"
);
}
);
width = 320;
}
);
unicode = 0069;
userData = {
com.typemytype.robofont.guides = (
{
angle = 0;
isGlobal = 0;
magnetic = 5;
x = 82;
y = 540;
}
);
com.typesupply.AccentFactory.yCoordinates = {
bottom = {
name = origin;
type = glyphMetric;
};
};
};
},
{
glyphname = j;
lastChange = "2017-08-09 06:16:28 +0000";
layers = (
{
layerId = "4C47FEBD-3B68-4176-B8ED-E26FA8D86AD9";
paths = (
{
closed = 1;
nodes = (
"105 678 CURVE",
"119 678 OFFCURVE",
"131 688 OFFCURVE",
"131 705 CURVE SMOOTH",
"131 722 OFFCURVE",
"119 732 OFFCURVE",
"105 732 CURVE",
"91 732 OFFCURVE",
"79 722 OFFCURVE",
"79 705 CURVE SMOOTH",
"79 688 OFFCURVE",
"91 678 OFFCURVE"
);
},
{
closed = 1;
nodes = (
"95 540 LINE",
"95 -146 LINE SMOOTH",
"95 -214 OFFCURVE",
"67 -234 OFFCURVE",
"11 -234 CURVE SMOOTH",
"-25 -234 LINE",
"-25 -254 LINE",
"11 -254 LINE SMOOTH",
"89 -254 OFFCURVE",
"115 -213 OFFCURVE",
"115 -152 CURVE SMOOTH",
"115 540 LINE"
);
}
);
width = 200;
},
{
layerId = "1A40E216-9158-4F5D-A2E9-8F4663F027D5";
paths = (
{
closed = 1;
nodes = (
"160 609 CURVE SMOOTH",
"238 609 OFFCURVE",
"287 657 OFFCURVE",
"287 718 CURVE SMOOTH",
"287 780 OFFCURVE",
"238 829 OFFCURVE",
"160 829 CURVE SMOOTH",
"81 829 OFFCURVE",
"32 780 OFFCURVE",
"32 718 CURVE SMOOTH",
"32 657 OFFCURVE",
"81 609 OFFCURVE"
);
},
{
closed = 1;
nodes = (
"50 564 LINE",
"50 -43 LINE SMOOTH",
"50 -69 OFFCURVE",
"38 -81 OFFCURVE",
"9 -81 CURVE SMOOTH",
"-34 -81 LINE",
"-34 -270 LINE",
"40 -270 LINE SMOOTH",
"172 -270 OFFCURVE",
"272 -214 OFFCURVE",
"272 -39 CURVE SMOOTH",
"272 564 LINE"
);
}
);
width = 320;
},
{
layerId = "F6847B4A-0A2E-406E-80B1-427EE12FE698";
paths = (
{
closed = 1;
nodes = (
"172 678 CURVE",
"186 678 OFFCURVE",
"200 688 OFFCURVE",
"203 705 CURVE SMOOTH",
"206 722 OFFCURVE",
"196 732 OFFCURVE",
"182 732 CURVE",
"168 732 OFFCURVE",
"154 722 OFFCURVE",
"151 705 CURVE SMOOTH",
"148 688 OFFCURVE",
"158 678 OFFCURVE"
);
},
{
closed = 1;
nodes = (
"138 540 LINE",
"17 -146 LINE SMOOTH",
"5 -214 OFFCURVE",
"-26 -234 OFFCURVE",
"-82 -234 CURVE SMOOTH",
"-118 -234 LINE",
"-122 -254 LINE",
"-86 -254 LINE SMOOTH",
"-8 -254 OFFCURVE",
"25 -213 OFFCURVE",
"36 -152 CURVE SMOOTH",
"158 540 LINE"
);
}
);
width = 200;
},
{
layerId = "248E82CE-81F2-4042-A23E-56D22FBFDD32";
paths = (
{
closed = 1;
nodes = (
"104 564 LINE",
"-3 -43 LINE SMOOTH",
"-8 -69 OFFCURVE",
"-22 -81 OFFCURVE",
"-51 -81 CURVE SMOOTH",
"-94 -81 LINE",
"-127 -270 LINE",
"-53 -270 LINE SMOOTH",
"79 -270 OFFCURVE",
"189 -214 OFFCURVE",
"219 -39 CURVE SMOOTH",
"326 564 LINE"
);
},
{
closed = 1;
nodes = (
"225 609 CURVE SMOOTH",
"303 609 OFFCURVE",
"361 657 OFFCURVE",
"371 718 CURVE SMOOTH",
"382 780 OFFCURVE",
"342 829 OFFCURVE",
"264 829 CURVE SMOOTH",
"185 829 OFFCURVE",
"127 780 OFFCURVE",
"116 718 CURVE SMOOTH",
"106 657 OFFCURVE",
"146 609 OFFCURVE"
);
}
);
width = 320;
}
);
unicode = 006A;
userData = {
com.typesupply.AccentFactory.yCoordinates = {
bottom = {
name = origin;
type = glyphMetric;
};
};
};
},
{
glyphname = k;
lastChange = "2017-08-09 06:16:28 +0000";
layers = (
{
anchors = (
{
name = bottom;
position = "{204, 0}";
}
);
layerId = "4C47FEBD-3B68-4176-B8ED-E26FA8D86AD9";
paths = (
{
closed = 1;
nodes = (
"85 0 LINE",
"105 0 LINE",
"105 740 LINE",
"85 740 LINE"
);
},
{
closed = 1;
nodes = (
"85 273 LINE",
"354 0 LINE",
"385 0 LINE",
"93 295 LINE",
"96 256 LINE",
"378 540 LINE",
"348 540 LINE"
);
}
);
width = 395;
},
{
anchors = (
{
name = bottom;
position = "{347, 0}";
}
);
layerId = "1A40E216-9158-4F5D-A2E9-8F4663F027D5";
paths = (
{
closed = 1;
nodes = (
"50 0 LINE",
"272 0 LINE",
"272 740 LINE",
"50 740 LINE"
);
},
{
closed = 1;
nodes = (
"231 291 LINE",
"411 0 LINE",
"676 0 LINE",
"446 298 LINE",
"453 271 LINE",
"671 564 LINE",
"413 564 LINE"
);
}
);
width = 676;
},
{
anchors = (
{
name = bottom;
position = "{138.759, 0}";
}
);
layerId = "F6847B4A-0A2E-406E-80B1-427EE12FE698";
paths = (
{
closed = 1;
nodes = (
"19.759 0 LINE",
"39.759 0 LINE",
"170.241 740 LINE",
"150.241 740 LINE"
);
},
{
closed = 1;
nodes = (
"67.896 273 LINE",
"288.759 0 LINE",
"319.759 0 LINE",
"79.775 295 LINE",
"75.899 256 LINE",
"407.976 540 LINE",
"377.976 540 LINE"
);
}
);
width = 395;
},
{
anchors = (
{
name = bottom;
position = "{277, 0}";
}
);
layerId = "248E82CE-81F2-4042-A23E-56D22FBFDD32";
paths = (
{
closed = 1;
nodes = (
"0 0 LINE",
"222 0 LINE",
"352 740 LINE",
"130 740 LINE"
);
},
{
closed = 1;
nodes = (
"234 301 LINE",
"361 0 LINE",
"615 0 LINE",
"448 307 LINE",
"451 280 LINE",
"720 564 LINE",
"462 564 LINE"
);
}
);
width = 676;
}
);
unicode = 006B;
userData = {
com.typemytype.robofont.guides = (
{
angle = 0;
isGlobal = 0;
magnetic = 5;
x = 86;
y = 740;
}
);
com.typesupply.AccentFactory.yCoordinates = {
bottom = {
name = origin;
type = glyphMetric;
};
top = {
name = ascender;
type = fontInfo;
};
};
};
},
{
color = 6;
glyphname = kcommaaccent;
lastChange = "2017-08-09 06:16:17 +0000";
layers = (
{
components = (
{
name = k;
}
);
layerId = "4C47FEBD-3B68-4176-B8ED-E26FA8D86AD9";
paths = (
{
closed = 1;
nodes = (
"177 -59 LINE",
"177 -97 LINE",
"208 -97 LINE",
"208 -104 LINE SMOOTH",
"208 -137 OFFCURVE",
"197 -158 OFFCURVE",
"165 -158 CURVE",
"165 -176 LINE",
"201 -176 OFFCURVE",
"230 -161 OFFCURVE",
"230 -90 CURVE SMOOTH",
"230 -81 OFFCURVE",
"229 -68 OFFCURVE",
"228 -59 CURVE"
);
}
);
width = 395;
},
{
anchors = (
{
name = _bottom;
position = "{372, 0}";
}
);
components = (
{
name = k;
}
);
layerId = "1A40E216-9158-4F5D-A2E9-8F4663F027D5";
paths = (
{
closed = 1;
nodes = (
"262 -35 LINE",
"262 -182 LINE",
"334 -182 LINE",
"334 -193 LINE SMOOTH",
"334 -245 OFFCURVE",
"313 -268 OFFCURVE",
"279 -268 CURVE",
"279 -346 LINE",
"392 -346 OFFCURVE",
"443 -266 OFFCURVE",
"443 -170 CURVE SMOOTH",
"443 -128 OFFCURVE",
"436 -82 OFFCURVE",
"418 -35 CURVE"
);
}
);
width = 676;
},
{
components = (
{
name = k;
transform = "{1, 0, 0, 1, 14, 0}";
}
);
layerId = "F6847B4A-0A2E-406E-80B1-427EE12FE698";
paths = (
{
closed = 1;
nodes = (
"116.872 -59 LINE",
"110.172 -97 LINE",
"141.172 -97 LINE",
"139.938 -104 LINE SMOOTH",
"134.119 -137 OFFCURVE",
"119.416 -158 OFFCURVE",
"87.416 -158 CURVE",
"84.242 -176 LINE",
"120.242 -176 OFFCURVE",
"151.887 -161 OFFCURVE",
"164.406 -90 CURVE SMOOTH",
"165.993 -81 OFFCURVE",
"167.286 -68 OFFCURVE",
"167.872 -59 CURVE"
);
}
);
width = 395;
},
{
anchors = (
{
name = _bottom;
position = "{317, 0}";
}
);
components = (
{
name = k;
transform = "{1, 0, 0, 1, -5, 0}";
}
);
layerId = "248E82CE-81F2-4042-A23E-56D22FBFDD32";
paths = (
{
closed = 1;
nodes = (
"201 -35 LINE",
"175 -182 LINE",
"247 -182 LINE",
"245 -193 LINE SMOOTH",
"236 -245 OFFCURVE",
"211 -268 OFFCURVE",
"177 -268 CURVE",
"163 -346 LINE",
"276 -346 OFFCURVE",
"341 -266 OFFCURVE",
"358 -170 CURVE SMOOTH",
"365 -128 OFFCURVE",
"367 -82 OFFCURVE",
"357 -35 CURVE"
);
}
);
width = 676;
}
);
unicode = 0137;
userData = {
com.typesupply.AccentFactory.compileType = manual;
public.markColor = "0.5,0.09,0.79,1";
};
},
{
glyphname = l;
lastChange = "2017-08-09 06:16:28 +0000";
layers = (
{
anchors = (
{
name = bottom;
position = "{95, 0}";
},
{
name = commaaccent;
position = "{95, 10}";
},
{
name = top;
position = "{95, 740}";
},
{
name = topright;
position = "{160, 540}";
}
);
layerId = "4C47FEBD-3B68-4176-B8ED-E26FA8D86AD9";
paths = (
{
closed = 1;
nodes = (
"85 0 LINE",
"105 0 LINE",
"105 740 LINE",
"85 740 LINE"
);
}
);
width = 190;
},
{
anchors = (
{
name = bottom;
position = "{162, 0}";
},
{
name = commaaccent;
position = "{162, 10}";
},
{
name = top;
position = "{162, 740}";
},
{
name = topright;
position = "{327, 564}";
}
);
layerId = "1A40E216-9158-4F5D-A2E9-8F4663F027D5";
paths = (
{
closed = 1;
nodes = (
"50 0 LINE",
"272 0 LINE",
"272 740 LINE",
"50 740 LINE"
);
}
);
width = 322;
},
{
anchors = (
{
name = bottom;
position = "{29.759, 0}";
},
{
name = commaaccent;
position = "{31.522, 10}";
},
{
name = top;
position = "{160.241, 740}";
},
{
name = topright;
position = "{189.976, 540}";
}
);
layerId = "F6847B4A-0A2E-406E-80B1-427EE12FE698";
paths = (
{
closed = 1;
nodes = (
"40 0 LINE",
"60 0 LINE",
"190 740 LINE",
"170 740 LINE"
);
}
);
width = 190;
},
{
anchors = (
{
name = bottom;
position = "{112, 0}";
},
{
name = commaaccent;
position = "{114, 10}";
},
{
name = top;
position = "{242, 740}";
},
{
name = topright;
position = "{376, 564}";
}
);
layerId = "248E82CE-81F2-4042-A23E-56D22FBFDD32";
paths = (
{
closed = 1;
nodes = (
"0 0 LINE",
"222 0 LINE",
"352 740 LINE",
"130 740 LINE"
);
}
);
width = 317;
}
);
unicode = 006C;
userData = {
com.typesupply.AccentFactory.yCoordinates = {
bottom = {
name = origin;
type = glyphMetric;
};
top = {
name = ascender;
type = fontInfo;
};
};
};
},
{
color = 6;
glyphname = lcommaaccent;
lastChange = "2017-08-09 06:16:17 +0000";
layers = (
{
components = (
{
name = l;
}
);
layerId = "4C47FEBD-3B68-4176-B8ED-E26FA8D86AD9";
paths = (
{
closed = 1;
nodes = (
"67 -59 LINE",
"67 -97 LINE",
"98 -97 LINE",
"98 -104 LINE SMOOTH",
"98 -137 OFFCURVE",
"87 -158 OFFCURVE",
"55 -158 CURVE",
"55 -176 LINE",
"91 -176 OFFCURVE",
"120 -161 OFFCURVE",
"120 -90 CURVE SMOOTH",
"120 -81 OFFCURVE",
"119 -68 OFFCURVE",
"118 -59 CURVE"
);
}
);
width = 190;
},
{
anchors = (
{
name = _commaaccent;
position = "{187, 10}";
}
);
components = (
{
name = l;
}
);
layerId = "1A40E216-9158-4F5D-A2E9-8F4663F027D5";
paths = (
{
closed = 1;
nodes = (
"87 -35 LINE",
"87 -182 LINE",
"159 -182 LINE",
"159 -193 LINE SMOOTH",
"159 -245 OFFCURVE",
"138 -268 OFFCURVE",
"104 -268 CURVE",
"104 -346 LINE",
"217 -346 OFFCURVE",
"268 -266 OFFCURVE",
"268 -170 CURVE SMOOTH",
"268 -128 OFFCURVE",
"261 -82 OFFCURVE",
"243 -35 CURVE"
);
}
);
width = 322;
},
{
components = (
{
name = l;
transform = "{1, 0, 0, 1, -6, 0}";
}
);
layerId = "F6847B4A-0A2E-406E-80B1-427EE12FE698";
paths = (
{
closed = 1;
nodes = (
"6.872 -59 LINE",
"0.172 -97 LINE",
"31.172 -97 LINE",
"29.938 -104 LINE SMOOTH",
"24.119 -137 OFFCURVE",
"9.416 -158 OFFCURVE",
"-22.584 -158 CURVE",
"-25.758 -176 LINE",
"10.242 -176 OFFCURVE",
"41.887 -161 OFFCURVE",
"54.406 -90 CURVE SMOOTH",
"55.993 -81 OFFCURVE",
"57.286 -68 OFFCURVE",
"57.873 -59 CURVE"
);
}
);
width = 190;
},
{
anchors = (
{
name = _commaaccent;
position = "{154, 10}";
}
);
components = (
{
name = l;
transform = "{1, 0, 0, 1, 5, 0}";
}
);
layerId = "248E82CE-81F2-4042-A23E-56D22FBFDD32";
paths = (
{
closed = 1;
nodes = (
"46 -35 LINE",
"20 -182 LINE",
"92 -182 LINE",
"90 -193 LINE SMOOTH",
"81 -245 OFFCURVE",
"56 -268 OFFCURVE",
"22 -268 CURVE",
"8 -346 LINE",
"121 -346 OFFCURVE",
"186 -266 OFFCURVE",
"203 -170 CURVE SMOOTH",
"210 -128 OFFCURVE",
"212 -82 OFFCURVE",
"202 -35 CURVE"
);
}
);
width = 321;
}
);
unicode = 013C;
userData = {
com.typesupply.AccentFactory.compileType = manual;
public.markColor = "0.5,0.09,0.79,1";
};
},
{
glyphname = lcaron;
lastChange = "2017-08-09 06:16:28 +0000";
layers = (
{
components = (
{
name = l;
}
);
layerId = "4C47FEBD-3B68-4176-B8ED-E26FA8D86AD9";
paths = (
{
closed = 1;
nodes = (
"162 740 LINE",
"162 687 LINE",
"200 687 LINE",
"200 658 LINE SMOOTH",
"200 629 OFFCURVE",
"190 613 OFFCURVE",
"155 613 CURVE",
"155 593 LINE",
"195 593 OFFCURVE",
"222 608 OFFCURVE",
"222 671 CURVE SMOOTH",
"222 689 OFFCURVE",
"221 711 OFFCURVE",
"218 740 CURVE"
);
}
);
width = 190;
},
{
anchors = (
{
name = _bottom;
position = "{455, 775}";
}
);
components = (
{
name = l;
}
);
layerId = "1A40E216-9158-4F5D-A2E9-8F4663F027D5";
paths = (
{
closed = 1;
nodes = (
"325 740 LINE",
"325 594 LINE",
"397 594 LINE",
"397 582 LINE SMOOTH",
"397 531 OFFCURVE",
"376 508 OFFCURVE",
"342 508 CURVE",
"342 429 LINE",
"455 429 OFFCURVE",
"506 509 OFFCURVE",
"506 606 CURVE SMOOTH",
"506 648 OFFCURVE",
"499 694 OFFCURVE",
"481 740 CURVE"
);
}
);
width = 516;
},
{
components = (
{
name = l;
transform = "{1, 0, 0, 1, -1, 0}";
}
);
layerId = "F6847B4A-0A2E-406E-80B1-427EE12FE698";
paths = (
{
closed = 1;
nodes = (
"247 740 LINE",
"238 687 LINE",
"276 687 LINE",
"271 658 LINE SMOOTH",
"266 629 OFFCURVE",
"253 613 OFFCURVE",
"218 613 CURVE",
"214 593 LINE",
"254 593 OFFCURVE",
"284 608 OFFCURVE",
"295 671 CURVE SMOOTH",
"298 689 OFFCURVE",
"301 711 OFFCURVE",
"303 740 CURVE"
);
}
);
width = 190;
},
{
anchors = (
{
name = _bottom;
position = "{526, 775}";
}
);
components = (
{
name = l;
transform = "{1, 0, 0, 1, -5, 0}";
}
);
layerId = "248E82CE-81F2-4042-A23E-56D22FBFDD32";
paths = (
{
closed = 1;
nodes = (
"390 740 LINE",
"364 594 LINE",
"436 594 LINE",
"434 582 LINE SMOOTH",
"425 531 OFFCURVE",
"400 508 OFFCURVE",
"366 508 CURVE",
"352 429 LINE",
"465 429 OFFCURVE",
"530 509 OFFCURVE",
"547 606 CURVE SMOOTH",
"555 648 OFFCURVE",
"556 694 OFFCURVE",
"546 740 CURVE"
);
}
);
width = 496;
}
);
unicode = 013E;
userData = {
com.typesupply.AccentFactory.compileType = manual;
};
},
{
glyphname = m;
lastChange = "2017-08-09 06:16:28 +0000";
layers = (
{
layerId = "4C47FEBD-3B68-4176-B8ED-E26FA8D86AD9";
paths = (
{
closed = 1;
nodes = (
"85 0 LINE",
"105 0 LINE",
"105 540 LINE",
"85 540 LINE"
);
},
{
closed = 1;
nodes = (
"495 0 LINE",
"514 0 LINE",
"514 315 LINE SMOOTH",
"514 482 OFFCURVE",
"420 552 OFFCURVE",
"309 552 CURVE",
"203 552 OFFCURVE",
"102 485 OFFCURVE",
"97 325 CURVE",
"105 287 LINE",
"105 456 OFFCURVE",
"191 534 OFFCURVE",
"309 534 CURVE",
"421 534 OFFCURVE",
"495 461 OFFCURVE",
"495 317 CURVE SMOOTH"
);
},
{
closed = 1;
nodes = (
"904 0 LINE",
"923 0 LINE",
"923 315 LINE SMOOTH",
"923 482 OFFCURVE",
"829 552 OFFCURVE",
"718 552 CURVE",
"611 552 OFFCURVE",
"509 485 OFFCURVE",
"504 325 CURVE",
"514 287 LINE",
"514 456 OFFCURVE",
"600 534 OFFCURVE",
"718 534 CURVE",
"830 534 OFFCURVE",
"904 461 OFFCURVE",
"904 317 CURVE SMOOTH"
);
}
);
width = 1003;
},
{
layerId = "1A40E216-9158-4F5D-A2E9-8F4663F027D5";
paths = (
{
closed = 1;
nodes = (
"50 0 LINE",
"272 0 LINE",
"272 564 LINE",
"50 564 LINE"
);
},
{
closed = 1;
nodes = (
"430 0 LINE",
"651 0 LINE",
"651 327 LINE SMOOTH",
"651 473 OFFCURVE",
"566 568 OFFCURVE",
"435 568 CURVE SMOOTH",
"340 568 OFFCURVE",
"282 516 OFFCURVE",
"257 461 CURVE",
"272 299 LINE",
"272 347 OFFCURVE",
"302 376 OFFCURVE",
"351 376 CURVE SMOOTH",
"399 376 OFFCURVE",
"430 347 OFFCURVE",
"430 299 CURVE SMOOTH"
);
},
{
closed = 1;
nodes = (
"809 0 LINE",
"1030 0 LINE",
"1030 327 LINE SMOOTH",
"1030 473 OFFCURVE",
"949 568 OFFCURVE",
"803 568 CURVE SMOOTH",
"701 568 OFFCURVE",
"627 497 OFFCURVE",
"595 427 CURVE",
"651 299 LINE",
"651 347 OFFCURVE",
"681 376 OFFCURVE",
"730 376 CURVE SMOOTH",
"778 376 OFFCURVE",
"809 347 OFFCURVE",
"809 299 CURVE SMOOTH"
);
}
);
width = 1076;
},
{
layerId = "F6847B4A-0A2E-406E-80B1-427EE12FE698";
paths = (
{
closed = 1;
nodes = (
"36.334 0 LINE",
"56.334 0 LINE",
"151.55 540 LINE",
"131.55 540 LINE"
);
},
{
closed = 1;
nodes = (
"446.334 0 LINE",
"465.334 0 LINE",
"520.877 315 LINE SMOOTH",
"550.323 482 OFFCURVE",
"468.666 552 OFFCURVE",
"357.666 552 CURVE",
"251.666 552 OFFCURVE",
"138.852 485 OFFCURVE",
"105.64 325 CURVE",
"106.94 287 LINE",
"136.739 456 OFFCURVE",
"236.492 534 OFFCURVE",
"354.492 534 CURVE",
"466.492 534 OFFCURVE",
"527.62 461 OFFCURVE",
"502.229 317 CURVE SMOOTH"
);
},
{
closed = 1;
nodes = (
"855.334 0 LINE",
"874.334 0 LINE",
"929.877 315 LINE SMOOTH",
"959.323 482 OFFCURVE",
"877.666 552 OFFCURVE",
"766.666 552 CURVE",
"659.666 552 OFFCURVE",
"545.852 485 OFFCURVE",
"512.64 325 CURVE",
"515.94 287 LINE",
"545.739 456 OFFCURVE",
"645.492 534 OFFCURVE",
"763.492 534 CURVE",
"875.492 534 OFFCURVE",
"936.62 461 OFFCURVE",
"911.229 317 CURVE SMOOTH"
);
}
);
width = 1003;
},
{
layerId = "248E82CE-81F2-4042-A23E-56D22FBFDD32";
paths = (
{
closed = 1;
nodes = (
"0 0 LINE",
"222 0 LINE",
"321 564 LINE",
"99 564 LINE"
);
},
{
closed = 1;
nodes = (
"380 0 LINE",
"601 0 LINE",
"659 327 LINE SMOOTH",
"684 473 OFFCURVE",
"616 568 OFFCURVE",
"485 568 CURVE SMOOTH",
"390 568 OFFCURVE",
"323 516 OFFCURVE",
"288 461 CURVE",
"275 299 LINE",
"283 347 OFFCURVE",
"318 376 OFFCURVE",
"367 376 CURVE SMOOTH",
"415 376 OFFCURVE",
"441 347 OFFCURVE",
"433 299 CURVE SMOOTH"
);
},
{
closed = 1;
nodes = (
"759 0 LINE",
"980 0 LINE",
"1038 327 LINE SMOOTH",
"1063 473 OFFCURVE",
"999 568 OFFCURVE",
"853 568 CURVE SMOOTH",
"751 568 OFFCURVE",
"665 497 OFFCURVE",
"620 427 CURVE",
"654 299 LINE",
"662 347 OFFCURVE",
"697 376 OFFCURVE",
"746 376 CURVE SMOOTH",
"794 376 OFFCURVE",
"820 347 OFFCURVE",
"812 299 CURVE SMOOTH"
);
}
);
width = 1076;
}
);
unicode = 006D;
userData = {
com.typemytype.robofont.layerData = {
b = {
anchors = (
);
components = (
);
contours = (
{
points = (
{
segmentType = line;
smooth = 0;
x = 85;
y = 0;
},
{
segmentType = line;
smooth = 0;
x = 105;
y = 0;
},
{
segmentType = line;
smooth = 0;
x = 105;
y = 540;
},
{
segmentType = line;
smooth = 0;
x = 85;
y = 540;
}
);
},
{
points = (
{
segmentType = line;
smooth = 0;
x = 485;
y = 0;
},
{
segmentType = line;
smooth = 0;
x = 504;
y = 0;
},
{
segmentType = line;
smooth = 1;
x = 504;
y = 325;
},
{
smooth = 0;
x = 504;
y = 485;
},
{
smooth = 0;
x = 399;
y = 552;
},
{
segmentType = curve;
smooth = 1;
x = 292;
y = 552;
},
{
smooth = 0;
x = 189;
y = 552;
},
{
smooth = 0;
x = 91;
y = 494;
},
{
segmentType = curve;
smooth = 0;
x = 72;
y = 345;
},
{
segmentType = line;
smooth = 0;
x = 105;
y = 317;
},
{
smooth = 0;
x = 105;
y = 465;
},
{
smooth = 0;
x = 181;
y = 536;
},
{
segmentType = curve;
smooth = 1;
x = 296;
y = 536;
},
{
smooth = 0;
x = 410;
y = 536;
},
{
smooth = 0;
x = 485;
y = 465;
},
{
segmentType = curve;
smooth = 1;
x = 485;
y = 317;
}
);
},
{
points = (
{
segmentType = line;
smooth = 0;
x = 884;
y = 0;
},
{
segmentType = line;
smooth = 0;
x = 903;
y = 0;
},
{
segmentType = line;
smooth = 1;
x = 903;
y = 325;
},
{
smooth = 0;
x = 903;
y = 485;
},
{
smooth = 0;
x = 796;
y = 552;
},
{
segmentType = curve;
smooth = 1;
x = 694;
y = 552;
},
{
smooth = 0;
x = 580;
y = 552;
},
{
smooth = 0;
x = 492;
y = 487;
},
{
segmentType = curve;
smooth = 0;
x = 468;
y = 357;
},
{
segmentType = line;
smooth = 0;
x = 504;
y = 317;
},
{
smooth = 0;
x = 504;
y = 465;
},
{
smooth = 0;
x = 580;
y = 536;
},
{
segmentType = curve;
smooth = 1;
x = 695;
y = 536;
},
{
smooth = 0;
x = 809;
y = 536;
},
{
smooth = 0;
x = 884;
y = 465;
},
{
segmentType = curve;
smooth = 1;
x = 884;
y = 317;
}
);
}
);
lib = {
};
name = m;
unicodes = (
);
width = 1003;
};
};
com.typesupply.AccentFactory.yCoordinates = {
bottom = {
name = origin;
type = glyphMetric;
};
top = {
name = xHeight;
type = fontInfo;
};
};
};
},
{
glyphname = n;
lastChange = "2017-08-09 06:16:28 +0000";
layers = (
{
anchors = (
{
name = bottom;
position = "{293, 0}";
},
{
name = top;
position = "{281, 540}";
}
);
layerId = "4C47FEBD-3B68-4176-B8ED-E26FA8D86AD9";
paths = (
{
closed = 1;
nodes = (
"85 0 LINE",
"105 0 LINE",
"105 540 LINE",
"85 540 LINE"
);
},
{
closed = 1;
nodes = (
"515 0 LINE",
"534 0 LINE",
"534 315 LINE SMOOTH",
"534 482 OFFCURVE",
"435 552 OFFCURVE",
"317 552 CURVE",
"207 552 OFFCURVE",
"102 485 OFFCURVE",
"97 325 CURVE",
"105 287 LINE",
"105 456 OFFCURVE",
"194 534 OFFCURVE",
"317 534 CURVE",
"436 534 OFFCURVE",
"515 461 OFFCURVE",
"515 317 CURVE SMOOTH"
);
}
);
width = 614;
},
{
anchors = (
{
name = bottom;
position = "{348, 0}";
},
{
name = top;
position = "{384, 564}";
}
);
layerId = "1A40E216-9158-4F5D-A2E9-8F4663F027D5";
paths = (
{
closed = 1;
nodes = (
"50 0 LINE",
"272 0 LINE",
"272 564 LINE",
"50 564 LINE"
);
},
{
closed = 1;
nodes = (
"430 0 LINE",
"651 0 LINE",
"651 327 LINE SMOOTH",
"651 473 OFFCURVE",
"575 568 OFFCURVE",
"445 568 CURVE SMOOTH",
"345 568 OFFCURVE",
"284 511 OFFCURVE",
"257 451 CURVE",
"272 299 LINE",
"272 353 OFFCURVE",
"302 386 OFFCURVE",
"351 386 CURVE SMOOTH",
"399 386 OFFCURVE",
"430 353 OFFCURVE",
"430 299 CURVE SMOOTH"
);
}
);
width = 697;
},
{
anchors = (
{
name = bottom;
position = "{244.334, 0}";
},
{
name = top;
position = "{327.55, 540}";
}
);
layerId = "F6847B4A-0A2E-406E-80B1-427EE12FE698";
paths = (
{
closed = 1;
nodes = (
"36.334 0 LINE",
"56.334 0 LINE",
"151.55 540 LINE",
"131.55 540 LINE"
);
},
{
closed = 1;
nodes = (
"466.334 0 LINE",
"485.334 0 LINE",
"540.877 315 LINE SMOOTH",
"570.323 482 OFFCURVE",
"483.666 552 OFFCURVE",
"365.666 552 CURVE",
"255.666 552 OFFCURVE",
"138.852 485 OFFCURVE",
"105.64 325 CURVE",
"106.94 287 LINE",
"136.739 456 OFFCURVE",
"239.492 534 OFFCURVE",
"362.492 534 CURVE",
"481.492 534 OFFCURVE",
"547.62 461 OFFCURVE",
"522.229 317 CURVE SMOOTH"
);
}
);
width = 614;
},
{
anchors = (
{
name = bottom;
position = "{298, 0}";
},
{
name = top;
position = "{433, 564}";
}
);
layerId = "248E82CE-81F2-4042-A23E-56D22FBFDD32";
paths = (
{
closed = 1;
nodes = (
"0 0 LINE",
"222 0 LINE",
"321 564 LINE",
"99 564 LINE"
);
},
{
closed = 1;
nodes = (
"380 0 LINE",
"601 0 LINE",
"659 327 LINE SMOOTH",
"684 473 OFFCURVE",
"625 568 OFFCURVE",
"495 568 CURVE SMOOTH",
"395 568 OFFCURVE",
"324 511 OFFCURVE",
"286 451 CURVE",
"275 299 LINE",
"284 353 OFFCURVE",
"320 386 OFFCURVE",
"369 386 CURVE SMOOTH",
"417 386 OFFCURVE",
"442 353 OFFCURVE",
"433 299 CURVE SMOOTH"
);
}
);
width = 697;
}
);
unicode = 006E;
userData = {
com.typesupply.AccentFactory.yCoordinates = {
bottom = {
name = origin;
type = glyphMetric;
};
top = {
name = xHeight;
type = fontInfo;
};
};
};
},
{
color = 6;
glyphname = ncommaaccent;
lastChange = "2017-08-09 06:16:17 +0000";
layers = (
{
components = (
{
name = n;
}
);
layerId = "4C47FEBD-3B68-4176-B8ED-E26FA8D86AD9";
paths = (
{
closed = 1;
nodes = (
"287 -59 LINE",
"287 -97 LINE",
"318 -97 LINE",
"318 -104 LINE SMOOTH",
"318 -137 OFFCURVE",
"307 -158 OFFCURVE",
"275 -158 CURVE",
"275 -176 LINE",
"311 -176 OFFCURVE",
"340 -161 OFFCURVE",
"340 -90 CURVE SMOOTH",
"340 -81 OFFCURVE",
"339 -68 OFFCURVE",
"338 -59 CURVE"
);
}
);
width = 614;
},
{
anchors = (
{
name = _bottom;
position = "{373, 0}";
}
);
components = (
{
name = n;
}
);
layerId = "1A40E216-9158-4F5D-A2E9-8F4663F027D5";
paths = (
{
closed = 1;
nodes = (
"293 -35 LINE",
"293 -182 LINE",
"365 -182 LINE",
"365 -193 LINE SMOOTH",
"365 -245 OFFCURVE",
"344 -268 OFFCURVE",
"310 -268 CURVE",
"310 -346 LINE",
"423 -346 OFFCURVE",
"474 -266 OFFCURVE",
"474 -170 CURVE SMOOTH",
"474 -128 OFFCURVE",
"467 -82 OFFCURVE",
"449 -35 CURVE"
);
}
);
width = 697;
},
{
components = (
{
name = n;
transform = "{1, 0, 0, 1, -3, 0}";
}
);
layerId = "F6847B4A-0A2E-406E-80B1-427EE12FE698";
paths = (
{
closed = 1;
nodes = (
"243.447 -59 LINE",
"236.747 -97 LINE",
"267.747 -97 LINE",
"266.513 -104 LINE SMOOTH",
"260.694 -137 OFFCURVE",
"245.991 -158 OFFCURVE",
"213.991 -158 CURVE",
"210.817 -176 LINE",
"246.817 -176 OFFCURVE",
"278.462 -161 OFFCURVE",
"290.981 -90 CURVE SMOOTH",
"292.568 -81 OFFCURVE",
"293.86 -68 OFFCURVE",
"294.447 -59 CURVE"
);
}
);
width = 614;
},
{
anchors = (
{
name = _bottom;
position = "{343, 0}";
}
);
components = (
{
name = n;
}
);
layerId = "248E82CE-81F2-4042-A23E-56D22FBFDD32";
paths = (
{
closed = 1;
nodes = (
"257 -35 LINE",
"231 -182 LINE",
"303 -182 LINE",
"301 -193 LINE SMOOTH",
"292 -245 OFFCURVE",
"267 -268 OFFCURVE",
"233 -268 CURVE",
"219 -346 LINE",
"332 -346 OFFCURVE",
"397 -266 OFFCURVE",
"414 -170 CURVE SMOOTH",
"422 -128 OFFCURVE",
"423 -82 OFFCURVE",
"413 -35 CURVE"
);
}
);
width = 697;
}
);
unicode = 0146;
userData = {
com.typesupply.AccentFactory.compileType = manual;
public.markColor = "0.5,0.09,0.79,1";
};
},
{
glyphname = o;
lastChange = "2017-08-09 06:16:28 +0000";
layers = (
{
anchors = (
{
name = top;
position = "{327, 540}";
}
);
layerId = "4C47FEBD-3B68-4176-B8ED-E26FA8D86AD9";
paths = (
{
closed = 1;
nodes = (
"60 270 CURVE",
"60 96 OFFCURVE",
"174 -7 OFFCURVE",
"324 -7 CURVE",
"474 -7 OFFCURVE",
"587 96 OFFCURVE",
"587 270 CURVE",
"587 444 OFFCURVE",
"474 547 OFFCURVE",
"324 547 CURVE",
"174 547 OFFCURVE",
"60 444 OFFCURVE"
);
},
{
closed = 1;
nodes = (
"567 270 CURVE",
"567 91 OFFCURVE",
"448 11 OFFCURVE",
"324 11 CURVE",
"200 11 OFFCURVE",
"80 91 OFFCURVE",
"80 270 CURVE",
"80 449 OFFCURVE",
"200 529 OFFCURVE",
"324 529 CURVE",
"448 529 OFFCURVE",
"567 449 OFFCURVE"
);
}
);
width = 647;
},
{
anchors = (
{
name = top;
position = "{343, 564}";
}
);
layerId = "1A40E216-9158-4F5D-A2E9-8F4663F027D5";
paths = (
{
closed = 1;
nodes = (
"20 282 CURVE",
"20 102 OFFCURVE",
"148 -7 OFFCURVE",
"318 -7 CURVE",
"488 -7 OFFCURVE",
"616 102 OFFCURVE",
"616 282 CURVE",
"616 462 OFFCURVE",
"488 571 OFFCURVE",
"318 571 CURVE",
"148 571 OFFCURVE",
"20 462 OFFCURVE"
);
},
{
closed = 1;
nodes = (
"391 282 CURVE",
"391 215 OFFCURVE",
"357 185 OFFCURVE",
"318 185 CURVE",
"278 185 OFFCURVE",
"245 215 OFFCURVE",
"245 282 CURVE",
"245 349 OFFCURVE",
"279 379 OFFCURVE",
"318 379 CURVE",
"357 379 OFFCURVE",
"391 349 OFFCURVE"
);
}
);
width = 636;
},
{
anchors = (
{
name = top;
position = "{374.608, 540}";
}
);
layerId = "F6847B4A-0A2E-406E-80B1-427EE12FE698";
paths = (
{
closed = 1;
nodes = (
"60 270 CURVE",
"29.319 96 OFFCURVE",
"125.157 -7 OFFCURVE",
"275.157 -7 CURVE",
"425.157 -7 OFFCURVE",
"556.319 96 OFFCURVE",
"587 270 CURVE",
"617.681 444 OFFCURVE",
"522.843 547 OFFCURVE",
"372.843 547 CURVE",
"222.843 547 OFFCURVE",
"90.681 444 OFFCURVE"
);
},
{
closed = 1;
nodes = (
"567 270 CURVE",
"535.438 91 OFFCURVE",
"402.331 11 OFFCURVE",
"278.331 11 CURVE",
"154.331 11 OFFCURVE",
"48.437 91 OFFCURVE",
"80 270 CURVE",
"111.563 449 OFFCURVE",
"245.669 529 OFFCURVE",
"369.669 529 CURVE",
"493.669 529 OFFCURVE",
"598.562 449 OFFCURVE"
);
}
);
width = 647;
},
{
anchors = (
{
name = top;
position = "{394, 564}";
}
);
layerId = "248E82CE-81F2-4042-A23E-56D22FBFDD32";
paths = (
{
closed = 1;
nodes = (
"21 302 CURVE",
"-13 110 OFFCURVE",
"101 -7 OFFCURVE",
"278 -7 CURVE",
"443 -7 OFFCURVE",
"587 94 OFFCURVE",
"617 262 CURVE",
"651 454 OFFCURVE",
"538 571 OFFCURVE",
"364 571 CURVE",
"197 571 OFFCURVE",
"51 470 OFFCURVE"
);
},
{
closed = 1;
nodes = (
"392 282 CURVE",
"380 215 OFFCURVE",
"341 185 OFFCURVE",
"302 185 CURVE",
"262 185 OFFCURVE",
"234 215 OFFCURVE",
"246 282 CURVE",
"258 349 OFFCURVE",
"297 379 OFFCURVE",
"336 379 CURVE",
"375 379 OFFCURVE",
"404 349 OFFCURVE"
);
}
);
width = 638;
}
);
unicode = 006F;
userData = {
com.typesupply.AccentFactory.yCoordinates = {
bottom = {
name = origin;
type = glyphMetric;
};
top = {
name = xHeight;
type = fontInfo;
};
};
};
},
{
glyphname = p;
lastChange = "2017-08-09 06:16:28 +0000";
layers = (
{
layerId = "4C47FEBD-3B68-4176-B8ED-E26FA8D86AD9";
paths = (
{
closed = 1;
nodes = (
"104 366 CURVE",
"104 540 LINE",
"85 540 LINE",
"85 -254 LINE",
"104 -254 LINE",
"104 174 LINE",
"132 69 OFFCURVE",
"220 -7 OFFCURVE",
"348 -7 CURVE",
"503 -7 OFFCURVE",
"611 98 OFFCURVE",
"611 270 CURVE",
"611 442 OFFCURVE",
"503 547 OFFCURVE",
"348 547 CURVE",
"220 547 OFFCURVE",
"132 471 OFFCURVE"
);
},
{
closed = 1;
nodes = (
"591 270 CURVE",
"591 109 OFFCURVE",
"496 11 OFFCURVE",
"348 11 CURVE",
"207 11 OFFCURVE",
"104 114 OFFCURVE",
"104 270 CURVE",
"104 426 OFFCURVE",
"207 529 OFFCURVE",
"348 529 CURVE",
"496 529 OFFCURVE",
"591 431 OFFCURVE"
);
}
);
width = 671;
},
{
layerId = "1A40E216-9158-4F5D-A2E9-8F4663F027D5";
paths = (
{
closed = 1;
nodes = (
"272 487 CURVE",
"272 564 LINE",
"50 564 LINE",
"50 -270 LINE",
"272 -270 LINE",
"272 77 LINE",
"299 26 OFFCURVE",
"352 -7 OFFCURVE",
"427 -7 CURVE",
"557 -7 OFFCURVE",
"660 100 OFFCURVE",
"660 282 CURVE",
"660 464 OFFCURVE",
"557 571 OFFCURVE",
"427 571 CURVE",
"352 571 OFFCURVE",
"299 538 OFFCURVE"
);
},
{
closed = 1;
nodes = (
"435 282 CURVE",
"435 220 OFFCURVE",
"399 187 OFFCURVE",
"353 187 CURVE",
"307 187 OFFCURVE",
"271 220 OFFCURVE",
"271 282 CURVE",
"271 344 OFFCURVE",
"307 377 OFFCURVE",
"353 377 CURVE",
"399 377 OFFCURVE",
"435 344 OFFCURVE"
);
}
);
width = 680;
},
{
layerId = "F6847B4A-0A2E-406E-80B1-427EE12FE698";
paths = (
{
closed = 1;
nodes = (
"123 366 CURVE",
"153 540 LINE",
"134 540 LINE",
"-6 -254 LINE",
"13 -254 LINE",
"89 174 LINE",
"98 69 OFFCURVE",
"173 -7 OFFCURVE",
"301 -7 CURVE",
"456 -7 OFFCURVE",
"582 98 OFFCURVE",
"613 270 CURVE",
"643 442 OFFCURVE",
"554 547 OFFCURVE",
"399 547 CURVE",
"271 547 OFFCURVE",
"169 471 OFFCURVE"
);
},
{
closed = 1;
nodes = (
"106 270 CURVE",
"133 426 OFFCURVE",
"254 529 OFFCURVE",
"395 529 CURVE",
"543 529 OFFCURVE",
"621 431 OFFCURVE",
"593 270 CURVE",
"564 109 OFFCURVE",
"452 11 OFFCURVE",
"304 11 CURVE",
"163 11 OFFCURVE",
"78 114 OFFCURVE"
);
}
);
width = 671;
},
{
layerId = "248E82CE-81F2-4042-A23E-56D22FBFDD32";
paths = (
{
closed = 1;
nodes = (
"307 487 CURVE",
"321 564 LINE",
"99 564 LINE",
"-48 -270 LINE",
"174 -270 LINE",
"235 77 LINE",
"253 26 OFFCURVE",
"300 -7 OFFCURVE",
"375 -7 CURVE",
"505 -7 OFFCURVE",
"627 100 OFFCURVE",
"659 282 CURVE",
"691 464 OFFCURVE",
"607 571 OFFCURVE",
"477 571 CURVE",
"402 571 OFFCURVE",
"343 538 OFFCURVE"
);
},
{
closed = 1;
nodes = (
"270 282 CURVE",
"281 344 OFFCURVE",
"323 377 OFFCURVE",
"369 377 CURVE",
"415 377 OFFCURVE",
"445 344 OFFCURVE",
"434 282 CURVE",
"423 220 OFFCURVE",
"381 187 OFFCURVE",
"335 187 CURVE",
"289 187 OFFCURVE",
"259 220 OFFCURVE"
);
}
);
width = 680.8169;
}
);
unicode = 0070;
userData = {
com.typemytype.robofont.guides = (
{
angle = 0;
isGlobal = 0;
magnetic = 5;
x = -74;
y = -254;
}
);
com.typesupply.AccentFactory.yCoordinates = {
top = {
name = xHeight;
type = fontInfo;
};
};
};
},
{
glyphname = q;
lastChange = "2017-08-09 06:16:28 +0000";
layers = (
{
layerId = "4C47FEBD-3B68-4176-B8ED-E26FA8D86AD9";
paths = (
{
closed = 1;
nodes = (
"60 270 CURVE",
"60 98 OFFCURVE",
"168 -7 OFFCURVE",
"323 -7 CURVE",
"451 -7 OFFCURVE",
"539 69 OFFCURVE",
"567 174 CURVE",
"567 -254 LINE",
"586 -254 LINE",
"586 540 LINE",
"567 540 LINE",
"567 366 LINE",
"539 471 OFFCURVE",
"451 547 OFFCURVE",
"323 547 CURVE",
"168 547 OFFCURVE",
"60 442 OFFCURVE"
);
},
{
closed = 1;
nodes = (
"567 270 CURVE",
"567 114 OFFCURVE",
"464 11 OFFCURVE",
"323 11 CURVE",
"175 11 OFFCURVE",
"80 109 OFFCURVE",
"80 270 CURVE",
"80 431 OFFCURVE",
"175 529 OFFCURVE",
"323 529 CURVE",
"464 529 OFFCURVE",
"567 426 OFFCURVE"
);
}
);
width = 671;
},
{
layerId = "1A40E216-9158-4F5D-A2E9-8F4663F027D5";
paths = (
{
closed = 1;
nodes = (
"20 278 CURVE SMOOTH",
"20 108 OFFCURVE",
"136 -6 OFFCURVE",
"269 -6 CURVE SMOOTH",
"327 -6 OFFCURVE",
"369 16 OFFCURVE",
"409 62 CURVE",
"409 -270 LINE",
"630 -270 LINE",
"630 564 LINE",
"409 564 LINE",
"409 514 LINE",
"372 554 OFFCURVE",
"327 568 OFFCURVE",
"269 568 CURVE SMOOTH",
"136 568 OFFCURVE",
"20 448 OFFCURVE"
);
},
{
closed = 1;
nodes = (
"409 282 CURVE SMOOTH",
"409 210 OFFCURVE",
"360 187 OFFCURVE",
"327 187 CURVE SMOOTH",
"294 187 OFFCURVE",
"245 206 OFFCURVE",
"245 278 CURVE SMOOTH",
"245 350 OFFCURVE",
"294 376 OFFCURVE",
"327 376 CURVE SMOOTH",
"360 376 OFFCURVE",
"409 354 OFFCURVE"
);
}
);
width = 680;
},
{
layerId = "F6847B4A-0A2E-406E-80B1-427EE12FE698";
paths = (
{
closed = 1;
nodes = (
"576 366 LINE",
"566 471 OFFCURVE",
"492 547 OFFCURVE",
"364 547 CURVE",
"209 547 OFFCURVE",
"82 442 OFFCURVE",
"52 270 CURVE",
"21 98 OFFCURVE",
"111 -7 OFFCURVE",
"266 -7 CURVE",
"394 -7 OFFCURVE",
"495 69 OFFCURVE",
"542 174 CURVE",
"466 -254 LINE",
"485 -254 LINE",
"625 540 LINE",
"606 540 LINE"
);
},
{
closed = 1;
nodes = (
"559 270 CURVE",
"531 114 OFFCURVE",
"410 11 OFFCURVE",
"269 11 CURVE",
"121 11 OFFCURVE",
"43 109 OFFCURVE",
"72 270 CURVE",
"100 431 OFFCURVE",
"212 529 OFFCURVE",
"360 529 CURVE",
"501 529 OFFCURVE",
"586 426 OFFCURVE"
);
}
);
width = 671;
},
{
layerId = "248E82CE-81F2-4042-A23E-56D22FBFDD32";
paths = (
{
closed = 1;
nodes = (
"452 514 LINE",
"421 555 OFFCURVE",
"374 568 OFFCURVE",
"312 568 CURVE SMOOTH",
"183 568 OFFCURVE",
"52 476 OFFCURVE",
"22 298 CURVE SMOOTH",
"-9 116 OFFCURVE",
"68 -6 OFFCURVE",
"221 -6 CURVE SMOOTH",
"279 -6 OFFCURVE",
"325 16 OFFCURVE",
"373 62 CURVE",
"314 -270 LINE",
"535 -270 LINE",
"682 564 LINE",
"461 564 LINE"
);
},
{
closed = 1;
nodes = (
"411 282 CURVE SMOOTH",
"399 210 OFFCURVE",
"346 187 OFFCURVE",
"313 187 CURVE SMOOTH",
"280 187 OFFCURVE",
"234 206 OFFCURVE",
"247 278 CURVE SMOOTH",
"259 350 OFFCURVE",
"313 376 OFFCURVE",
"346 376 CURVE SMOOTH",
"379 376 OFFCURVE",
"424 354 OFFCURVE"
);
}
);
width = 675;
}
);
unicode = 0071;
userData = {
com.typesupply.AccentFactory.yCoordinates = {
top = {
name = xHeight;
type = fontInfo;
};
};
};
},
{
glyphname = r;
lastChange = "2017-08-09 06:16:28 +0000";
layers = (
{
anchors = (
{
name = bottom;
position = "{100, 0}";
},
{
name = top;
position = "{200, 540}";
}
);
layerId = "4C47FEBD-3B68-4176-B8ED-E26FA8D86AD9";
paths = (
{
closed = 1;
nodes = (
"105 321 LINE",
"105 481 OFFCURVE",
"212 530 OFFCURVE",
"309 530 CURVE SMOOTH",
"318 530 LINE",
"318 552 LINE",
"171 552 OFFCURVE",
"98 479 OFFCURVE",
"98 341 CURVE"
);
},
{
closed = 1;
nodes = (
"85 0 LINE",
"105 0 LINE",
"105 540 LINE",
"85 540 LINE"
);
}
);
width = 338;
},
{
anchors = (
{
name = bottom;
position = "{155, 0}";
},
{
name = top;
position = "{275, 564}";
}
);
layerId = "1A40E216-9158-4F5D-A2E9-8F4663F027D5";
paths = (
{
closed = 1;
nodes = (
"272 231 LINE",
"272 308 OFFCURVE",
"314 331 OFFCURVE",
"394 331 CURVE SMOOTH",
"457 331 LINE",
"457 568 LINE",
"327 568 OFFCURVE",
"217 428 OFFCURVE",
"217 291 CURVE"
);
},
{
closed = 1;
nodes = (
"50 0 LINE",
"272 0 LINE",
"272 564 LINE",
"50 564 LINE"
);
}
);
width = 467;
},
{
anchors = (
{
name = bottom;
position = "{51.334, 0}";
},
{
name = top;
position = "{246.55, 540}";
}
);
layerId = "F6847B4A-0A2E-406E-80B1-427EE12FE698";
paths = (
{
closed = 1;
nodes = (
"112.935 321 LINE",
"141.147 481 OFFCURVE",
"256.787 530 OFFCURVE",
"353.787 530 CURVE SMOOTH",
"362.787 530 LINE",
"366.666 552 LINE",
"219.666 552 OFFCURVE",
"133.794 479 OFFCURVE",
"109.461 341 CURVE"
);
},
{
closed = 1;
nodes = (
"36.334 0 LINE",
"56.334 0 LINE",
"151.55 540 LINE",
"131.55 540 LINE"
);
}
);
width = 338;
},
{
anchors = (
{
name = bottom;
position = "{125, 0}";
},
{
name = top;
position = "{344, 564}";
}
);
layerId = "248E82CE-81F2-4042-A23E-56D22FBFDD32";
paths = (
{
closed = 1;
nodes = (
"263 231 LINE",
"276 308 OFFCURVE",
"322 331 OFFCURVE",
"402 331 CURVE SMOOTH",
"465 331 LINE",
"507 568 LINE",
"377 568 OFFCURVE",
"242 428 OFFCURVE",
"218 291 CURVE"
);
},
{
closed = 1;
nodes = (
"0 0 LINE",
"222 0 LINE",
"321 564 LINE",
"99 564 LINE"
);
}
);
width = 467;
}
);
unicode = 0072;
userData = {
com.typesupply.AccentFactory.yCoordinates = {
bottom = {
name = origin;
type = glyphMetric;
};
top = {
name = xHeight;
type = fontInfo;
};
};
};
},
{
color = 6;
glyphname = rcommaaccent;
lastChange = "2017-08-09 06:16:17 +0000";
layers = (
{
components = (
{
name = r;
}
);
layerId = "4C47FEBD-3B68-4176-B8ED-E26FA8D86AD9";
paths = (
{
closed = 1;
nodes = (
"67 -59 LINE",
"67 -97 LINE",
"98 -97 LINE",
"98 -104 LINE SMOOTH",
"98 -137 OFFCURVE",
"87 -158 OFFCURVE",
"55 -158 CURVE",
"55 -176 LINE",
"91 -176 OFFCURVE",
"120 -161 OFFCURVE",
"120 -90 CURVE SMOOTH",
"120 -81 OFFCURVE",
"119 -68 OFFCURVE",
"118 -59 CURVE"
);
}
);
width = 338;
},
{
anchors = (
{
name = _bottom;
position = "{180, 0}";
}
);
components = (
{
name = r;
}
);
layerId = "1A40E216-9158-4F5D-A2E9-8F4663F027D5";
paths = (
{
closed = 1;
nodes = (
"80 -35 LINE",
"80 -182 LINE",
"152 -182 LINE",
"152 -193 LINE SMOOTH",
"152 -245 OFFCURVE",
"131 -268 OFFCURVE",
"97 -268 CURVE",
"97 -346 LINE",
"210 -346 OFFCURVE",
"261 -266 OFFCURVE",
"261 -170 CURVE SMOOTH",
"261 -128 OFFCURVE",
"254 -82 OFFCURVE",
"236 -35 CURVE"
);
}
);
width = 467;
},
{
components = (
{
name = r;
transform = "{1, 0, 0, 1, 11, 0}";
}
);
layerId = "F6847B4A-0A2E-406E-80B1-427EE12FE698";
paths = (
{
closed = 1;
nodes = (
"23.447 -59 LINE",
"16.747 -97 LINE",
"47.747 -97 LINE",
"46.513 -104 LINE SMOOTH",
"40.694 -137 OFFCURVE",
"25.991 -158 OFFCURVE",
"-6.009 -158 CURVE",
"-9.183 -176 LINE",
"26.817 -176 OFFCURVE",
"58.462 -161 OFFCURVE",
"70.981 -90 CURVE SMOOTH",
"72.568 -81 OFFCURVE",
"73.86 -68 OFFCURVE",
"74.447 -59 CURVE"
);
}
);
width = 338;
},
{
anchors = (
{
name = _bottom;
position = "{160, 0}";
}
);
components = (
{
name = r;
transform = "{1, 0, 0, 1, -10, 0}";
}
);
layerId = "248E82CE-81F2-4042-A23E-56D22FBFDD32";
paths = (
{
closed = 1;
nodes = (
"54 -35 LINE",
"28 -182 LINE",
"100 -182 LINE",
"98 -193 LINE SMOOTH",
"89 -245 OFFCURVE",
"64 -268 OFFCURVE",
"30 -268 CURVE",
"16 -346 LINE",
"129 -346 OFFCURVE",
"194 -266 OFFCURVE",
"211 -170 CURVE SMOOTH",
"219 -128 OFFCURVE",
"220 -82 OFFCURVE",
"210 -35 CURVE"
);
}
);
width = 466;
}
);
unicode = 0157;
userData = {
com.typesupply.AccentFactory.compileType = manual;
public.markColor = "0.5,0.09,0.79,1";
};
},
{
glyphname = s;
lastChange = "2017-08-09 06:16:28 +0000";
layers = (
{
anchors = (
{
name = bottom;
position = "{244, 0}";
},
{
name = top;
position = "{244, 540}";
}
);
layerId = "4C47FEBD-3B68-4176-B8ED-E26FA8D86AD9";
paths = (
{
closed = 1;
nodes = (
"66 407 CURVE",
"66 206 OFFCURVE",
"403 321 OFFCURVE",
"403 133 CURVE",
"403 64 OFFCURVE",
"355 11 OFFCURVE",
"267 11 CURVE SMOOTH",
"149 11 OFFCURVE",
"88 80 OFFCURVE",
"80 158 CURVE",
"60 158 LINE",
"72 57 OFFCURVE",
"152 -7 OFFCURVE",
"266 -7 CURVE SMOOTH",
"360 -7 OFFCURVE",
"423 51 OFFCURVE",
"423 133 CURVE",
"423 342 OFFCURVE",
"86 226 OFFCURVE",
"86 407 CURVE",
"86 479 OFFCURVE",
"139 529 OFFCURVE",
"230 529 CURVE SMOOTH",
"338 529 OFFCURVE",
"391 458 OFFCURVE",
"399 382 CURVE",
"419 382 LINE",
"407 483 OFFCURVE",
"338 547 OFFCURVE",
"230 547 CURVE SMOOTH",
"132 547 OFFCURVE",
"66 493 OFFCURVE"
);
}
);
width = 483;
},
{
anchors = (
{
name = bottom;
position = "{302, 0}";
},
{
name = top;
position = "{302, 564}";
}
);
layerId = "1A40E216-9158-4F5D-A2E9-8F4663F027D5";
paths = (
{
closed = 1;
nodes = (
"36 394 CURVE",
"36 176 OFFCURVE",
"347 246 OFFCURVE",
"347 170 CURVE",
"347 155 OFFCURVE",
"336 146 OFFCURVE",
"313 146 CURVE SMOOTH",
"280 146 OFFCURVE",
"249 156 OFFCURVE",
"244 195 CURVE",
"31 195 LINE",
"53 64 OFFCURVE",
"151 -7 OFFCURVE",
"314 -7 CURVE",
"464 -7 OFFCURVE",
"551 65 OFFCURVE",
"551 165 CURVE",
"551 382 OFFCURVE",
"236 323 OFFCURVE",
"236 393 CURVE",
"236 409 OFFCURVE",
"246 417 OFFCURVE",
"267 417 CURVE",
"297 417 OFFCURVE",
"325 405 OFFCURVE",
"335 369 CURVE",
"542 369 LINE",
"519 483 OFFCURVE",
"433 571 OFFCURVE",
"272 571 CURVE",
"115 571 OFFCURVE",
"36 493 OFFCURVE"
);
}
);
width = 579;
},
{
anchors = (
{
name = bottom;
position = "{186, 0}";
},
{
name = top;
position = "{282, 540}";
}
);
layerId = "F6847B4A-0A2E-406E-80B1-427EE12FE698";
paths = (
{
closed = 1;
nodes = (
"80 427 CURVE SMOOTH",
"40 202 OFFCURVE",
"406 333 OFFCURVE",
"369 109 CURVE SMOOTH",
"359 53 OFFCURVE",
"308 11 OFFCURVE",
"231 11 CURVE SMOOTH",
"98 11 OFFCURVE",
"44 80 OFFCURVE",
"50 158 CURVE",
"30 158 LINE",
"24 57 OFFCURVE",
"100 -7 OFFCURVE",
"227 -7 CURVE SMOOTH",
"317 -7 OFFCURVE",
"377 41 OFFCURVE",
"389 109 CURVE SMOOTH",
"433 350 OFFCURVE",
"63 224 OFFCURVE",
"100 427 CURVE SMOOTH",
"111 487 OFFCURVE",
"166 529 OFFCURVE",
"246 529 CURVE SMOOTH",
"369 529 OFFCURVE",
"414 458 OFFCURVE",
"409 382 CURVE",
"429 382 LINE",
"435 483 OFFCURVE",
"371 547 OFFCURVE",
"249 547 CURVE SMOOTH",
"157 547 OFFCURVE",
"93 501 OFFCURVE"
);
}
);
width = 463;
},
{
anchors = (
{
name = bottom;
position = "{252, 0}";
},
{
name = top;
position = "{352, 564}";
}
);
layerId = "248E82CE-81F2-4042-A23E-56D22FBFDD32";
paths = (
{
closed = 1;
nodes = (
"42 419 CURVE SMOOTH",
"-1.01 184.948 OFFCURVE",
"352.35 235.65 OFFCURVE",
"338 168 CURVE",
"335 155 OFFCURVE",
"325 146 OFFCURVE",
"295 146 CURVE SMOOTH",
"257.938 146 OFFCURVE",
"219.488 156.06 OFFCURVE",
"222 195 CURVE",
"5 195 LINE",
"14 64 OFFCURVE",
"122 -7 OFFCURVE",
"277 -7 CURVE",
"436 -7 OFFCURVE",
"520.982 58.905 OFFCURVE",
"537 143 CURVE SMOOTH",
"581.053 374.28 OFFCURVE",
"224.998 331.988 OFFCURVE",
"236 397 CURVE SMOOTH",
"239 413 OFFCURVE",
"256 417 OFFCURVE",
"279 417 CURVE SMOOTH",
"313.986 417 OFFCURVE",
"346.217 405.57 OFFCURVE",
"350 369 CURVE",
"567 369 LINE",
"553.993 483.058 OFFCURVE",
"473.525 571 OFFCURVE",
"298 571 CURVE SMOOTH",
"139.203 571 OFFCURVE",
"55.988 500.932 OFFCURVE"
);
}
);
width = 579;
}
);
unicode = 0073;
userData = {
com.typesupply.AccentFactory.yCoordinates = {
bottom = {
name = origin;
type = glyphMetric;
};
top = {
name = xHeight;
type = fontInfo;
};
};
};
},
{
color = 6;
glyphname = scommaaccent;
lastChange = "2017-08-09 06:16:17 +0000";
layers = (
{
components = (
{
name = s;
}
);
layerId = "4C47FEBD-3B68-4176-B8ED-E26FA8D86AD9";
paths = (
{
closed = 1;
nodes = (
"237 -59 LINE",
"237 -97 LINE",
"268 -97 LINE",
"268 -104 LINE SMOOTH",
"268 -137 OFFCURVE",
"257 -158 OFFCURVE",
"225 -158 CURVE",
"225 -176 LINE",
"261 -176 OFFCURVE",
"290 -161 OFFCURVE",
"290 -90 CURVE SMOOTH",
"290 -81 OFFCURVE",
"289 -68 OFFCURVE",
"288 -59 CURVE"
);
}
);
width = 483;
},
{
anchors = (
{
name = _bottom;
position = "{288, 0}";
}
);
components = (
{
name = s;
}
);
layerId = "1A40E216-9158-4F5D-A2E9-8F4663F027D5";
paths = (
{
closed = 1;
nodes = (
"208 -35 LINE",
"208 -182 LINE",
"280 -182 LINE",
"280 -193 LINE SMOOTH",
"280 -245 OFFCURVE",
"259 -268 OFFCURVE",
"225 -268 CURVE",
"225 -346 LINE",
"338 -346 OFFCURVE",
"389 -266 OFFCURVE",
"389 -170 CURVE SMOOTH",
"389 -128 OFFCURVE",
"382 -82 OFFCURVE",
"364 -35 CURVE"
);
}
);
width = 579;
},
{
components = (
{
name = s;
transform = "{1, 0, 0, 1, -0.709, 0}";
}
);
layerId = "F6847B4A-0A2E-406E-80B1-427EE12FE698";
paths = (
{
closed = 1;
nodes = (
"176 -59 LINE",
"169 -97 LINE",
"200 -97 LINE",
"199 -104 LINE SMOOTH",
"193 -137 OFFCURVE",
"178 -158 OFFCURVE",
"146 -158 CURVE",
"143 -176 LINE",
"179 -176 OFFCURVE",
"211 -161 OFFCURVE",
"223 -90 CURVE SMOOTH",
"225 -81 OFFCURVE",
"226 -68 OFFCURVE",
"227 -59 CURVE"
);
}
);
width = 483;
},
{
anchors = (
{
name = _bottom;
position = "{268, 0}";
}
);
components = (
{
name = s;
transform = "{1, 0, 0, 1, 10, 0}";
}
);
layerId = "248E82CE-81F2-4042-A23E-56D22FBFDD32";
paths = (
{
closed = 1;
nodes = (
"182 -35 LINE",
"156 -182 LINE",
"228 -182 LINE",
"226 -193 LINE SMOOTH",
"217 -245 OFFCURVE",
"192 -268 OFFCURVE",
"158 -268 CURVE",
"144 -346 LINE",
"257 -346 OFFCURVE",
"322 -266 OFFCURVE",
"339 -170 CURVE SMOOTH",
"346 -128 OFFCURVE",
"347 -82 OFFCURVE",
"338 -35 CURVE"
);
}
);
width = 588;
}
);
unicode = 0219;
userData = {
com.typesupply.AccentFactory.compileType = manual;
public.markColor = "0.5,0.09,0.79,1";
};
},
{
glyphname = t;
lastChange = "2017-08-09 06:16:28 +0000";
layers = (
{
anchors = (
{
name = bottom;
position = "{158, 0}";
},
{
name = topright;
position = "{140, 726}";
}
);
layerId = "4C47FEBD-3B68-4176-B8ED-E26FA8D86AD9";
paths = (
{
closed = 1;
nodes = (
"108 142 LINE SMOOTH",
"108 37 OFFCURVE",
"147 0 OFFCURVE",
"239 0 CURVE SMOOTH",
"298 0 LINE",
"298 20 LINE",
"241 20 LINE SMOOTH",
"159 20 OFFCURVE",
"128 45 OFFCURVE",
"128 142 CURVE SMOOTH",
"128 678 LINE",
"108 678 LINE"
);
},
{
closed = 1;
nodes = (
"298 520 LINE",
"298 540 LINE",
"20 540 LINE",
"20 520 LINE"
);
}
);
width = 338;
},
{
anchors = (
{
name = bottom;
position = "{227, 0}";
},
{
name = topright;
position = "{283, 942}";
}
);
layerId = "1A40E216-9158-4F5D-A2E9-8F4663F027D5";
paths = (
{
closed = 1;
nodes = (
"85 231 LINE SMOOTH",
"85 56 OFFCURVE",
"185 0 OFFCURVE",
"317 0 CURVE SMOOTH",
"401 0 LINE",
"401 189 LINE",
"348 189 LINE SMOOTH",
"319 189 OFFCURVE",
"307 201 OFFCURVE",
"307 227 CURVE SMOOTH",
"307 700 LINE",
"85 700 LINE"
);
},
{
closed = 1;
nodes = (
"399 379 LINE",
"399 564 LINE",
"15 564 LINE",
"15 379 LINE"
);
}
);
width = 436;
},
{
anchors = (
{
name = bottom;
position = "{98.225, 0}";
},
{
name = topright;
position = "{208.239, 726}";
}
);
layerId = "F6847B4A-0A2E-406E-80B1-427EE12FE698";
paths = (
{
closed = 1;
nodes = (
"73.264 142 LINE SMOOTH",
"54.749 37 OFFCURVE",
"87.225 0 OFFCURVE",
"179.225 0 CURVE SMOOTH",
"238.225 0 LINE",
"241.752 20 LINE",
"184.752 20 LINE SMOOTH",
"102.752 20 OFFCURVE",
"76.16 45 OFFCURVE",
"93.264 142 CURVE SMOOTH",
"187.775 678 LINE",
"167.775 678 LINE"
);
},
{
closed = 1;
nodes = (
"329.915 520 LINE",
"333.442 540 LINE",
"55.442 540 LINE",
"51.915 520 LINE"
);
}
);
width = 338;
},
{
anchors = (
{
name = bottom;
position = "{175, 0}";
},
{
name = topright;
position = "{397, 942}";
}
);
layerId = "248E82CE-81F2-4042-A23E-56D22FBFDD32";
paths = (
{
closed = 1;
nodes = (
"64 231 LINE SMOOTH",
"33 56 OFFCURVE",
"123 0 OFFCURVE",
"255 0 CURVE SMOOTH",
"339 0 LINE",
"373 189 LINE",
"320 189 LINE SMOOTH",
"291 189 OFFCURVE",
"281 201 OFFCURVE",
"285 227 CURVE SMOOTH",
"369 700 LINE",
"147 700 LINE"
);
},
{
closed = 1;
nodes = (
"404 379 LINE",
"437 564 LINE",
"53 564 LINE",
"20 379 LINE"
);
}
);
width = 436;
}
);
unicode = 0074;
userData = {
com.typesupply.AccentFactory.yCoordinates = {
bottom = {
name = origin;
type = glyphMetric;
};
};
};
},
{
color = 6;
glyphname = tcedilla;
lastChange = "2017-08-09 06:16:17 +0000";
layers = (
{
layerId = "4C47FEBD-3B68-4176-B8ED-E26FA8D86AD9";
paths = (
{
closed = 1;
nodes = (
"108 142 LINE SMOOTH",
"108 37 OFFCURVE",
"147 0 OFFCURVE",
"239 0 CURVE SMOOTH",
"298 0 LINE",
"298 20 LINE",
"241 20 LINE SMOOTH",
"159 20 OFFCURVE",
"128 45 OFFCURVE",
"128 142 CURVE SMOOTH",
"128 678 LINE",
"108 678 LINE"
);
},
{
closed = 1;
nodes = (
"298 520 LINE",
"298 540 LINE",
"20 540 LINE",
"20 520 LINE"
);
},
{
closed = 1;
nodes = (
"223 7 LINE",
"203 7 LINE",
"203 -107 LINE",
"240 -107 LINE SMOOTH",
"307 -107 OFFCURVE",
"329 -135 OFFCURVE",
"329 -168 CURVE SMOOTH",
"329 -207 OFFCURVE",
"307 -234 OFFCURVE",
"240 -234 CURVE SMOOTH",
"180 -234 LINE",
"180 -254 LINE",
"243 -254 LINE SMOOTH",
"313 -254 OFFCURVE",
"349 -218 OFFCURVE",
"349 -168 CURVE SMOOTH",
"349 -114 OFFCURVE",
"306 -84 OFFCURVE",
"223 -89 CURVE"
);
}
);
width = 338;
},
{
layerId = "1A40E216-9158-4F5D-A2E9-8F4663F027D5";
paths = (
{
closed = 1;
nodes = (
"85 231 LINE SMOOTH",
"85 56 OFFCURVE",
"185 0 OFFCURVE",
"317 0 CURVE SMOOTH",
"401 0 LINE",
"401 189 LINE",
"348 189 LINE SMOOTH",
"319 189 OFFCURVE",
"307 201 OFFCURVE",
"307 227 CURVE SMOOTH",
"307 700 LINE",
"85 700 LINE"
);
},
{
closed = 1;
nodes = (
"399 379 LINE",
"399 564 LINE",
"15 564 LINE",
"15 379 LINE"
);
},
{
closed = 1;
nodes = (
"312 107 LINE",
"184 107 LINE",
"184 -127 LINE",
"269 -127 LINE SMOOTH",
"285 -127 OFFCURVE",
"295 -132 OFFCURVE",
"295 -142 CURVE SMOOTH",
"295 -152 OFFCURVE",
"285 -158 OFFCURVE",
"269 -158 CURVE SMOOTH",
"119 -158 LINE",
"119 -271 LINE",
"292 -271 LINE",
"359 -271 OFFCURVE",
"442 -244 OFFCURVE",
"442 -149 CURVE",
"442 -54 OFFCURVE",
"360 -27 OFFCURVE",
"312 -27 CURVE"
);
}
);
width = 436;
},
{
layerId = "F6847B4A-0A2E-406E-80B1-427EE12FE698";
paths = (
{
closed = 1;
nodes = (
"76 142 LINE SMOOTH",
"57 37 OFFCURVE",
"90 0 OFFCURVE",
"182 0 CURVE SMOOTH",
"241 0 LINE",
"244 20 LINE",
"187 20 LINE SMOOTH",
"105 20 OFFCURVE",
"79 45 OFFCURVE",
"96 142 CURVE SMOOTH",
"190 678 LINE",
"170 678 LINE"
);
},
{
closed = 1;
nodes = (
"332 520 LINE",
"336 540 LINE",
"58 540 LINE",
"54 520 LINE"
);
},
{
closed = 1;
nodes = (
"167 7 LINE",
"147 7 LINE",
"127 -107 LINE",
"164 -107 LINE SMOOTH",
"231 -107 OFFCURVE",
"248 -135 OFFCURVE",
"242 -168 CURVE SMOOTH",
"235 -207 OFFCURVE",
"208 -234 OFFCURVE",
"141 -234 CURVE SMOOTH",
"81 -234 LINE",
"78 -254 LINE",
"141 -254 LINE SMOOTH",
"211 -254 OFFCURVE",
"253 -218 OFFCURVE",
"262 -168 CURVE SMOOTH",
"272 -114 OFFCURVE",
"234 -84 OFFCURVE",
"150 -89 CURVE"
);
}
);
width = 338;
},
{
layerId = "248E82CE-81F2-4042-A23E-56D22FBFDD32";
paths = (
{
closed = 1;
nodes = (
"68 231 LINE SMOOTH",
"37 56 OFFCURVE",
"127 0 OFFCURVE",
"259 0 CURVE SMOOTH",
"343 0 LINE",
"377 189 LINE",
"324 189 LINE SMOOTH",
"295 189 OFFCURVE",
"285 201 OFFCURVE",
"289 227 CURVE SMOOTH",
"373 700 LINE",
"151 700 LINE"
);
},
{
closed = 1;
nodes = (
"408 379 LINE",
"441 564 LINE",
"57 564 LINE",
"24 379 LINE"
);
},
{
closed = 1;
nodes = (
"293 107 LINE",
"165 107 LINE",
"124 -127 LINE",
"209 -127 LINE SMOOTH",
"225 -127 OFFCURVE",
"234 -132 OFFCURVE",
"232 -142 CURVE SMOOTH",
"230 -152 OFFCURVE",
"219 -158 OFFCURVE",
"203 -158 CURVE SMOOTH",
"53 -158 LINE",
"33 -271 LINE",
"206 -271 LINE",
"273 -271 OFFCURVE",
"361 -244 OFFCURVE",
"378 -149 CURVE",
"395 -54 OFFCURVE",
"317 -27 OFFCURVE",
"269 -27 CURVE"
);
}
);
width = 436;
}
);
unicode = 0163;
userData = {
public.markColor = "0.5,0.09,0.79,1";
};
},
{
glyphname = tcaron;
lastChange = "2017-08-09 06:16:28 +0000";
layers = (
{
components = (
{
name = t;
}
);
layerId = "4C47FEBD-3B68-4176-B8ED-E26FA8D86AD9";
paths = (
{
closed = 1;
nodes = (
"202 740 LINE",
"202 687 LINE",
"240 687 LINE",
"240 658 LINE SMOOTH",
"240 629 OFFCURVE",
"230 613 OFFCURVE",
"195 613 CURVE",
"195 593 LINE",
"235 593 OFFCURVE",
"262 608 OFFCURVE",
"262 671 CURVE SMOOTH",
"262 689 OFFCURVE",
"261 711 OFFCURVE",
"258 740 CURVE"
);
}
);
width = 338;
},
{
components = (
{
name = t;
}
);
layerId = "1A40E216-9158-4F5D-A2E9-8F4663F027D5";
paths = (
{
closed = 1;
nodes = (
"338 890 LINE",
"338 744 LINE",
"410 744 LINE",
"410 727 LINE SMOOTH",
"410 701 OFFCURVE",
"390 688 OFFCURVE",
"355 688 CURVE",
"355 609 LINE",
"469 609 OFFCURVE",
"520 678 OFFCURVE",
"520 766 CURVE SMOOTH",
"520 808 OFFCURVE",
"512 844 OFFCURVE",
"494 890 CURVE"
);
}
);
width = 436;
},
{
components = (
{
name = t;
transform = "{1, 0, 0, 1, -1, 0}";
}
);
layerId = "F6847B4A-0A2E-406E-80B1-427EE12FE698";
paths = (
{
closed = 1;
nodes = (
"277 740 LINE",
"268 687 LINE",
"306 687 LINE",
"301 658 LINE SMOOTH",
"296 629 OFFCURVE",
"283 613 OFFCURVE",
"248 613 CURVE",
"244 593 LINE",
"284 593 OFFCURVE",
"314 608 OFFCURVE",
"325 671 CURVE SMOOTH",
"328 689 OFFCURVE",
"331 711 OFFCURVE",
"333 740 CURVE"
);
}
);
width = 338;
},
{
components = (
{
name = t;
transform = "{1, 0, 0, 1, -8, 0}";
}
);
layerId = "248E82CE-81F2-4042-A23E-56D22FBFDD32";
paths = (
{
closed = 1;
nodes = (
"407 890 LINE",
"381 744 LINE",
"453 744 LINE",
"450 727 LINE SMOOTH",
"445 701 OFFCURVE",
"423 688 OFFCURVE",
"388 688 CURVE",
"374 609 LINE",
"488 609 OFFCURVE",
"551 678 OFFCURVE",
"567 766 CURVE SMOOTH",
"574 808 OFFCURVE",
"572 844 OFFCURVE",
"563 890 CURVE"
);
}
);
width = 426;
}
);
unicode = 0165;
userData = {
com.typesupply.AccentFactory.compileType = manual;
};
},
{
color = 6;
glyphname = tcommaaccent;
lastChange = "2017-08-09 06:16:17 +0000";
layers = (
{
components = (
{
name = t;
}
);
layerId = "4C47FEBD-3B68-4176-B8ED-E26FA8D86AD9";
paths = (
{
closed = 1;
nodes = (
"177 -59 LINE",
"177 -97 LINE",
"208 -97 LINE",
"208 -104 LINE SMOOTH",
"208 -137 OFFCURVE",
"197 -158 OFFCURVE",
"165 -158 CURVE",
"165 -176 LINE",
"201 -176 OFFCURVE",
"230 -161 OFFCURVE",
"230 -90 CURVE SMOOTH",
"230 -81 OFFCURVE",
"229 -68 OFFCURVE",
"228 -59 CURVE"
);
}
);
width = 338;
},
{
anchors = (
{
name = _bottom;
position = "{227, 0}";
}
);
components = (
{
name = t;
}
);
layerId = "1A40E216-9158-4F5D-A2E9-8F4663F027D5";
paths = (
{
closed = 1;
nodes = (
"147 -35 LINE",
"147 -182 LINE",
"219 -182 LINE",
"219 -193 LINE SMOOTH",
"219 -245 OFFCURVE",
"199 -268 OFFCURVE",
"164 -268 CURVE",
"164 -346 LINE",
"278 -346 OFFCURVE",
"329 -266 OFFCURVE",
"329 -170 CURVE SMOOTH",
"329 -128 OFFCURVE",
"321 -82 OFFCURVE",
"303 -35 CURVE"
);
}
);
width = 436;
},
{
components = (
{
name = t;
transform = "{1, 0, 0, 1, 10, 0}";
}
);
layerId = "F6847B4A-0A2E-406E-80B1-427EE12FE698";
paths = (
{
closed = 1;
nodes = (
"122.339 -59 LINE",
"115.638 -97 LINE",
"146.638 -97 LINE",
"145.404 -104 LINE SMOOTH",
"139.585 -137 OFFCURVE",
"124.882 -158 OFFCURVE",
"92.882 -158 CURVE",
"89.708 -176 LINE",
"125.708 -176 OFFCURVE",
"157.353 -161 OFFCURVE",
"169.872 -90 CURVE SMOOTH",
"171.459 -81 OFFCURVE",
"172.752 -68 OFFCURVE",
"173.339 -59 CURVE"
);
}
);
width = 338;
},
{
anchors = (
{
name = _bottom;
position = "{186, 0}";
}
);
components = (
{
name = t;
transform = "{1, 0, 0, 1, 9, 0}";
}
);
layerId = "248E82CE-81F2-4042-A23E-56D22FBFDD32";
paths = (
{
closed = 1;
nodes = (
"150 -35 LINE",
"124 -182 LINE",
"196 -182 LINE",
"194 -193 LINE SMOOTH",
"185 -245 OFFCURVE",
"161 -268 OFFCURVE",
"126 -268 CURVE",
"112 -346 LINE",
"226 -346 OFFCURVE",
"291 -266 OFFCURVE",
"308 -170 CURVE SMOOTH",
"315 -128 OFFCURVE",
"315 -82 OFFCURVE",
"306 -35 CURVE"
);
}
);
width = 436;
}
);
unicode = 021B;
userData = {
com.typesupply.AccentFactory.compileType = manual;
public.markColor = "0.5,0.09,0.79,1";
};
},
{
glyphname = u;
lastChange = "2017-08-09 06:16:28 +0000";
layers = (
{
anchors = (
{
name = ogonek;
position = "{499, 1}";
},
{
name = top;
position = "{293, 540}";
}
);
layerId = "4C47FEBD-3B68-4176-B8ED-E26FA8D86AD9";
paths = (
{
closed = 1;
nodes = (
"514 540 LINE",
"494 540 LINE",
"494 0 LINE",
"514 0 LINE"
);
},
{
closed = 1;
nodes = (
"84 540 LINE",
"65 540 LINE",
"65 225 LINE SMOOTH",
"65 58 OFFCURVE",
"164 -12 OFFCURVE",
"282 -12 CURVE",
"392 -12 OFFCURVE",
"497 55 OFFCURVE",
"502 215 CURVE",
"494 253 LINE",
"494 84 OFFCURVE",
"405 6 OFFCURVE",
"282 6 CURVE",
"163 6 OFFCURVE",
"84 79 OFFCURVE",
"84 223 CURVE SMOOTH"
);
}
);
width = 599;
},
{
anchors = (
{
name = ogonek;
position = "{647, -3}";
},
{
name = top;
position = "{349, 564}";
}
);
layerId = "1A40E216-9158-4F5D-A2E9-8F4663F027D5";
paths = (
{
closed = 1;
nodes = (
"647 564 LINE",
"425 564 LINE",
"425 0 LINE",
"647 0 LINE"
);
},
{
closed = 1;
nodes = (
"267 564 LINE",
"46 564 LINE",
"46 237 LINE SMOOTH",
"46 91 OFFCURVE",
"122 -4 OFFCURVE",
"252 -4 CURVE SMOOTH",
"352 -4 OFFCURVE",
"413 53 OFFCURVE",
"440 113 CURVE",
"425 265 LINE",
"425 211 OFFCURVE",
"395 178 OFFCURVE",
"346 178 CURVE SMOOTH",
"298 178 OFFCURVE",
"267 211 OFFCURVE",
"267 265 CURVE SMOOTH"
);
}
);
width = 697;
},
{
anchors = (
{
name = ogonek;
position = "{452.626, 1}";
},
{
name = top;
position = "{341.666, 540}";
}
);
layerId = "F6847B4A-0A2E-406E-80B1-427EE12FE698";
paths = (
{
closed = 1;
nodes = (
"562.666 540 LINE",
"542.666 540 LINE",
"447.45 0 LINE",
"467.45 0 LINE"
);
},
{
closed = 1;
nodes = (
"132.666 540 LINE",
"113.666 540 LINE",
"58.123 225 LINE SMOOTH",
"28.677 58 OFFCURVE",
"115.334 -12 OFFCURVE",
"233.334 -12 CURVE",
"343.334 -12 OFFCURVE",
"460.148 55 OFFCURVE",
"493.36 215 CURVE",
"492.06 253 LINE",
"462.261 84 OFFCURVE",
"359.508 6 OFFCURVE",
"236.508 6 CURVE",
"117.508 6 OFFCURVE",
"51.38 79 OFFCURVE",
"76.771 223 CURVE SMOOTH"
);
}
);
width = 599;
},
{
anchors = (
{
name = ogonek;
position = "{597, -3}";
},
{
name = top;
position = "{399, 564}";
}
);
layerId = "248E82CE-81F2-4042-A23E-56D22FBFDD32";
paths = (
{
closed = 1;
nodes = (
"687 564 LINE",
"465 564 LINE",
"366 0 LINE",
"588 0 LINE"
);
},
{
closed = 1;
nodes = (
"307 564 LINE",
"86 564 LINE",
"28 237 LINE SMOOTH",
"3 91 OFFCURVE",
"62 -4 OFFCURVE",
"192 -4 CURVE SMOOTH",
"292 -4 OFFCURVE",
"363 53 OFFCURVE",
"401 113 CURVE",
"412 265 LINE",
"403 211 OFFCURVE",
"367 178 OFFCURVE",
"318 178 CURVE SMOOTH",
"270 178 OFFCURVE",
"245 211 OFFCURVE",
"254 265 CURVE SMOOTH"
);
}
);
width = 687;
}
);
unicode = 0075;
userData = {
com.typesupply.AccentFactory.yCoordinates = {
bottom = {
name = origin;
type = glyphMetric;
};
top = {
name = xHeight;
type = fontInfo;
};
};
};
},
{
glyphname = v;
lastChange = "2017-08-09 06:16:28 +0000";
layers = (
{
layerId = "4C47FEBD-3B68-4176-B8ED-E26FA8D86AD9";
paths = (
{
closed = 1;
nodes = (
"20 540 LINE",
"250 0 LINE",
"265 0 LINE",
"495 540 LINE",
"473 540 LINE",
"258 35 LINE",
"42 540 LINE"
);
}
);
width = 515;
},
{
layerId = "1A40E216-9158-4F5D-A2E9-8F4663F027D5";
paths = (
{
closed = 1;
nodes = (
"9 564 LINE",
"197 0 LINE",
"474 0 LINE",
"662 564 LINE",
"426 564 LINE",
"336 211 LINE",
"245 564 LINE"
);
}
);
width = 671;
},
{
layerId = "F6847B4A-0A2E-406E-80B1-427EE12FE698";
paths = (
{
closed = 1;
nodes = (
"67.608 540 LINE",
"202.392 0 LINE",
"217.392 0 LINE",
"542.608 540 LINE",
"520.608 540 LINE",
"216.563 35 LINE",
"89.608 540 LINE"
);
}
);
width = 515;
},
{
layerId = "248E82CE-81F2-4042-A23E-56D22FBFDD32";
paths = (
{
closed = 1;
nodes = (
"29 564 LINE",
"117 0 LINE",
"394 0 LINE",
"682 564 LINE",
"446 564 LINE",
"293 211 LINE",
"265 564 LINE"
);
}
);
width = 641;
}
);
unicode = 0076;
userData = {
com.typesupply.AccentFactory.yCoordinates = {
bottom = {
name = origin;
type = glyphMetric;
};
top = {
name = xHeight;
type = fontInfo;
};
};
};
},
{
glyphname = w;
lastChange = "2017-08-09 06:16:28 +0000";
layers = (
{
layerId = "4C47FEBD-3B68-4176-B8ED-E26FA8D86AD9";
paths = (
{
closed = 1;
nodes = (
"190 0 LINE",
"205 0 LINE",
"411 528 LINE",
"391 530 LINE",
"598 0 LINE",
"613 0 LINE",
"783 540 LINE",
"761 540 LINE",
"595 13 LINE",
"615 13 LINE",
"410 540 LINE",
"393 540 LINE",
"188 13 LINE",
"208 13 LINE",
"42 540 LINE",
"20 540 LINE"
);
}
);
width = 803;
},
{
layerId = "1A40E216-9158-4F5D-A2E9-8F4663F027D5";
paths = (
{
closed = 1;
nodes = (
"132 0 LINE",
"382 0 LINE",
"474 409 LINE",
"434 409 LINE",
"522 0 LINE",
"772 0 LINE",
"906 564 LINE",
"701 564 LINE",
"633 72 LINE",
"685 72 LINE",
"576 564 LINE",
"339 564 LINE",
"235 72 LINE",
"287 72 LINE",
"219 564 LINE",
"-1 564 LINE"
);
}
);
width = 903;
},
{
layerId = "F6847B4A-0A2E-406E-80B1-427EE12FE698";
paths = (
{
closed = 1;
nodes = (
"142.392 0 LINE",
"157.392 0 LINE",
"456.492 528 LINE",
"436.845 530 LINE",
"550.392 0 LINE",
"565.392 0 LINE",
"830.608 540 LINE",
"808.608 540 LINE",
"549.684 13 LINE",
"569.684 13 LINE",
"457.608 540 LINE",
"440.608 540 LINE",
"142.684 13 LINE",
"162.684 13 LINE",
"89.608 540 LINE",
"67.608 540 LINE"
);
}
);
width = 803;
},
{
layerId = "248E82CE-81F2-4042-A23E-56D22FBFDD32";
paths = (
{
closed = 1;
nodes = (
"62 0 LINE",
"312 0 LINE",
"476 409 LINE",
"436 409 LINE",
"452 0 LINE",
"702 0 LINE",
"936 564 LINE",
"731 564 LINE",
"576 72 LINE",
"628 72 LINE",
"606 564 LINE",
"369 564 LINE",
"178 72 LINE",
"230 72 LINE",
"249 564 LINE",
"29 564 LINE"
);
}
);
width = 883;
}
);
unicode = 0077;
userData = {
com.typemytype.robofont.layerData = {
b = {
anchors = (
);
components = (
);
contours = (
{
points = (
{
segmentType = line;
smooth = 0;
x = 211;
y = 0;
},
{
segmentType = line;
smooth = 0;
x = 225;
y = 0;
},
{
segmentType = line;
smooth = 0;
x = 405;
y = 569;
},
{
segmentType = line;
smooth = 0;
x = 373;
y = 569;
},
{
segmentType = line;
smooth = 0;
x = 555;
y = 0;
},
{
segmentType = line;
smooth = 0;
x = 569;
y = 0;
},
{
segmentType = line;
smooth = 0;
x = 747;
y = 540;
},
{
segmentType = line;
smooth = 0;
x = 716;
y = 540;
},
{
segmentType = line;
smooth = 0;
x = 552;
y = 32;
},
{
segmentType = line;
smooth = 0;
x = 560;
y = 32;
},
{
segmentType = line;
smooth = 0;
x = 401;
y = 540;
},
{
segmentType = line;
smooth = 0;
x = 386;
y = 540;
},
{
segmentType = line;
smooth = 0;
x = 214;
y = 32;
},
{
segmentType = line;
smooth = 0;
x = 222;
y = 32;
},
{
segmentType = line;
smooth = 0;
x = 56;
y = 540;
},
{
segmentType = line;
smooth = 0;
x = 30;
y = 540;
}
);
}
);
lib = {
};
name = w;
unicodes = (
);
width = 803;
};
};
com.typesupply.AccentFactory.yCoordinates = {
bottom = {
name = origin;
type = glyphMetric;
};
top = {
name = xHeight;
type = fontInfo;
};
};
};
},
{
glyphname = x;
lastChange = "2017-08-09 06:16:28 +0000";
layers = (
{
layerId = "4C47FEBD-3B68-4176-B8ED-E26FA8D86AD9";
paths = (
{
closed = 1;
nodes = (
"372 0 LINE",
"396 0 LINE",
"48 540 LINE",
"24 540 LINE"
);
},
{
closed = 1;
nodes = (
"200 284 LINE",
"20 0 LINE",
"42 0 LINE",
"210 262 LINE"
);
},
{
closed = 1;
nodes = (
"211 257 LINE",
"391 540 LINE",
"369 540 LINE",
"200 279 LINE"
);
}
);
width = 416;
},
{
layerId = "1A40E216-9158-4F5D-A2E9-8F4663F027D5";
paths = (
{
closed = 1;
nodes = (
"420 0 LINE",
"668 0 LINE",
"248 564 LINE",
"0 564 LINE"
);
},
{
closed = 1;
nodes = (
"249 375 LINE",
"10 0 LINE",
"254 0 LINE",
"373 213 LINE"
);
},
{
closed = 1;
nodes = (
"420 209 LINE",
"659 564 LINE",
"415 564 LINE",
"306 371 LINE"
);
}
);
width = 668;
},
{
layerId = "F6847B4A-0A2E-406E-80B1-427EE12FE698";
paths = (
{
closed = 1;
nodes = (
"324.392 0 LINE",
"348.392 0 LINE",
"95.608 540 LINE",
"71.608 540 LINE"
);
},
{
closed = 1;
nodes = (
"202.469 284 LINE",
"-27.608 0 LINE",
"-5.608 0 LINE",
"208.589 262 LINE"
);
},
{
closed = 1;
nodes = (
"208.708 257 LINE",
"438.608 540 LINE",
"416.608 540 LINE",
"201.587 279 LINE"
);
}
);
width = 416;
},
{
layerId = "248E82CE-81F2-4042-A23E-56D22FBFDD32";
paths = (
{
closed = 1;
nodes = (
"350 0 LINE",
"598 0 LINE",
"278 564 LINE",
"30 564 LINE"
);
},
{
closed = 1;
nodes = (
"245 375 LINE",
"-60 0 LINE",
"184 0 LINE",
"341 213 LINE"
);
},
{
closed = 1;
nodes = (
"387 209 LINE",
"689 564 LINE",
"445 564 LINE",
"302 371 LINE"
);
}
);
width = 648;
}
);
unicode = 0078;
userData = {
com.typesupply.AccentFactory.yCoordinates = {
bottom = {
name = origin;
type = glyphMetric;
};
top = {
name = xHeight;
type = fontInfo;
};
};
};
},
